<?xml version="1.0" encoding="utf-8"?>
<!-- Generator: Adobe Illustrator 23.0.3, SVG Export Plug-In . SVG Version: 6.00 Build 0)  -->
<svg version="1.1" id="Layer_1" xmlns="http://www.w3.org/2000/svg" xmlns:xlink="http://www.w3.org/1999/xlink" x="0px" y="0px"
	 viewBox="0 0 726 439.4" style="enable-background:new 0 0 726 439.4;" xml:space="preserve">
<style type="text/css">
	.st0{fill:none;stroke:#000000;stroke-width:0.709;stroke-linecap:round;stroke-linejoin:round;stroke-miterlimit:10;}
</style>
<path class="st0" d="M678.8,64v36 M568,100h110.8 M568,64v36 M568,64h110.8"/>
<path class="st0" d="M146,230.5l2.7-0.4l2.5-0.9l2.3-1.5l1.9-2l1.3-2.3l0.8-2.6l0.2-2.7l-0.5-2.7l-1.1-2.5l-1.6-2.2l-2.1-1.7
	l-2.4-1.2l-2.7-0.7h-2.7l-2.6,0.7l-2.5,1.2l-2,1.7l-1.7,2.2l-1,2.5l-0.5,2.7l0.1,2.7l0.8,2.6l1.4,2.3l1.9,2l2.2,1.5l2.6,0.9
	L146,230.5 M150.5,218.8l-0.3-1.7l-0.9-1.4l-1.3-1l-1.6-0.4l-1.7,0.1l-1.4,0.8l-1.2,1.2l-0.6,1.5v1.7l0.6,1.5l1.2,1.3l1.4,0.7
	l1.7,0.1l1.6-0.4l1.3-1l0.9-1.4L150.5,218.8 M388.2,218.8l-0.4-1.7l-0.8-1.4l-1.3-1l-1.6-0.4l-1.7,0.1l-1.5,0.8l-1.1,1.2l-0.6,1.5
	v1.7l0.6,1.5l1.1,1.3l1.5,0.7l1.7,0.1l1.6-0.4l1.3-1l0.8-1.4L388.2,218.8 M383.7,230.5l2.7-0.4l2.5-0.9l2.3-1.5l1.8-2l1.4-2.3
	l0.8-2.6l0.1-2.7l-0.4-2.7l-1.1-2.5l-1.6-2.2l-2.1-1.7l-2.4-1.2l-2.7-0.7h-2.7l-2.6,0.7l-2.5,1.2l-2.1,1.7l-1.6,2.2l-1.1,2.5
	l-0.4,2.7l0.1,2.7l0.8,2.6l1.4,2.3l1.8,2l2.3,1.5l2.6,0.9L383.7,230.5 M714.8,434.8h7.2 M722,427.6v7.2 M2,427.6v7.2 M2,434.8h7.2
	 M2,2.8h7.2 M2,2.8V10 M2,10v417.6 M9.2,10v417.6 M520.5,427.6V288.7 M520.5,427.6h7.2 M527.7,427.6V288.7 M520.5,288.7h7.2 M532,10
	h-7.2 M532,148.8h-7.2 M532,10v138.8 M524.8,10v138.8 M714.8,10v417.6 M722,10v417.6 M9.2,10h705.6 M9.2,2.87H722 M9.2,427.6h705.6
	 M9.2,434.8h705.6 M722,2.8V10"/>
</svg>
