<?xml version="1.0" encoding="utf-8"?>
<!-- Generator: Adobe Illustrator 23.0.3, SVG Export Plug-In . SVG Version: 6.00 Build 0)  -->
<svg version="1.1" id="Layer_1" xmlns="http://www.w3.org/2000/svg" xmlns:xlink="http://www.w3.org/1999/xlink" x="0px" y="0px"
	 viewBox="0 0 30 30" style="enable-background:new 0 0 30 30;" xml:space="preserve">
<style type="text/css">
	.st0{fill:#FFFFFF;}
</style>
<circle cx="14.97" cy="14.97" r="14.97"/>
<g>
	<path class="st0" d="M20.24,19.43c-0.33,1.15-0.77,2.45-1.02,3.39H9.6v-0.61c1.4-1.38,2.93-2.88,4.18-4.34
		c1.61-1.89,3.14-3.93,3.14-6.15c0-2.12-1.12-3.34-2.99-3.34c-1.76,0-2.86,1.38-3.52,2.37l-0.59-0.54l1.45-2.07
		c0.79-0.89,2.02-1.53,3.5-1.53c2.42,0,4.34,1.66,4.34,4.41c0,2.17-0.79,3.7-3.21,6.17c-1.1,1.15-2.7,2.71-3.8,3.75
		c0.15,0,4.64,0,4.87,0c1.38,0,1.76-0.13,2.63-1.74L20.24,19.43z"/>
</g>
<g>
</g>
<g>
</g>
<g>
</g>
<g>
</g>
<g>
</g>
<g>
</g>
</svg>
