<?xml version="1.0" encoding="utf-8"?>
<!-- Generator: Adobe Illustrator 23.0.3, SVG Export Plug-In . SVG Version: 6.00 Build 0)  -->
<svg version="1.1" id="Layer_1" xmlns="http://www.w3.org/2000/svg" xmlns:xlink="http://www.w3.org/1999/xlink" x="0px" y="0px"
	 viewBox="0 0 30 30" style="enable-background:new 0 0 30 30;" xml:space="preserve">
<style type="text/css">
	.st0{fill:#FFFFFF;}
</style>
<circle cx="14.97" cy="14.97" r="14.97"/>
<g>
	<path class="st0" d="M10.16,9.68l1.2-1.61c0.74-0.82,1.91-1.45,3.29-1.45c2.32,0,3.85,1.45,3.85,3.39c0,0.77-0.33,1.38-0.79,1.89
		c-0.41,0.43-1.07,0.89-1.81,1.38c2.37,0.51,3.78,2.07,3.78,3.93c0,4.16-4.9,5.92-6.71,5.92c-1.2,0-2.3-0.51-2.65-0.89
		c-0.31-0.33-0.38-0.56-0.38-0.84c0.03-0.41,0.36-0.79,0.59-0.97c0.2-0.15,0.43-0.18,0.66,0.03c0.69,0.61,1.71,1.35,3.16,1.35
		c1.84,0,3.14-1.38,3.14-3.85c-0.03-2.35-1.73-3.27-3.37-3.27c-0.59,0-1.3,0.15-1.71,0.28l-0.18-0.77c2.27-0.74,4.11-1.76,4.11-3.65
		c0-1.51-0.97-2.37-2.45-2.37c-1.43,0-2.53,1.05-3.19,2.02L10.16,9.68z"/>
</g>
<g>
</g>
<g>
</g>
<g>
</g>
<g>
</g>
<g>
</g>
<g>
</g>
</svg>
