<?xml version="1.0" encoding="utf-8"?>
<!-- Generator: Adobe Illustrator 23.0.3, SVG Export Plug-In . SVG Version: 6.00 Build 0)  -->
<svg version="1.1" id="Layer_1" xmlns="http://www.w3.org/2000/svg" xmlns:xlink="http://www.w3.org/1999/xlink" x="0px" y="0px"
	 viewBox="0 0 792 612" style="enable-background:new 0 0 792 612;" xml:space="preserve">
<style type="text/css">
	.st0{stroke:#000000;stroke-width:0.936;stroke-miterlimit:10;}
	.st1{fill:none;stroke:#000000;stroke-miterlimit:10;}
	.st2{fill:#FFFFFF;stroke:#000000;stroke-miterlimit:10;}
</style>
<line class="st0" x1="8.29" y1="443.77" x2="756.68" y2="443.77"/>
<rect x="8.29" y="8.76" class="st1" width="748.39" height="595.16"/>
<path class="st1" d="M8.29,532.19"/>
<rect x="110.77" y="341.88" class="st2" width="543.42" height="169.41"/>
<g>
	<path d="M205.88,403.13c-0.17,2.94-0.34,6.21-0.34,11.17v23.6c0,9.32-1.85,15.03-5.79,18.56c-3.95,3.69-9.66,4.87-14.78,4.87
		c-4.87,0-10.24-1.18-13.52-3.36l1.85-5.63c2.69,1.68,6.89,3.19,11.92,3.19c7.56,0,13.1-3.95,13.1-14.19v-4.53h-0.17
		c-2.27,3.78-6.63,6.8-12.93,6.8c-10.08,0-17.3-8.56-17.3-19.82c0-13.77,8.98-21.58,18.31-21.58c7.05,0,10.92,3.69,12.68,7.05h0.17
		l0.34-6.13H205.88z M198.24,419.17c0-1.26-0.08-2.35-0.42-3.36c-1.34-4.28-4.95-7.81-10.33-7.81c-7.05,0-12.09,5.96-12.09,15.37
		c0,7.98,4.03,14.61,12.01,14.61c4.53,0,8.65-2.85,10.24-7.56c0.42-1.26,0.59-2.69,0.59-3.95V419.17z"/>
	<path d="M240.3,443.77l-0.59-5.12h-0.25c-2.27,3.19-6.63,6.05-12.43,6.05c-8.23,0-12.43-5.79-12.43-11.67
		c0-9.82,8.73-15.2,24.44-15.11v-0.84c0-3.36-0.92-9.4-9.24-9.4c-3.78,0-7.73,1.17-10.58,3.02l-1.68-4.87
		c3.36-2.18,8.23-3.61,13.35-3.61c12.43,0,15.45,8.48,15.45,16.63v15.2c0,3.53,0.17,6.97,0.67,9.74H240.3z M239.21,423.03
		c-8.06-0.17-17.21,1.26-17.21,9.15c0,4.79,3.19,7.05,6.97,7.05c5.29,0,8.65-3.36,9.82-6.8c0.25-0.76,0.42-1.6,0.42-2.35V423.03z"/>
	<path d="M258.27,384.16h7.39v59.62h-7.39V384.16z"/>
	<path d="M278.09,384.16h7.39v59.62h-7.39V384.16z"/>
	<path d="M302.02,424.8c0.17,9.99,6.55,14.11,13.94,14.11c5.29,0,8.48-0.92,11.25-2.1l1.26,5.29c-2.6,1.18-7.05,2.52-13.52,2.52
		c-12.51,0-19.98-8.23-19.98-20.49c0-12.26,7.22-21.92,19.06-21.92c13.27,0,16.79,11.67,16.79,19.14c0,1.51-0.17,2.69-0.25,3.44
		H302.02z M323.69,419.51c0.08-4.7-1.93-12.01-10.25-12.01c-7.47,0-10.75,6.88-11.34,12.01H323.69z"/>
	<path d="M339.97,415.81c0-4.79-0.08-8.9-0.34-12.68h6.47l0.25,7.98h0.34c1.85-5.46,6.3-8.9,11.25-8.9c0.84,0,1.43,0.08,2.1,0.25
		v6.97c-0.76-0.17-1.51-0.25-2.52-0.25c-5.21,0-8.9,3.95-9.91,9.49c-0.17,1.01-0.34,2.18-0.34,3.44v21.66h-7.3V415.81z"/>
	<path d="M372.22,403.13l8.9,24.01c0.92,2.69,1.93,5.88,2.6,8.31h0.17c0.76-2.44,1.6-5.54,2.6-8.48l8.06-23.85h7.81l-11.08,28.97
		c-5.29,13.94-8.9,21.08-13.94,25.44c-3.61,3.19-7.22,4.45-9.07,4.79l-1.85-6.21c1.85-0.59,4.28-1.76,6.47-3.61
		c2.02-1.59,4.53-4.45,6.21-8.23c0.34-0.76,0.59-1.34,0.59-1.76s-0.17-1.01-0.5-1.93l-15.03-37.45H372.22z"/>
	<path d="M425.87,436.22c2.18,1.43,6.05,2.94,9.74,2.94c5.37,0,7.89-2.69,7.89-6.05c0-3.53-2.1-5.46-7.56-7.47
		c-7.3-2.6-10.75-6.63-10.75-11.5c0-6.55,5.29-11.92,14.02-11.92c4.11,0,7.72,1.18,9.99,2.52l-1.85,5.37
		c-1.6-1.01-4.53-2.35-8.31-2.35c-4.37,0-6.8,2.52-6.8,5.54c0,3.36,2.43,4.87,7.72,6.88c7.05,2.69,10.66,6.21,10.66,12.26
		c0,7.14-5.54,12.18-15.2,12.18c-4.45,0-8.56-1.09-11.42-2.77L425.87,436.22z"/>
	<path d="M469.03,391.46v11.67h10.58v5.63h-10.58v21.92c0,5.04,1.43,7.89,5.54,7.89c1.93,0,3.36-0.25,4.28-0.5l0.34,5.54
		c-1.43,0.59-3.69,1.01-6.55,1.01c-3.44,0-6.21-1.09-7.98-3.11c-2.1-2.18-2.85-5.79-2.85-10.58v-22.17h-6.3v-5.63h6.3v-9.74
		L469.03,391.46z"/>
	<path d="M524.2,423.12c0,15.03-10.41,21.58-20.24,21.58c-11,0-19.48-8.06-19.48-20.91c0-13.6,8.9-21.58,20.15-21.58
		C516.31,402.21,524.2,410.69,524.2,423.12z M491.96,423.54c0,8.9,5.12,15.62,12.34,15.62c7.05,0,12.34-6.63,12.34-15.79
		c0-6.89-3.44-15.62-12.17-15.62C495.74,407.75,491.96,415.81,491.96,423.54z"/>
	<path d="M533.52,415.81c0-4.79-0.08-8.9-0.34-12.68h6.47l0.25,7.98h0.34c1.85-5.46,6.3-8.9,11.25-8.9c0.84,0,1.43,0.08,2.1,0.25
		v6.97c-0.76-0.17-1.51-0.25-2.52-0.25c-5.21,0-8.9,3.95-9.91,9.49c-0.17,1.01-0.33,2.18-0.33,3.44v21.66h-7.31V415.81z"/>
	<path d="M564.25,424.8c0.17,9.99,6.55,14.11,13.94,14.11c5.29,0,8.48-0.92,11.25-2.1l1.26,5.29c-2.6,1.18-7.05,2.52-13.52,2.52
		c-12.51,0-19.99-8.23-19.99-20.49c0-12.26,7.22-21.92,19.06-21.92c13.27,0,16.79,11.67,16.79,19.14c0,1.51-0.17,2.69-0.25,3.44
		H564.25z M585.92,419.51c0.08-4.7-1.93-12.01-10.24-12.01c-7.47,0-10.75,6.88-11.34,12.01H585.92z"/>
</g>
<polyline points="110.77,341.88 164.73,313.21 620.84,313.21 654.19,341.88 "/>
<g>
</g>
<g>
</g>
<g>
</g>
<g>
</g>
<g>
</g>
<g>
</g>
</svg>
