<?xml version="1.0" encoding="utf-8"?>
<!-- Generator: Adobe Illustrator 23.0.3, SVG Export Plug-In . SVG Version: 6.00 Build 0)  -->
<svg version="1.1" id="Layer_1" xmlns="http://www.w3.org/2000/svg" xmlns:xlink="http://www.w3.org/1999/xlink" x="0px" y="0px"
	 viewBox="0 0 792 612" style="enable-background:new 0 0 792 612;" xml:space="preserve">
<style type="text/css">
	.st0{fill:none;stroke:#000000;stroke-miterlimit:10;}
	.st1{stroke:#000000;stroke-miterlimit:10;}
	.st2{fill:#FFFFFF;stroke:#000000;stroke-miterlimit:10;}
	.st3{fill:#2E3192;}
	.st4{fill:#00A651;}
</style>
<rect x="8.29" y="8.76" class="st0" width="748.39" height="595.16"/>
<path class="st0" d="M8.29,532.19"/>
<g>
	<rect x="81.19" y="126.29" class="st1" width="619.9" height="375.59"/>
	<path class="st0" d="M959.99,700.26"/>
	<path class="st0" d="M-167.99,700.26"/>
	<rect x="73.89" y="118.03" class="st2" width="619.9" height="375.59"/>
	<g>
		<g>
			<path d="M219.62,245.44c22.92-25.94,46.32-52.47,75.76-71.23c3.31-2.11,6.69-4.11,10.13-6c3.69-2.02,10.27-6.81,14.42-4.13
				c6.37,4.1,2.73,19.04,1.96,24.82c-2.5,18.68-7.19,36.97-11.22,55.35c-3.81,17.35-7.12,34.96-7.45,52.77
				c-0.19,10.5-0.83,32.53,15.23,31.24c7.28-0.58,13.13-6.43,17.82-11.47c6.27-6.73,12.43-13.57,18.53-20.46
				c12.39-14.02,24.43-28.34,36.12-42.95c26-32.5,50.22-66.4,72.57-101.51c1.73-2.72-2.59-5.23-4.32-2.52
				c-20.14,31.64-41.78,62.33-64.93,91.84c-11.54,14.72-23.45,29.16-35.7,43.29c-6.03,6.95-12.14,13.83-18.33,20.64
				c-5.5,6.04-11.79,15.29-20.01,17.72c-17.66,5.24-11.55-37.22-10.48-45.67c2.38-18.83,7.13-37.27,11.21-55.78
				c1.97-8.95,3.81-17.93,5.19-26.99c1.16-7.65,2.82-15.92,1.94-23.66c-0.58-5.14-2.83-10.73-8.33-12.17
				c-6.6-1.72-14.29,3.86-19.67,6.95c-33.17,19-58.95,48.04-83.97,76.36C213.96,244.31,217.48,247.86,219.62,245.44L219.62,245.44z"
				/>
		</g>
	</g>
	<g>
		<g>
			<path d="M177.79,285.69c33.82,14.22,64.56,35.01,90.48,60.97c2.28,2.28,5.81-1.25,3.54-3.54
				c-26.56-26.61-58.04-47.68-92.68-62.25C176.15,279.63,174.86,284.46,177.79,285.69L177.79,285.69z"/>
		</g>
	</g>
	<g>
		<g>
			<path d="M143.67,213.62c-12.84-12.99-34.88-27.12-30.03-48.45c0.71-3.13-4.11-4.47-4.82-1.33c-5.4,23.74,16.9,38.73,31.31,53.32
				C142.4,219.45,145.94,215.91,143.67,213.62L143.67,213.62z"/>
		</g>
	</g>
	<g>
		<g>
			<path d="M183.33,190.32c16.05-1.43,32.02-3.47,47.92-6.1c3.17-0.52,1.82-5.34-1.33-4.82c-15.45,2.56-30.99,4.53-46.59,5.92
				C180.15,185.6,180.12,190.6,183.33,190.32L183.33,190.32z"/>
		</g>
	</g>
	<g>
		<g>
			<path d="M112.88,330.78c-1.02,33.16-0.29,73.89,31.81,93.27c10.19,6.15,30.06,11.87,37.04-1.68c8.19-15.9-1.57-35.52-10-49.04
				c-12.68-20.34-26.48-40.06-39.74-60.03c-0.5,1.22-1,2.45-1.49,3.67c24.62-5.14,50.33-2.13,73.08,8.61
				c0.42-1.55,0.84-3.11,1.26-4.66c-0.64-0.77-1.27-1.53-1.91-2.3c-0.61,0.8-1.22,1.61-1.84,2.41c26.18-9.52,53.1-16.91,80.5-21.94
				c28.21-5.18,56.46-6.68,85-8.73c13.57-0.98,27.11-2.54,40.35-5.75c13.4-3.25,26.41-7.87,39.39-12.46
				c25.5-9.01,50.93-18.24,75.88-28.7c27.91-11.7,55.17-24.95,80.9-40.94c1.97-1.22,1.34-4.88-1.26-4.66
				c-18,1.51-34.38,8.89-50.26,17.06c-18.23,9.38-36.36,18.96-54.53,28.47c-36.46,19.08-72.87,38.25-109.14,57.7
				c-20.6,11.05-41.15,22.18-61.63,33.44c-2.83,1.55-0.32,5.8,2.52,4.32c48.19-25.06,90.2-60.91,122.69-104.42
				c1.53-2.05-1.41-4.68-3.42-3.42c-28.9,18.1-54.77,40.64-76.59,66.85c-1.74,2.1,0.43,5.41,3.03,3.93
				c32.8-18.76,61.41-43.93,84.33-73.95c1.09-1.43-0.19-3.14-1.49-3.67c-11.11-4.53-22.24,5.77-30.69,11.65
				c-11.25,7.84-22.39,15.83-33.41,23.98c-21.96,16.24-43.47,33.1-64.51,50.51c-1.78,1.48-0.21,4.17,1.77,4.27
				c7.33,0.35,13.87-2.08,19.32-6.96c1.55-1.38,0.38-4.45-1.77-4.27c-27.49,2.38-53.72,10.86-79.77,19.51
				c-27.65,9.18-55.3,18.37-82.95,27.56c-2.73,0.91-2.15,4.69,0.66,4.91c58,4.52,115.61,13.13,172.39,25.75
				c0.22-1.64,0.44-3.27,0.66-4.91c-6.65-0.04-13.3-0.08-19.95-0.12c0,1.67,0,3.33,0,5c58.77-3.31,117.59-5.53,176.44-6.65
				c3.22-0.06,3.22-4.95,0-5c-50.07-0.74-101.3,8.65-144.13,35.73c-1.94,1.23-1.35,4.89,1.26,4.66
				c46.9-4.08,93.81-8.17,140.71-12.25c3.2-0.28,3.23-4.75,0-5c-11.72-0.9-23.28,0.79-34.25,5.02c-2.97,1.15-1.68,5.98,1.33,4.82
				c10.59-4.09,21.6-5.71,32.93-4.84c0-1.67,0-3.33,0-5c-46.9,4.08-93.81,8.17-140.71,12.25c0.42,1.55,0.84,3.11,1.26,4.66
				c42.12-26.64,92.36-35.77,141.6-35.05c0-1.67,0-3.33,0-5c-58.85,1.12-117.67,3.34-176.44,6.65c-3.19,0.18-3.24,4.98,0,5
				c6.65,0.04,13.3,0.08,19.95,0.12c2.76,0.02,3.47-4.29,0.66-4.91c-57.22-12.72-115.29-21.38-173.72-25.93
				c0.22,1.64,0.44,3.27,0.66,4.91c27.02-8.98,54.04-17.95,81.06-26.93c26.21-8.71,52.64-17.57,80.32-19.96
				c-0.59-1.42-1.18-2.85-1.77-4.27c-4.47,3.99-9.83,5.78-15.78,5.49c0.59,1.42,1.18,2.85,1.77,4.27
				c19.73-16.33,39.86-32.17,60.42-47.45c9.98-7.42,20.05-14.71,30.22-21.87c5.21-3.67,10.42-7.36,15.71-10.92
				c5.18-3.48,11.05-7.21,17.39-4.63c-0.5-1.22-1-2.45-1.49-3.67c-22.38,29.32-50.53,53.85-82.54,72.16
				c1.01,1.31,2.02,2.62,3.03,3.93c21.56-25.89,47.02-48.19,75.58-66.07c-1.14-1.14-2.28-2.28-3.42-3.42
				c-31.97,42.82-73.5,77.98-120.9,102.63c0.84,1.44,1.68,2.88,2.52,4.32c70.4-38.68,141.58-75.92,212.79-113.09
				c19.03-9.93,38.43-21.06,60.25-22.89c-0.42-1.55-0.84-3.11-1.26-4.66c-46.35,28.8-97.42,48.46-148.64,66.68
				c-12.93,4.6-25.84,9.33-39.07,13.02c-13.91,3.88-28.08,6.04-42.46,7.19c-27.09,2.16-54.04,3.18-80.91,7.59
				c-30.58,5.02-60.62,12.96-89.74,23.55c-1,0.36-1.89,1.26-1.84,2.41c0.2,4.24,2.8,6.75,6.91,7.3c2.45,0.33,3.42-3.64,1.26-4.66
				c-24.03-11.35-50.91-14.55-76.93-9.11c-1.53,0.32-2.35,2.38-1.49,3.67c9.95,14.98,19.9,29.97,29.85,44.95
				c9.07,13.66,20.79,28.55,21.93,45.55c0.58,8.73-1.68,18.68-11.95,19.21c-6.81,0.35-13.87-2.06-19.68-5.45
				c-12.17-7.1-20.78-19.46-25.14-32.68c-6.01-18.22-5.39-37.71-4.81-56.63C117.98,327.56,112.98,327.56,112.88,330.78
				L112.88,330.78z"/>
		</g>
	</g>
	<g>
		<g>
			<path class="st3" d="M139.53,187.25c-10.2,0.03-20.41,0.06-30.61,0.09c-2.42,0.01-3.48,3.46-1.26,4.66
				c13.5,7.27,27.8,12.73,42.71,16.28c2.37,0.56,4.28-2.38,2.43-4.18c-12.12-11.82-31.16-14.14-45.75-5.54
				c-1.68,0.99-1.63,4.25,0.6,4.57c15.26,2.18,30.36-2.49,41.55-13.14c1.13-1.07,0.91-3.19-0.51-3.93
				c-16.22-8.44-37.41,3.34-39.03,21.47c-0.2,2.21,2.84,3.23,4.27,1.77c9.13-9.36,16.84-19.88,22.99-31.43
				c0.88-1.66-0.21-3.75-2.16-3.76c-12.96-0.06-24.33,8.05-28.76,20.17c-0.8,2.18,1.89,3.75,3.67,2.82
				c14.34-7.47,28.68-14.95,43.02-22.42c-1.01-1.31-2.02-2.62-3.03-3.93c-7.7,9.31-14.09,19.46-19.03,30.5
				c-0.91,2.02,1.15,5.02,3.42,3.42c22.34-15.69,46.47-28.63,71.95-38.46c-0.81-1.39-1.62-2.79-2.43-4.18
				c-16.41,16.49-32.2,33.56-47.37,51.2c-1.93,2.25,0.45,5.02,3.03,3.93c12.86-5.45,23.41-14.89,30.39-26.98
				c1.3-2.26-1.25-4.51-3.42-3.42c-26.08,13.11-51.71,27.08-76.86,41.9c1.14,1.14,2.28,2.28,3.42,3.42
				c5.89-11.33,11.79-22.66,17.68-33.99c0.61-1.17,0.33-2.74-0.9-3.42c-4.94-2.71-10.78-0.33-12.44,5.04
				c-0.6,1.93,1.89,4.17,3.67,2.82c18.59-14.06,38.32-26.46,59.05-37.11c-1.01-1.31-2.02-2.62-3.03-3.93
				c-7.8,8.66-14.32,18.25-19.42,28.74c-1.02,2.1,1.16,4.86,3.42,3.42c13.19-8.42,25.81-17.65,37.86-27.64
				c2.16-1.79-0.75-5.63-3.03-3.93c-25.72,19.17-51.45,38.33-77.17,57.5c-2.52,1.88-0.19,6.15,2.52,4.32
				c45.4-30.75,92.69-58.62,141.59-83.44c-0.84-1.44-1.68-2.88-2.52-4.32c-37.75,26.95-73.87,56.1-108.17,87.33
				c-2.08,1.89,0.65,5.5,3.03,3.93c21.92-14.48,43.83-28.97,65.75-43.45c-1.01-1.31-2.02-2.62-3.03-3.93
				c-22.19,19.3-43.22,39.86-63.02,61.61c-1.85,2.03,0.52,5.47,3.03,3.93c42.87-26.26,85.3-53.22,127.27-80.87
				c-0.84-1.44-1.68-2.88-2.52-4.32c-23.79,18.04-46.45,37.49-67.84,58.32c-2.06,2,0.57,5.31,3.03,3.93
				c28.32-15.86,55.59-33.48,81.67-52.79c2.52-1.87,0.29-6.03-2.52-4.32c-38.35,23.4-78.24,44.17-119.4,62.17
				c1.14,1.14,2.28,2.28,3.42,3.42c18.82-27.47,55.29-38.57,69.33-69.91c0.67-1.5-0.07-4.01-2.16-3.76
				c-30.76,3.67-60.37,13.3-87.33,28.57c-2.42,1.37-0.81,5.47,1.93,4.57c32.03-10.57,65.48-15.83,99.21-15.57
				c-0.42-1.55-0.84-3.11-1.26-4.66c-18.7,14.15-37.39,28.3-56.09,42.45c-2.5,1.89-0.17,6.18,2.52,4.32
				c33.69-23.34,68.79-44.56,105.11-63.55c-0.84-1.44-1.68-2.88-2.52-4.32c-20.95,11.39-40.17,25.64-57.18,42.35
				c-1.67,1.64,0.03,5.14,2.43,4.18c43.55-17.35,87.11-34.7,130.66-52.04c-0.64-1.52-1.28-3.05-1.93-4.57
				c-57.58,25.96-112.67,57.33-164.29,93.74c-14.25,10.05-28.22,20.49-41.93,31.26c-1.93,1.51,0.17,5.09,2.43,4.18
				c42.76-17.18,84.51-36.76,125.04-58.69c2.87-1.55,0.35-5.65-2.52-4.32c-29.52,13.74-58.4,28.81-86.56,45.15
				c-2.83,1.64-0.35,5.66,2.52,4.32c65.69-30.74,131.38-61.48,197.07-92.22c2.53-1.19,0.71-5.63-1.93-4.57
				c-56.16,22.61-109.42,51.94-158.48,87.41c-2.63,1.9-0.42,5.62,2.52,4.32c47.95-21.17,95.9-42.34,143.85-63.51
				c2.95-1.3,0.39-5.57-2.52-4.32c-27.45,11.76-52.94,27.43-75.91,46.51c-1.88,1.56,0.13,5.06,2.43,4.18
				c46.98-18.05,93.57-37.12,139.72-57.2c2.19-0.95,1.17-3.9-0.6-4.57c-5.96-2.26-11.88-0.72-17.54,1.72
				c-7.11,3.07-14.02,6.72-20.9,10.27c-14,7.22-27.74,14.92-41.21,23.08c-26.6,16.13-52.05,34.1-76.26,53.64
				c-1.92,1.55,0.15,5.02,2.43,4.18c44.95-16.59,88.6-36.54,130.56-59.69c2.42-1.33,0.76-5.62-1.93-4.57
				c-55.5,21.71-109.79,46.41-162.6,74.02c-2.46,1.29-0.73,5.64,1.93,4.57c61.39-24.67,121.63-52.19,180.41-82.56
				c16.9-8.73,33.68-17.7,50.34-26.89c2.42-1.34,0.78-5.56-1.93-4.57c-44.19,16.19-83.17,42.83-121.63,69.4
				c-2.67,1.84-0.39,5.67,2.52,4.32c49.98-23.19,99.95-46.37,149.93-69.56c-0.84-1.44-1.68-2.88-2.52-4.32
				c-68.82,32.36-135.05,70.09-197.98,112.79c-2.71,1.84-0.39,5.58,2.52,4.32c56.3-24.48,112.59-48.97,168.89-73.45
				c-0.84-1.44-1.68-2.88-2.52-4.32c-12.66,8.4-24.47,17.93-35.32,28.57c-2,1.96,0.6,5.48,3.03,3.93
				c24.79-15.85,49.58-31.7,74.37-47.55c2.71-1.73,0.33-5.82-2.52-4.32c-26.43,13.9-51.12,30.81-73.68,50.37
				c-1.95,1.69,0.14,4.79,2.43,4.18c18.56-4.97,35.59-13.89,50.33-26.21c2.26-1.89-0.62-5.19-3.03-3.93
				c-16.75,8.82-32.32,19.57-46.54,32.06c-2.14,1.88,0.63,5.4,3.03,3.93c19.97-12.27,39.16-25.71,57.57-40.21
				c2.21-1.74-0.73-5.59-3.03-3.93c-20.45,14.75-39.08,31.74-55.58,50.81c-1.78,2.06,0.47,5.47,3.03,3.93
				c33.5-20.17,64.77-43.87,93.27-70.66c2.02-1.9-0.71-5.64-3.03-3.93c-25.19,18.57-48.61,39.36-69.96,62.24
				c-2.02,2.17,0.5,5.08,3.03,3.93c35.63-16.24,70.53-34.03,104.61-53.32c-1.01-1.31-2.02-2.62-3.03-3.93
				c-25.43,23.16-51.11,46.04-77.04,68.64c1.18,1.18,2.36,2.36,3.54,3.54c21.88-22.2,47.03-40.79,74.65-55.23
				c-1.22-0.5-2.45-1-3.67-1.49c1.55,4.67-3.81,8.89-6.61,11.93c-2.91,3.16-5.81,6.31-8.72,9.47c-5.59,6.07-11.17,12.14-16.76,18.21
				c-11.4,12.38-22.8,24.77-34.19,37.15c-2.18,2.36,1.2,5.77,3.54,3.54c21.03-20.13,43.74-38.37,67.94-54.55
				c-1.01-1.31-2.02-2.62-3.03-3.93c-13.27,11.67-25.81,24.12-37.59,37.3c-1.77,1.98,0.62,5.71,3.03,3.93
				c17.83-13.23,36.71-24.91,56.51-34.96c-1.01-1.31-2.02-2.62-3.03-3.93c-5.95,6.78-11.9,13.56-17.85,20.35
				c-1.84,2.1,0.46,5.34,3.03,3.93c9.52-5.26,19.04-10.51,28.57-15.77c-1.14-1.14-2.28-2.28-3.42-3.42
				c-4.46,9.36-9.99,18.04-16.69,25.96c-2.05,2.43,1.32,5.92,3.54,3.54c13.1-14.11,24.79-29.43,34.92-45.8
				c1.33-2.14-1.3-4.68-3.42-3.42c-5.76,3.41-11.52,6.81-17.29,10.22c1.14,1.14,2.28,2.28,3.42,3.42
				c9.16-14.36,17.06-29.43,23.69-45.12c0.57-1.34,0.27-3.35-1.49-3.67c-6.89-1.27-13.23,0.43-18.53,5.01
				c1.31,1.01,2.62,2.02,3.93,3.03c8.74-11.32,17.47-22.65,26.21-33.97c1.59-2.06-1.42-4.61-3.42-3.42
				c-10.06,5.98-18.52,13.85-25.29,23.39c1.44,0.84,2.88,1.68,4.32,2.52c8.98-13.97,17.96-27.95,26.94-41.92
				c1.11-1.73-0.77-4.47-2.82-3.67c-26.69,10.33-52.22,23.31-76.24,38.87c1.14,1.14,2.28,2.28,3.42,3.42
				c2.46-4.8,4.92-9.6,7.38-14.39c0.91-1.77-0.63-4.49-2.82-3.67c-11.55,4.29-22.08,10.35-31.61,18.16
				c1.31,0.17,2.62,0.34,3.93,0.51c-1.32-2.34-1.73-4.4-1.23-7.06c0.38-1.98-1.13-3.4-3.08-3.08c-13.03,2.15-25.52,6.15-37.43,11.86
				c1.25,0.72,2.51,1.44,3.76,2.16c0.22-2.7,0.44-5.39,0.66-8.09c0.09-1.15-0.86-2.05-1.84-2.41c-7.91-2.89-15.97-1.31-23.85,0.93
				c-9.3,2.65-18.55,5.36-27.98,7.54c-9.17,2.12-18.41,3.9-27.7,5.35c-4.83,0.75-9.74,1.67-14.63,1.92
				c-2.59,0.13-6.1,0.25-8.05-1.85c-1.49-1.6-1.93-4.5,0.31-5.67c2.27-1.18,1.12-4.62-1.26-4.66c-13.26-0.24-25.16,5.21-37.16,10.18
				c-12.76,5.29-25.85,9.75-39.19,13.32c-13.42,3.59-27.08,6.31-40.86,8.06c-3.91,0.5-37.87,5.47-35.57-2.56
				c0.54-1.88-1.26-3.52-3.08-3.08c-28.69,7-56.05,20.15-83.35,31.17c-28.1,11.34-56.19,22.67-84.29,34.01
				c0.81,1.39,1.62,2.79,2.43,4.18c15.83-13.88,31.67-27.76,47.5-41.65c-1.18-1.18-2.36-2.36-3.54-3.54
				c-23.03,21.19-43.92,44.51-62.54,69.66c-1.54,2.08,1.4,4.64,3.42,3.42c14.85-8.96,29.7-17.92,44.55-26.88
				c-1.01-1.31-2.02-2.62-3.03-3.93c-11.26,11.9-19.98,25.66-26.02,40.88c-0.81,2.05,1.94,3.93,3.67,2.82
				c42.67-27.34,85.97-54.95,134.68-70.25c-0.94-1.22-1.88-2.45-2.82-3.67c-16.73,33.47-51.86,51.92-73.14,81.95
				c-1.77,2.5,1.89,4.67,3.93,3.03c49.36-39.83,101.7-75.86,156.5-107.81c-1.01-1.31-2.02-2.62-3.03-3.93
				c-32.41,26.32-63.27,54.5-92.43,84.38c-1.9,1.95,0.67,5.67,3.03,3.93c25.85-19.07,52.24-37.38,79.16-54.91
				c-0.84-1.44-1.68-2.88-2.52-4.32c-15.74,10.68-30.14,23.1-42.95,37.15c-1.83,2,0.56,5.57,3.03,3.93
				c16.5-10.99,33.01-21.97,49.51-32.96c-1.01-1.31-2.02-2.62-3.03-3.93c-19.29,20.96-37.3,43.05-53.98,66.15
				c-1.6,2.21,1.4,4.4,3.42,3.42c19.61-9.48,39.21-18.96,58.82-28.45c-1.01-1.31-2.02-2.62-3.03-3.93
				c-10.82,9.1-21.64,18.19-32.46,27.29c-1.92,1.61,0.13,4.93,2.43,4.18c5.85-1.9,11.22-4.56,16.25-8.13c1.62-1.15,1.58-3.16,0-4.32
				c-5.25-3.85-11.53-1.23-17.3-0.43c-1.61,0.22-3.76,0.56-5.16-0.45c-2.48-1.78-1.95-5.45-1.68-8.14
				c0.53-5.35,1.81-10.62,3.24-15.8c5.05-18.28,13.25-36.96,7.54-56.09c-0.37-1.23-1.78-2.21-3.08-1.75
				c-30.72,10.86-59.91,25.59-86.85,43.93c1.14,1.14,2.28,2.28,3.42,3.42c12.85-17.03,26.98-33.02,42.25-47.91
				c1.79-1.75-0.04-4.84-2.43-4.18c-50.29,14.01-94.46,42.58-137.73,70.87c0.84,1.44,1.68,2.88,2.52,4.32
				c49.1-35.43,99.22-69.41,150.29-101.91c-0.84-1.44-1.68-2.88-2.52-4.32c-21.53,14.11-42.31,29.34-62.22,45.67
				c-9.9,8.12-19.61,16.49-29.03,25.17c-8.32,7.67-16.22,15.94-20.78,26.46c-0.89,2.05,1.11,4.97,3.42,3.42
				c5.36-3.58,8.89-8.52,10.31-14.83c0.34-1.52-0.72-3.23-2.41-3.16c-10.89,0.44-21.51,2.41-31.82,5.98
				c1.03,1.03,2.05,2.05,3.08,3.08c3.86-27.94,29.55-45.26,44.46-67.25c2.64-3.89,7.67-10.17,3.53-14.77
				c-3.11-3.45-8.79-2.43-12.66-1.19c-8.49,2.7-16.84,5.6-25.53,7.68c-2.2,0.53-10.99,3.8-12.88,2.05
				c-2.3-2.14,4.1-13.15,5.21-15.75c0.65-1.51,0.19-3.14-1.49-3.67c-7.25-2.32-14.64-3.29-22.24-2.93c0.8,1.05,1.61,2.11,2.41,3.16
				c1.77-6.65,3.54-13.31,5.31-19.96c0.27-1.03-0.17-2.31-1.15-2.82c-3.95-2.06-7.7-2.09-11.75-0.29c1.01,1.31,2.02,2.62,3.03,3.93
				c3.78-4.5,2.54-10.65-1.79-14.41c-6.28-5.45-15.12-2.05-21.75,0.81c1.22,0.94,2.45,1.88,3.67,2.82c1.26-3.22,3.55-5.25,6.63-6.61
				c2.56-1.13,0.71-5.63-1.93-4.57c-5.99,2.42-10.07,6.59-12.25,12.68c-0.49,1.37,0.57,2.61,1.75,3.08
				c6.5,2.55,13.26,2.56,19.77,0.06c-1.03-1.03-2.05-2.05-3.08-3.08c-2.13,9.06-4.7,17.98-7.71,26.78c-0.57,1.67,1.32,3.8,3.08,3.08
				c6.27-2.59,17.38-7.06,21.96,0.81c2.51,4.31-0.94,9.42-2.93,13.14c-1.82,3.38-3.53,6.82-5.09,10.33
				c-6.13,13.73-10.27,28.17-12.38,43.05c-0.26,1.83,1.71,4.32,3.67,2.82c14.68-11.22,31.04-19.7,48.7-25.15
				c-0.81-1.39-1.62-2.79-2.43-4.18c-15.84,18.45-31.69,36.91-47.53,55.36c-2.08,2.42,1.19,5.8,3.54,3.54
				c17.89-17.23,35.89-34.64,50.07-55.16c4.58-6.63,11.66-17.58,5.16-25.31c-4.17-4.96-12.95-6.29-16.42,0.08
				c1.55,0.42,3.11,0.84,4.66,1.26c0.39-10.08,0.18-20.14-0.62-30.19c-0.13-1.61-1.49-2.85-3.16-2.41
				c-6.88,1.82-12.39,5.95-16.12,12.01c-1.48,2.4,1.97,5.12,3.93,3.03c8.71-9.33,17.73-18.35,27.11-27.01
				c4.57-4.22,9.22-8.36,13.95-12.41c2.36-2.03,4.74-4.03,7.14-6.01c1.17-0.97,2.32-2.14,3.61-2.96c0.48-0.39,0.97-0.78,1.45-1.17
				c1.54-0.67,2.05,0.02,1.5,2.07c-1.54,1.62-0.38,4.15,1.77,4.27c21.51,1.19,42.52-3.78,63.26-8.87c-0.94-1.22-1.88-2.45-2.82-3.67
				c-7.43,12.47-14.87,24.93-22.3,37.4c-0.89,1.5,0.02,3.1,1.49,3.67c7.1,2.75,14.42,1.57,21.56-0.43
				c8.65-2.42,17.2-5.25,25.78-7.88c8.73-2.68,17.45-5.36,26.18-8.04c4.36-1.34,8.72-2.7,13.09-4.02c3-0.9,8.6-3.13,10.48,0.57
				c0.13-1.01,0.26-2.02,0.39-3.03c-35.21,34.18-66.12,72.61-92,114.3c-1.03,1.66,0.32,3.71,2.16,3.76
				c34.2,0.99,66.77-14.41,98.12-26.17c33.73-12.65,67.46-25.31,101.2-37.96c9.28-3.48,18.57-6.97,27.85-10.45
				c8.88-3.33,19.11-8.72,28.62-5.05c-0.37-1.39-0.74-2.79-1.1-4.18c-15.23,16.81-30.46,33.62-45.69,50.44
				c-1.61,1.78-0.07,4.91,2.43,4.18c15.52-4.55,31.22-8.46,47.07-11.65c4.55-0.91,14.34-3.86,18.44,0.12
				c2.15,2.08,0.56,2.71-1.31,4.28c-1.49,1.25-2.97,2.5-4.46,3.75c-3.22,2.71-6.43,5.43-9.63,8.15c-6.16,5.24-12.3,10.51-18.41,15.8
				c-4.94,4.27-11.62,8.54-15.25,14.06c-2.69,4.1-2.22,8.73-0.69,13.16c1.35,3.92,6.01,10.78,2.38,14.41
				c-1.98,1.98,0.58,5.46,3.03,3.93c27.85-17.48,57.41-31.99,88.31-43.25c-1.05-0.8-2.11-1.61-3.16-2.41
				c-0.47,5.81-3.51,10.67-8.44,13.74c1.01,1.31,2.02,2.62,3.03,3.93c9.89-8.54,21.18-15.06,33.52-19.36
				c-0.94-1.22-1.88-2.45-2.82-3.67c-6.97,9.83-14.75,18.99-23.28,27.5c-1.28,1.28-0.76,3.76,1.1,4.18c5.64,1.27,9.8-2.03,15.2-2.46
				c10.11-0.8,3.38,13.3,2.46,17.91c-0.9,4.55-0.21,9.07,3.72,11.96c3.27,2.4,7.19,2.6,10.2-0.24c2.35-2.21-1.19-5.74-3.54-3.54
				c-3.94,3.71-5.96-4.55-5.56-6.86c0.52-3.01,1.93-5.8,2.64-8.76c0.85-3.54,1.03-7.74-0.86-11.01c-5.6-9.7-15.33-0.12-22.93-1.83
				c0.37,1.39,0.74,2.79,1.1,4.18c8.84-8.81,16.85-18.34,24.06-28.51c1.24-1.75-0.83-4.37-2.82-3.67
				c-13.18,4.6-25.16,11.53-35.73,20.65c-2.16,1.86,0.64,5.42,3.03,3.93c6.52-4.06,10.3-10.42,10.92-18.06
				c0.12-1.54-1.71-2.94-3.16-2.41c-31.29,11.4-61.29,26.04-89.5,43.75c1.01,1.31,2.02,2.62,3.03,3.93
				c3.62-3.62,3.16-8.12,1.54-12.6c-2.49-6.89-6.35-12.56-0.01-18.55c13.93-13.16,29.11-25.24,43.78-37.56
				c2.33-1.96,5.38-3.29,5.08-6.6c-0.21-2.24-1.52-4.16-3.23-5.54c-4.16-3.36-10.41-3.41-15.42-2.7
				c-18.44,2.62-36.92,7.87-54.76,13.11c0.81,1.39,1.62,2.79,2.43,4.18c15.23-16.81,30.46-33.62,45.69-50.44
				c1.34-1.48,0.67-3.49-1.1-4.18c-6.87-2.66-13.94-1.22-20.69,1.11c-8.24,2.84-16.36,6.1-24.52,9.16
				c-17.33,6.5-34.66,13-51.99,19.5c-33.78,12.67-67.44,25.81-101.41,37.96c-18.86,6.74-38.29,12.31-58.51,11.72
				c0.72,1.25,1.44,2.51,2.16,3.76c25.66-41.35,56.3-79.39,91.22-113.29c0.83-0.81,0.89-2.04,0.39-3.03
				c-2.76-5.41-9.24-4.81-14.26-3.44c-9.42,2.56-18.72,5.75-28.05,8.61c-9.35,2.87-18.7,5.74-28.05,8.61
				c-9.45,2.9-19.93,7.51-29.73,3.72c0.5,1.22,1,2.45,1.49,3.67c7.43-12.47,14.87-24.93,22.3-37.4c1.14-1.92-0.74-4.18-2.82-3.67
				c-20.33,5-40.84,9.86-61.93,8.7c0.59,1.42,1.18,2.85,1.77,4.27c3.12-3.27,2.01-8.92-2.28-10.71c-2.58-1.08-4.29-0.04-6.3,1.57
				c-3.64,2.92-7.23,5.9-10.79,8.93c-14.93,12.71-29.09,26.3-42.47,40.63c1.31,1.01,2.62,2.02,3.93,3.03
				c3.06-4.97,7.49-8.22,13.13-9.71c-1.05-0.8-2.11-1.61-3.16-2.41c0.8,10.06,1.01,20.11,0.62,30.19c-0.1,2.47,3.49,3.41,4.66,1.26
				c1.97-3.61,7.05-1.47,8.71,1.34c2.69,4.56-0.72,10.54-3.16,14.46c-4.61,7.41-10.09,14.34-15.74,20.99
				c-11.31,13.31-23.91,25.45-36.48,37.55c1.18,1.18,2.36,2.36,3.54,3.54c15.84-18.45,31.69-36.91,47.53-55.36
				c1.53-1.78,0.12-4.97-2.43-4.18c-18.04,5.57-34.89,14.19-49.9,25.66c1.22,0.94,2.45,1.88,3.67,2.82
				c1.42-9.96,3.68-19.75,6.94-29.27c3.39-9.9,8.54-18.7,12.74-28.19c2.78-6.28,2.17-13.12-3.92-17.13
				c-7.38-4.85-16.02-1.97-23.47,1.11c1.03,1.03,2.05,2.05,3.08,3.08c3.01-8.8,5.58-17.73,7.71-26.78c0.4-1.69-1.19-3.8-3.08-3.08
				c-5.75,2.21-11.4,2.18-17.11-0.06c0.58,1.03,1.16,2.05,1.75,3.08c1.53-4.29,4.52-7.48,8.75-9.19c-0.64-1.52-1.28-3.05-1.93-4.57
				c-4.4,1.94-7.19,5.18-8.93,9.6c-0.9,2.29,1.93,3.57,3.67,2.82c3.98-1.71,9.33-4.19,13.73-2.62c2.96,1.06,6.32,5.31,3.75,8.37
				c-1.88,2.23,0.42,5.08,3.03,3.93c2.37-1.05,4.47-0.87,6.7,0.29c-0.38-0.94-0.77-1.88-1.15-2.82c-1.77,6.65-3.54,13.31-5.31,19.96
				c-0.4,1.51,0.76,3.24,2.41,3.16c7.18-0.34,14.06,0.57,20.91,2.76c-0.5-1.22-1-2.45-1.49-3.67c-1.87,4.37-3.94,8.7-5.63,13.13
				c-0.99,2.58-1.75,5.26,0.03,7.72c3.32,4.56,10.85,2.02,15.2,1.06c8.68-1.92,17.25-4.35,25.65-7.26c2.28-0.79,7.49-3.51,10.05-2.1
				c3.35,1.85-3.45,10.17-4.6,11.77c-15.25,21.25-39.53,38.55-43.34,66.11c-0.24,1.71,1.06,3.77,3.08,3.08
				c9.89-3.42,20.03-5.38,30.49-5.8c-0.8-1.05-1.61-2.11-2.41-3.16c-1.13,5.01-3.73,8.98-8.02,11.84c1.14,1.14,2.28,2.28,3.42,3.42
				c4.51-10.41,12.34-18.43,20.59-26c9.23-8.48,18.74-16.67,28.43-24.62c19.57-16.06,40.03-31.01,61.2-44.89
				c2.68-1.75,0.21-6.06-2.52-4.32c-51.08,32.5-101.2,66.49-150.29,101.91c-2.56,1.85-0.21,6.11,2.52,4.32
				c42.9-28.05,86.66-56.47,136.53-70.37c-0.81-1.39-1.62-2.79-2.43-4.18c-15.58,15.2-29.93,31.55-43.04,48.93
				c-1.51,2,1.43,4.78,3.42,3.42c26.59-18.09,55.34-32.7,85.66-43.42c-1.03-0.58-2.05-1.16-3.08-1.75
				c6.58,22.07-6.56,43.55-10.19,64.94c-1.08,6.34-2.86,16.44,5.19,18.95c6.61,2.06,14.81-4.28,20.66,0.01c0-1.44,0-2.88,0-4.32
				c-4.67,3.32-9.6,5.85-15.05,7.62c0.81,1.39,1.62,2.79,2.43,4.18c10.82-9.1,21.64-18.19,32.46-27.29c2.3-1.93-0.63-5.09-3.03-3.93
				c-19.61,9.48-39.21,18.96-58.82,28.45c1.14,1.14,2.28,2.28,3.42,3.42c16.43-22.75,34.19-44.49,53.2-65.13
				c1.84-2-0.56-5.57-3.03-3.93c-16.5,10.99-33.01,21.97-49.51,32.96c1.01,1.31,2.02,2.62,3.03,3.93
				c12.54-13.74,26.55-25.93,41.94-36.37c2.64-1.79,0.19-6.09-2.52-4.32c-26.92,17.53-53.32,35.84-79.16,54.91
				c1.01,1.31,2.02,2.62,3.03,3.93c29.16-29.88,60.02-58.06,92.43-84.38c2.24-1.82-0.63-5.32-3.03-3.93
				c-55.17,32.16-107.82,68.49-157.51,108.59c1.31,1.01,2.62,2.02,3.93,3.03c21.31-30.07,56.35-48.36,73.14-81.95
				c0.92-1.84-0.62-4.37-2.82-3.67c-49.13,15.43-92.83,43.17-135.87,70.75c1.22,0.94,2.45,1.88,3.67,2.82
				c5.71-14.39,14.1-27.44,24.74-38.68c1.91-2.02-0.54-5.43-3.03-3.93c-14.85,8.96-29.7,17.92-44.55,26.88
				c1.14,1.14,2.28,2.28,3.42,3.42c18.36-24.8,39.06-47.76,61.76-68.65c2.38-2.19-1.13-5.64-3.54-3.54
				c-15.83,13.88-31.67,27.76-47.5,41.65c-1.81,1.58,0.11,5.12,2.43,4.18c28.1-11.34,56.19-22.67,84.29-34.01
				c27.31-11.02,54.66-24.17,83.35-31.17c-1.03-1.03-2.05-2.05-3.08-3.08c-3.33,11.64,14.56,11.16,21.16,10.73
				c15.22-0.98,30.39-3.07,45.31-6.22c15.31-3.24,30.38-7.62,45.03-13.12c14.9-5.59,29.76-14.36,46.1-14.07
				c-0.42-1.55-0.84-3.11-1.26-4.66c-5.69,2.96-4.86,11.18-0.02,14.6c3.65,2.59,8.45,2.47,12.68,2.01
				c5.78-0.62,11.55-1.52,17.28-2.47c12.06-2,24.03-4.57,35.86-7.69c11.62-3.07,25.31-9.91,37.29-5.53
				c-0.61-0.8-1.22-1.61-1.84-2.41c-0.22,2.7-0.44,5.39-0.66,8.09c-0.17,2.05,2.21,2.9,3.76,2.16c11.52-5.52,23.64-9.27,36.24-11.35
				c-1.03-1.03-2.05-2.05-3.08-3.08c-0.75,3.96-0.25,7.39,1.73,10.91c0.85,1.51,2.72,1.5,3.93,0.51c8.82-7.24,18.7-12.91,29.4-16.88
				c-0.94-1.22-1.88-2.45-2.82-3.67c-2.46,4.8-4.92,9.6-7.38,14.39c-1.07,2.1,1.2,4.86,3.42,3.42
				c23.65-15.32,48.77-28.19,75.04-38.36c-0.94-1.22-1.88-2.45-2.82-3.67c-8.98,13.97-17.96,27.95-26.94,41.92
				c-1.76,2.74,2.48,5.11,4.32,2.52c6.26-8.84,14.18-16.07,23.49-21.6c-1.14-1.14-2.28-2.28-3.42-3.42
				c-8.74,11.32-17.47,22.65-26.21,33.97c-1.83,2.37,1.92,4.76,3.93,3.03c3.87-3.34,8.64-4.65,13.67-3.73
				c-0.5-1.22-1-2.45-1.49-3.67c-6.62,15.69-14.53,30.76-23.69,45.12c-1.36,2.14,1.32,4.66,3.42,3.42
				c5.76-3.41,11.52-6.81,17.29-10.22c-1.14-1.14-2.28-2.28-3.42-3.42c-9.92,16.02-21.32,30.98-34.14,44.79
				c1.18,1.18,2.36,2.36,3.54,3.54c6.97-8.25,12.82-17.22,17.47-26.97c1.05-2.2-1.12-4.69-3.42-3.42
				c-9.52,5.26-19.04,10.51-28.57,15.77c1.01,1.31,2.02,2.62,3.03,3.93c5.95-6.78,11.9-13.56,17.85-20.35
				c1.88-2.14-0.45-5.23-3.03-3.93c-19.8,10.04-38.68,21.72-56.51,34.96c1.01,1.31,2.02,2.62,3.03,3.93
				c11.78-13.18,24.32-25.62,37.59-37.3c2.11-1.86-0.66-5.51-3.03-3.93c-24.55,16.41-47.62,34.91-68.96,55.33
				c1.18,1.18,2.36,2.36,3.54,3.54c13.19-14.33,26.37-28.65,39.56-42.98c6.48-7.04,12.96-14.08,19.44-21.12
				c4.37-4.74,10.94-10.35,8.57-17.53c-0.52-1.58-2.19-2.27-3.67-1.49c-27.98,14.62-53.5,33.53-75.67,56.02
				c-2.28,2.32,1.13,5.63,3.54,3.54c25.93-22.6,51.61-45.48,77.04-68.64c2.13-1.94-0.6-5.3-3.03-3.93
				c-34.08,19.29-68.98,37.08-104.61,53.32c1.01,1.31,2.02,2.62,3.03,3.93c21.06-22.56,44.11-43.15,68.95-61.46
				c-1.01-1.31-2.02-2.62-3.03-3.93c-28.19,26.51-59.1,49.92-92.25,69.88c1.01,1.31,2.02,2.62,3.03,3.93
				c16.21-18.74,34.47-35.53,54.57-50.03c-1.01-1.31-2.02-2.62-3.03-3.93c-18.07,14.24-36.96,27.39-56.56,39.43
				c1.01,1.31,2.02,2.62,3.03,3.93c13.91-12.21,29.15-22.65,45.53-31.28c-1.01-1.31-2.02-2.62-3.03-3.93
				c-14.07,11.76-30.41,20.18-48.12,24.92c0.81,1.39,1.62,2.79,2.43,4.18c22.24-19.29,46.61-35.89,72.67-49.59
				c-0.84-1.44-1.68-2.88-2.52-4.32c-24.79,15.85-49.58,31.7-74.37,47.55c1.01,1.31,2.02,2.62,3.03,3.93
				c10.55-10.34,22-19.62,34.31-27.78c2.74-1.82,0.38-5.58-2.52-4.32c-56.3,24.48-112.59,48.97-168.89,73.45
				c0.84,1.44,1.68,2.88,2.52,4.32c62.93-42.7,129.16-80.43,197.98-112.79c2.91-1.37,0.38-5.66-2.52-4.32
				c-49.98,23.19-99.95,46.37-149.93,69.56c0.84,1.44,1.68,2.88,2.52,4.32c38.07-26.3,76.69-52.87,120.44-68.9
				c-0.64-1.52-1.28-3.05-1.93-4.57c-57.47,31.69-116.41,60.7-176.62,86.83c-17.54,7.62-35.19,14.98-52.94,22.11
				c0.64,1.52,1.28,3.05,1.93,4.57c52.43-27.41,106.31-51.96,161.41-73.51c-0.64-1.52-1.28-3.05-1.93-4.57
				c-41.58,22.94-84.81,42.74-129.36,59.18c0.81,1.39,1.62,2.79,2.43,4.18c22.93-18.51,47.03-35.55,72.15-50.96
				c12.39-7.6,25.02-14.81,37.87-21.61c6.16-3.26,12.36-6.42,18.62-9.49c6.81-3.34,14.66-8.31,22.41-5.37
				c-0.2-1.52-0.4-3.05-0.6-4.57c-45.76,19.9-91.95,38.8-138.53,56.69c0.81,1.39,1.62,2.79,2.43,4.18
				c22.63-18.79,47.86-34.14,74.89-45.72c-0.84-1.44-1.68-2.88-2.52-4.32c-47.95,21.17-95.9,42.34-143.85,63.51
				c0.84,1.44,1.68,2.88,2.52,4.32c48.69-35.21,101.55-64.46,157.29-86.91c-0.64-1.52-1.28-3.05-1.93-4.57
				c-65.69,30.74-131.38,61.48-197.07,92.22c0.84,1.44,1.68,2.88,2.52,4.32c28.16-16.34,57.04-31.4,86.56-45.15
				c-0.84-1.44-1.68-2.88-2.52-4.32c-40.14,21.73-81.49,41.17-123.85,58.18c0.81,1.39,1.62,2.79,2.43,4.18
				c49.03-38.5,101.67-72.36,157.06-100.97c15.84-8.18,31.9-15.92,48.15-23.25c2.55-1.15,0.71-5.62-1.93-4.57
				c-43.55,17.35-87.11,34.7-130.66,52.04c0.81,1.39,1.62,2.79,2.43,4.18c16.72-16.43,35.57-30.37,56.17-41.57
				c2.83-1.54,0.32-5.81-2.52-4.32c-36.32,18.99-71.42,40.21-105.11,63.55c0.84,1.44,1.68,2.88,2.52,4.32
				c18.7-14.15,37.39-28.3,56.09-42.45c1.87-1.41,1.43-4.64-1.26-4.66c-34.15-0.26-68.11,5.05-100.54,15.75
				c0.64,1.52,1.28,3.05,1.93,4.57c26.14-14.8,54.96-24.33,84.81-27.89c-0.72-1.25-1.44-2.51-2.16-3.76
				c-13.93,31.09-50.55,42.49-69.33,69.91c-1.57,2.3,1.38,4.31,3.42,3.42c41.16-18.01,81.05-38.78,119.4-62.17
				c-0.84-1.44-1.68-2.88-2.52-4.32c-26.08,19.31-53.36,36.94-81.67,52.79c1.01,1.31,2.02,2.62,3.03,3.93
				c21.08-20.53,43.38-39.76,66.83-57.53c2.49-1.89,0.23-6.13-2.52-4.32c-41.98,27.65-84.41,54.62-127.27,80.87
				c1.01,1.31,2.02,2.62,3.03,3.93c19.79-21.75,40.83-42.32,63.02-61.61c2.13-1.85-0.66-5.49-3.03-3.93
				c-21.92,14.48-43.83,28.97-65.75,43.45c1.01,1.31,2.02,2.62,3.03,3.93c33.98-30.94,69.76-59.84,107.16-86.54
				c2.6-1.85,0.38-5.79-2.52-4.32c-48.9,24.82-96.19,52.69-141.59,83.44c0.84,1.44,1.68,2.88,2.52,4.32
				c25.72-19.17,51.45-38.33,77.17-57.5c-1.01-1.31-2.02-2.62-3.03-3.93c-11.72,9.72-24.01,18.67-36.84,26.86
				c1.14,1.14,2.28,2.28,3.42,3.42c4.92-10.1,11.12-19.37,18.64-27.72c1.91-2.12-0.47-5.24-3.03-3.93
				c-20.73,10.65-40.47,23.05-59.05,37.11c1.22,0.94,2.45,1.88,3.67,2.82c0.7-2.28,3.09-3.15,5.1-2.05c-0.3-1.14-0.6-2.28-0.9-3.42
				c-5.89,11.33-11.79,22.66-17.68,33.99c-1.12,2.16,1.18,4.74,3.42,3.42c25.15-14.81,50.78-28.79,76.86-41.9
				c-1.14-1.14-2.28-2.28-3.42-3.42c-6.59,11.42-16.46,20.05-28.59,25.19c1.01,1.31,2.02,2.62,3.03,3.93
				c15.16-17.64,30.96-34.71,47.37-51.2c1.65-1.66-0.01-5.11-2.43-4.18c-25.89,9.99-50.43,23.01-73.14,38.96
				c1.14,1.14,2.28,2.28,3.42,3.42c4.76-10.63,10.83-20.51,18.25-29.49c1.78-2.15-0.41-5.29-3.03-3.93
				c-14.34,7.47-28.68,14.95-43.02,22.42c1.22,0.94,2.45,1.88,3.67,2.82c3.66-10.02,13.32-16.55,23.93-16.5
				c-0.72-1.25-1.44-2.51-2.16-3.76c-5.95,11.18-13.35,21.34-22.2,30.41c1.42,0.59,2.85,1.18,4.27,1.77
				c1.28-14.32,18.83-23.75,31.51-17.15c-0.17-1.31-0.34-2.62-0.51-3.93c-9.78,9.31-23.28,13.78-36.69,11.86
				c0.2,1.52,0.4,3.05,0.6,4.57c12.66-7.47,29.16-5.52,39.69,4.75c0.81-1.39,1.62-2.79,2.43-4.18c-14.51-3.45-28.39-8.7-41.52-15.77
				c-0.42,1.55-0.84,3.11-1.26,4.66c10.2-0.03,20.41-0.06,30.61-0.09C142.75,192.24,142.75,187.24,139.53,187.25L139.53,187.25z"/>
		</g>
	</g>
	<g>
		<g>
			<path class="st4" d="M160.17,445.76c8.27,0.12,16.48,0.85,24.68,1.91c-3.99-0.54-7.98-1.07-11.96-1.61
				c30.24,4.11,59.99,10.34,90.58,11.64c27.62,1.18,55.33,1.17,82.98,1.47c54.62,0.59,109.29,0.4,163.83-2.98
				c15.1-0.94,30.19-2.12,45.25-3.59c15.09-1.47,30.2-3.11,45.34-1.32c-3.99-0.54-7.98-1.07-11.96-1.61
				c1.25,0.16,2.5,0.35,3.74,0.56c12.33,1.98,23.49,2.01,34.68-4.54c9.33-5.46,18.24-16.17,20.68-26.89
				c2.62-11.52,2.06-24.45-4.54-34.68c-5.95-9.23-15.57-18.87-26.89-20.68c-15.52-2.49-30.29-3.53-45.91-2.27
				c-11.93,0.96-23.84,2.3-35.77,3.26c-24.59,1.98-49.23,3.24-73.89,4c-49.36,1.52-98.75,1.02-148.12,0.29
				c-27.58-0.41-55.33-0.17-82.72-3.83c3.99,0.54,7.98,1.07,11.96,1.61c-27.24-3.8-54.31-10.34-81.93-10.74
				c-11.43-0.16-23.77,5.13-31.82,13.18c-7.8,7.8-13.68,20.61-13.18,31.82C116.28,425.43,134.94,445.39,160.17,445.76L160.17,445.76
				z"/>
		</g>
	</g>
</g>
<g>
</g>
<g>
</g>
<g>
</g>
<g>
</g>
<g>
</g>
<g>
</g>
</svg>
