<?xml version="1.0" encoding="utf-8"?>
<!-- Generator: Adobe Illustrator 23.0.3, SVG Export Plug-In . SVG Version: 6.00 Build 0)  -->
<svg version="1.1" id="Layer_1" xmlns="http://www.w3.org/2000/svg" xmlns:xlink="http://www.w3.org/1999/xlink" x="0px" y="0px"
	 viewBox="0 0 792 612" style="enable-background:new 0 0 792 612;" xml:space="preserve">
<style type="text/css">
	.st0{fill:none;stroke:#000000;stroke-miterlimit:10;}
	.st1{stroke:#000000;stroke-width:1.44;stroke-miterlimit:10;}
	.st2{fill:#FFFFFF;stroke:#000000;stroke-width:1.44;stroke-miterlimit:10;}
	.st3{fill:#2E3192;}
	.st4{fill:#00A651;}
	.st5{fill:#FFFFFF;stroke:#000000;stroke-width:0.936;stroke-miterlimit:10;}
</style>
<rect x="8.29" y="8.76" class="st0" width="748.39" height="595.16"/>
<path class="st0" d="M8.29,532.19"/>
<rect x="289.23" y="165.75" class="st1" width="166.35" height="100.79"/>
<line class="st0" x1="8.29" y1="405.73" x2="756.68" y2="405.73"/>
<rect x="287.27" y="163.53" class="st2" width="166.35" height="100.79"/>
<g>
	<g>
		<path d="M328.45,199.79c4.04-4.57,8.09-9.16,12.65-13.22c2.54-2.27,5.38-4.89,8.51-6.31c1.79-0.81,0.95-1.24,1.55-0.13
			c0.6,1.12-0.5,3.92-0.75,5.33c-1.19,6.56-3.06,12.97-3.96,19.58c-0.61,4.47-1.86,11.51,1.26,15.4c7.3,9.12,19.3-9.51,23.1-14.09
			c8.52-10.25,16.36-21.03,23.54-32.26c2.5-3.91-3.72-7.53-6.22-3.63c-7.34,11.48-15.37,22.48-24.16,32.89
			c-1.95,2.31-3.94,4.59-5.97,6.84c-1.16,1.29-2.37,2.88-3.68,4.02c-1.49,1.3-0.82,1.43-1.2-0.14c-1.47-6.14,1.58-14.49,2.91-20.46
			c1.24-5.54,6.46-26.24-6.3-21.5c-10.63,3.95-19.11,14.37-26.38,22.59C320.3,198.16,325.37,203.27,328.45,199.79L328.45,199.79z"/>
	</g>
</g>
<g>
	<g>
		<path d="M313.51,210.99c8.94,3.85,16.91,9.13,23.85,15.97c3.3,3.26,8.4-1.83,5.09-5.09c-7.35-7.24-15.82-13.02-25.3-17.1
			C312.93,202.96,309.26,209.16,313.51,210.99L313.51,210.99z"/>
	</g>
</g>
<g>
	<g>
		<path d="M308.07,187.11c-2.47-2.46-8.11-5.99-7.3-10.15c0.88-4.53-6.06-6.46-6.94-1.91c-1.52,7.79,4.22,12.24,9.16,17.16
			C306.26,195.48,311.36,190.39,308.07,187.11L308.07,187.11z"/>
	</g>
</g>
<g>
	<g>
		<path d="M316.64,185.86c4.57-0.41,9.11-1,13.64-1.74c1.93-0.32,2.97-2.69,2.51-4.43c-0.54-2.04-2.52-2.83-4.43-2.51
			c-3.89,0.64-7.8,1.13-11.72,1.48C312.06,179.07,312.02,186.28,316.64,185.86L316.64,185.86z"/>
	</g>
</g>
<g>
	<g>
		<path d="M294.81,220.62c-0.23,7.8-0.17,16.12,4.7,22.66c3.16,4.24,8.7,7.91,14.24,6.89c6.28-1.16,6.95-8.43,5.3-13.53
			c-2.57-7.95-9.09-15.31-13.65-22.18c-0.72,1.76-1.43,3.53-2.15,5.29c5.92-1.11,11.85-0.45,17.35,2.01
			c4.19,1.87,7.86-4.32,3.63-6.22c-0.29-0.13-0.58-0.26-0.87-0.39c0.55,0.72,1.1,1.43,1.65,2.15c-0.11-0.3-0.21-0.6-0.32-0.9
			c-0.84,1.48-1.68,2.95-2.51,4.43c9.51-3.4,19.34-5.89,29.38-7.07c9.45-1.1,19.03-0.73,28.25-3.35
			c17.49-4.98,35.42-12.16,50.94-21.68c2.8-1.72,1.93-7.14-1.82-6.71c-6,0.69-11.12,2.99-16.44,5.74
			c-6.69,3.46-13.35,6.97-20.02,10.47c-13.04,6.85-26.05,13.77-38.96,20.86c-4.07,2.23-0.46,8.38,3.63,6.22
			c13.44-7.1,24.82-16.97,33.97-29.07c2.22-2.93-2.04-6.76-4.93-4.93c-7.96,5.07-15.05,11.19-21.15,18.4
			c-2.53,3,0.64,7.82,4.36,5.65c8.96-5.22,16.75-11.97,23.12-20.17c1.54-1.98,1.33-5.35-1.59-6.02c-6.68-1.53-13.03,5.15-17.99,8.78
			c-6.61,4.84-13.06,9.88-19.37,15.09c-2.45,2.02-0.41,6.22,2.55,6.15c2.49-0.06,4.52-0.62,6.53-2.16c2.44-1.88,2.2-7.11-1.82-6.71
			c-15.25,1.53-29.99,7.94-44.44,12.74c-3.94,1.31-3.09,6.75,0.96,7.07c15.32,1.23,30.48,3.51,45.48,6.81
			c0.32-2.36,0.64-4.71,0.96-7.07c-1.78-0.01-3.57-0.02-5.35-0.03c0,2.4,0,4.8,0,7.2c15.77-0.88,31.55-1.47,47.35-1.78
			c4.63-0.09,4.64-7.16,0-7.2c-14.07-0.12-28.06,2.54-40.15,9.99c-2.84,1.75-1.92,7.03,1.82,6.71c12.59-1.1,25.17-2.19,37.76-3.29
			c4.57-0.4,4.69-7,0-7.2c-3.48-0.15-6.67,0.31-9.97,1.45c-4.35,1.51-2.48,8.46,1.91,6.94c2.71-0.94,5.17-1.32,8.06-1.19
			c0-2.4,0-4.8,0-7.2c-12.59,1.1-25.17,2.19-37.76,3.29c0.61,2.24,1.21,4.47,1.82,6.71c11.06-6.82,23.66-9.11,36.52-9.01
			c0-2.4,0-4.8,0-7.2c-15.79,0.31-31.58,0.9-47.35,1.78c-4.59,0.26-4.67,7.17,0,7.2c1.78,0.01,3.57,0.02,5.35,0.03
			c3.98,0.02,5-6.18,0.96-7.07c-15.63-3.44-31.45-5.79-47.4-7.06c0.32,2.36,0.64,4.71,0.96,7.07c13.72-4.56,28.05-11.02,42.53-12.48
			c-0.61-2.24-1.21-4.47-1.82-6.71c-0.77,0.82-1.73,1.22-2.89,1.18c0.85,2.05,1.7,4.1,2.55,6.15c5.11-4.22,10.31-8.33,15.63-12.28
			c2.28-1.69,4.57-3.36,6.89-5c1.45-1.03,5.88-5.18,7.84-4.73c-0.53-2.01-1.06-4.01-1.59-6.02c-6.01,7.73-13.2,14.11-21.66,19.04
			c1.45,1.88,2.91,3.77,4.36,5.65c5.72-6.76,12.21-12.51,19.69-17.27c-1.64-1.64-3.28-3.28-4.93-4.93
			c-8.4,11.09-19.11,20-31.39,26.49c1.21,2.07,2.42,4.14,3.63,6.22c11.77-6.46,23.61-12.78,35.49-19.03
			c5.79-3.05,11.6-6.08,17.4-9.12c5.95-3.11,12.1-7.16,18.9-7.94c-0.61-2.24-1.21-4.47-1.82-6.71
			c-15.36,9.42-33.48,16.99-50.96,21.43c-9.19,2.34-18.92,1.8-28.29,3.1c-9.44,1.31-18.64,3.64-27.61,6.85
			c-1.73,0.62-3.2,2.48-2.51,4.43c0.6,1.72,1.15,2.68,2.84,3.44c1.21-2.07,2.42-4.14,3.63-6.22c-7.45-3.33-14.87-4.25-22.9-2.74
			c-2.22,0.42-3.37,3.46-2.15,5.29c1.71,2.57,16.86,23.22,12.74,24.78c-3.55,1.35-7.42-4.53-8.48-7.13
			c-1.92-4.71-1.57-10.14-1.43-15.11C302.14,215.99,294.94,215.99,294.81,220.62L294.81,220.62z"/>
	</g>
</g>
<g>
	<g>
		<path class="st3" d="M304.88,179.18c-2.74,0.01-5.48,0.02-8.21,0.02c-3.45,0.01-5.06,5.02-1.82,6.71c3.9,2.03,7.9,3.59,12.16,4.66
			c3.29,0.83,6.34-3.56,3.5-6.02c-4.66-4.03-10.32-4.76-15.83-1.94c-3.47,1.78-1.42,6.39,1.82,6.71c4.99,0.49,9.31-1.15,13.04-4.41
			c1.6-1.39,1.35-4.77-0.73-5.65c-6.12-2.6-13.56,0.31-14.75,7.33c-0.56,3.28,3.34,6.35,6.02,3.5c2.6-2.76,4.78-5.71,6.63-9.03
			c1.25-2.25-0.29-5.6-3.11-5.42c-4.54,0.3-8.28,2.46-10.18,6.7c-1.44,3.22,1.54,6.69,4.93,4.93c3.85-2.01,7.7-4.01,11.54-6.02
			c-1.45-1.88-2.91-3.77-4.36-5.65c-2.21,2.77-4.06,5.56-5.57,8.78c-1.38,2.94,1.68,7.17,4.93,4.93c5.83-4.04,12-7.42,18.61-10.03
			c-1.17-2.01-2.34-4.01-3.5-6.02c-4.39,4.44-8.63,9.01-12.71,13.74c-2.73,3.16,0.63,7.39,4.36,5.65c3.95-1.84,6.9-4.61,9.2-8.29
			c2.02-3.22-1.88-6.47-4.93-4.93c-6.99,3.53-13.87,7.28-20.62,11.24c1.64,1.64,3.28,3.28,4.93,4.93c1.58-3.04,3.16-6.08,4.74-9.12
			c1.04-2.01,0.2-4.7-2.15-5.29c-2.81-0.7-4.9,0.16-6.42,2.61c-1.8,2.9,1.96,7.14,4.93,4.93c5.02-3.75,10.28-7.06,15.85-9.96
			c-1.45-1.88-2.91-3.77-4.36-5.65c-2.24,2.58-4.12,5.25-5.67,8.3c-1.53,3.02,1.72,7,4.93,4.93c3.74-2.42,7.3-5.05,10.75-7.88
			c3.13-2.56-1.08-8.1-4.36-5.65c-6.9,5.14-13.81,10.29-20.71,15.43c-3.63,2.7-0.28,8.85,3.63,6.22
			c12.21-8.23,24.88-15.7,37.99-22.39c-1.21-2.07-2.42-4.14-3.63-6.22c-10.32,7.4-20.21,15.36-29.62,23.89
			c-3,2.72,0.93,7.92,4.36,5.65c5.88-3.89,11.76-7.77,17.64-11.66c-1.45-1.88-2.91-3.77-4.36-5.65
			c-5.94,5.2-11.57,10.71-16.91,16.53c-2.68,2.92,0.75,7.87,4.36,5.65c11.5-7.05,22.88-14.29,34.15-21.7
			c-1.21-2.07-2.42-4.14-3.63-6.22c-6.58,5.02-12.85,10.35-18.8,16.11c-2.97,2.87,0.82,7.65,4.36,5.65
			c7.59-4.29,14.89-9,21.92-14.17c3.65-2.68,0.42-8.68-3.63-6.22c-10.32,6.26-21,11.82-32.04,16.68c1.64,1.64,3.28,3.28,4.93,4.93
			c5.28-7.3,14.51-10.36,18.6-18.76c1.04-2.14-0.15-5.8-3.11-5.42c-8.85,1.15-17.09,3.75-24.91,8.07c-3.53,1.95-1.15,7.84,2.77,6.58
			c8.44-2.71,16.98-4.07,25.84-4.07c-0.61-2.24-1.21-4.47-1.82-6.71c-5.02,3.8-10.03,7.59-15.05,11.39
			c-3.6,2.73-0.25,8.89,3.63,6.22c9.06-6.25,18.46-11.93,28.2-17.05c-1.21-2.07-2.42-4.14-3.63-6.22
			c-5.84,3.25-11.13,7.19-15.94,11.82c-2.44,2.35,0.06,7.39,3.5,6.02c11.69-4.66,23.37-9.31,35.06-13.97
			c-0.92-2.19-1.85-4.39-2.77-6.58c-19.98,9.07-38.64,20.49-55.93,34c-2.78,2.17,0.24,7.33,3.5,6.02
			c11.71-4.73,23.13-10.06,34.25-16.04c4.13-2.23,0.5-8.15-3.63-6.22c-7.92,3.71-15.66,7.75-23.23,12.12
			c-4.08,2.35-0.5,8.15,3.63,6.22c17.63-8.25,35.25-16.5,52.88-24.75c3.65-1.71,1.02-8.12-2.77-6.58
			c-15.33,6.23-29.78,14.1-43.23,23.75c-3.8,2.73-0.6,8.09,3.63,6.22c12.87-5.68,25.73-11.36,38.6-17.04
			c4.24-1.87,0.57-8.06-3.63-6.22c-7.63,3.34-14.52,7.67-20.96,12.94c-2.73,2.23,0.21,7.29,3.5,6.02
			c12.84-4.94,25.57-10.17,38.19-15.64c2.78-1.21,2.07-6.06-0.86-6.58c-7.68-1.36-16.4,5.38-22.72,9.16
			c-7.69,4.6-14.97,9.79-21.96,15.39c-2.78,2.23,0.22,7.24,3.5,6.02c12.3-4.58,24.23-10,35.73-16.31c3.49-1.91,1.09-8.1-2.77-6.58
			c-15.13,5.94-29.92,12.65-44.33,20.16c-3.55,1.85-1.05,8.12,2.77,6.58c21.45-8.65,42.35-18.52,62.62-29.66
			c3.49-1.92,1.11-8.04-2.77-6.58c-12.1,4.55-22.75,11.61-33.34,18.92c-3.84,2.65-0.57,8.17,3.63,6.22
			c13.41-6.22,26.82-12.44,40.23-18.67c-1.21-2.07-2.42-4.14-3.63-6.22c-18.47,8.72-36.21,18.83-53.13,30.27
			c-3.91,2.65-0.56,8.04,3.63,6.22c15.11-6.57,30.21-13.14,45.32-19.71c-1.21-2.07-2.42-4.14-3.63-6.22
			c-3.59,2.44-6.94,5.12-10.07,8.12c-2.91,2.8,0.88,7.88,4.36,5.65c6.65-4.25,13.3-8.51,19.96-12.76c3.9-2.5,0.47-8.41-3.63-6.22
			c-7.32,3.91-14.07,8.58-20.36,13.97c-2.79,2.39,0.19,6.97,3.5,6.02c5.54-1.59,10.31-4.17,14.8-7.79c3.29-2.65-0.91-7.52-4.36-5.65
			c-4.71,2.54-9.03,5.57-13.08,9.06c-3.11,2.68,0.92,7.79,4.36,5.65c5.57-3.45,10.88-7.22,16.04-11.25
			c3.19-2.49-1.06-8.07-4.36-5.65c-5.68,4.16-10.86,8.79-15.51,14.09c-2.59,2.95,0.7,7.88,4.36,5.65
			c9.19-5.59,17.75-12.08,25.62-19.42c2.92-2.72-1.04-8.13-4.36-5.65c-6.96,5.18-13.42,10.85-19.37,17.16
			c-2.93,3.11,0.73,7.32,4.36,5.65c9.56-4.38,18.91-9.15,28.07-14.31c-1.45-1.88-2.91-3.77-4.36-5.65
			c-6.83,6.21-13.72,12.35-20.67,18.42c1.7,1.7,3.39,3.39,5.09,5.09c5.79-5.78,12.22-10.52,19.44-14.36
			c-1.81-1.04-3.61-2.07-5.42-3.11c0.18,1.67-6.47,7.37-7.8,8.81c-3.04,3.3-6.07,6.6-9.11,9.89c-3.14,3.41,1.71,8.29,5.09,5.09
			c5.5-5.22,11.35-9.93,17.64-14.18c-1.45-1.88-2.91-3.77-4.36-5.65c-3.55,3.16-6.9,6.48-10.09,10.01c-2.58,2.86,0.89,8.2,4.36,5.65
			c4.82-3.53,9.85-6.64,15.16-9.38c-1.45-1.88-2.91-3.77-4.36-5.65c-1.6,1.82-3.19,3.64-4.79,5.46c-2.65,3.02,0.66,7.7,4.36,5.65
			c2.56-1.41,5.11-2.82,7.67-4.23c-1.64-1.64-3.28-3.28-4.93-4.93c-1.15,2.29-2.4,4.38-4.02,6.37c-2.86,3.52,1.91,8.57,5.09,5.09
			c3.66-4.01,6.93-8.29,9.83-12.88c1.94-3.08-1.88-6.72-4.93-4.93c-1.55,0.91-3.09,1.83-4.64,2.74c1.64,1.64,3.28,3.28,4.93,4.93
			c2.43-3.89,4.54-7.9,6.36-12.11c1.09-2.53-0.17-5.25-3.11-5.42c-2.4-0.14-4.15,0.34-6.14,1.66c1.64,1.64,3.28,3.28,4.93,4.93
			c2.34-3.04,4.69-6.08,7.03-9.12c2.26-2.93-2.05-6.73-4.93-4.93c-3.16,1.99-5.61,4.35-7.84,7.33c2.07,1.21,4.14,2.42,6.22,3.63
			c2.41-3.75,4.82-7.5,7.23-11.25c1.6-2.48-1.11-6.45-4.07-5.29c-7.41,2.92-14.45,6.44-21.16,10.73c1.64,1.64,3.28,3.28,4.93,4.93
			c0.66-1.29,1.32-2.57,1.98-3.86c1.28-2.5-0.92-6.53-4.07-5.29c-3.61,1.43-6.72,3.23-9.77,5.63c2.01,0.53,4.01,1.06,6.02,1.59
			c-0.09-0.48-0.18-0.97-0.27-1.45c0.11-2.51-2.38-3.87-4.56-3.47c-3.8,0.7-7.25,1.88-10.74,3.48c1.81,1.04,3.61,2.07,5.42,3.11
			c0.06-0.72,0.12-1.45,0.18-2.17c0.12-1.51-1.2-3.13-2.64-3.47c-4.66-1.11-8.62,0.55-13.13,1.7c-2.28,0.58-4.58,1.09-6.9,1.52
			c-1.29,0.24-2.58,0.46-3.88,0.63c-0.61,0.11-1.22,0.19-1.84,0.23c-1.37-0.08-1.42,0.9-0.15,2.91c2.34-2.05,0.48-6.25-2.55-6.15
			c-6.58,0.24-12.39,3.76-18.6,5.64c-3.25,0.99-6.56,1.78-9.91,2.36c-1.55,0.27-9.15,2.23-10.57,0.9c0.35,0.85,0.7,1.7,1.05,2.55
			c-0.01-0.31-0.02-0.62-0.03-0.92c-0.08-2.35-2.23-4.07-4.56-3.47c-7.61,1.97-14.84,5.33-22.11,8.26
			c-7.63,3.08-15.25,6.15-22.88,9.23c1.17,2.01,2.34,4.01,3.5,6.02c4.25-3.73,8.5-7.45,12.75-11.18c-1.7-1.7-3.39-3.39-5.09-5.09
			c-6.36,5.91-12.04,12.34-17.24,19.29c-2.23,2.98,2.03,6.67,4.93,4.93c3.99-2.4,7.97-4.81,11.96-7.21
			c-1.45-1.88-2.91-3.77-4.36-5.65c-3.36,3.68-5.82,7.67-7.74,12.26c-1.23,2.95,2.82,5.65,5.29,4.07
			c11.27-7.22,22.62-14.41,35.44-18.56c-1.36-1.76-2.71-3.53-4.07-5.29c-4.65,8.8-13.78,14.05-19.63,21.99
			c-2.62,3.56,2.74,6.7,5.65,4.36c13.08-10.51,26.92-19.99,41.4-28.47c-1.45-1.88-2.91-3.77-4.36-5.65
			c-8.69,7.09-16.95,14.64-24.8,22.64c-2.75,2.81,0.96,8.15,4.36,5.65c6.95-5.11,14.02-10.02,21.24-14.74
			c-1.21-2.07-2.42-4.14-3.63-6.22c-4.42,3.06-8.46,6.49-12.12,10.43c-2.67,2.87,0.82,8.01,4.36,5.65c4.43-2.95,8.86-5.9,13.29-8.85
			c-1.45-1.88-2.91-3.77-4.36-5.65c-5.33,5.83-10.3,11.95-14.94,18.34c-2.32,3.18,2.03,6.33,4.93,4.93
			c5.26-2.54,10.52-5.09,15.78-7.63c-1.45-1.88-2.91-3.77-4.36-5.65c-2.9,2.44-5.81,4.88-8.71,7.32c-2.71,2.28,0.18,7.24,3.5,6.02
			c1.82-0.67,3.43-1.41,5.06-2.48c2.1-1.37,2.57-4.97,0-6.22c-1.08-0.53-1.93-0.85-3.14-0.92c-0.74-0.05-2.8,0.71-3.36,0.28
			c0.55,0.72,1.1,1.43,1.65,2.15c-1.15-3.05,1.75-8.34,2.48-11.39c0.82-3.42,0.97-6.65,0.13-10.08c-0.44-1.78-2.63-3.16-4.43-2.51
			c-8.5,3.06-16.5,7.05-24.01,12.08c1.64,1.64,3.28,3.28,4.93,4.93c3.33-4.36,6.98-8.42,10.88-12.26c2.54-2.51-0.04-7.02-3.5-6.02
			c-13.74,3.97-25.78,11.55-37.66,19.31c1.21,2.07,2.42,4.14,3.63,6.22c13.18-9.5,26.63-18.61,40.33-27.35
			c-1.21-2.07-2.42-4.14-3.63-6.22c-5.94,3.92-11.69,8.13-17.2,12.64c-5.09,4.17-10.96,8.49-13.91,14.52
			c-1.84,3.75,2.49,6.99,5.65,4.36c1.78-1.48,2.65-3.01,3.38-5.17c0.72-2.13-1.21-4.7-3.47-4.56c-3.22,0.2-6.24,0.72-9.32,1.71
			c1.48,1.48,2.95,2.95,4.43,4.43c0.83-4.66,3.73-7.86,6.77-11.3c2.28-2.59,6-5.98,6.5-9.58c0.38-2.73-1.4-4.99-4.14-5.38
			c-1.71-0.24-3.19,0.36-4.77,0.87c-0.91,0.29-6.13,2.53-7.02,1.89c0.55,1.36,1.1,2.71,1.65,4.07c0.25-1.33,0.68-2.6,1.3-3.8
			c0.91-2.11,0.3-4.59-2.15-5.29c-2.25-0.64-4.41-0.93-6.75-0.89c1.16,1.52,2.31,3.04,3.47,4.56c0.48-1.79,0.95-3.57,1.43-5.36
			c0.51-1.91-0.64-3.87-2.51-4.43c-1.69-0.51-2.68-0.47-4.39-0.08c1.36,1.76,2.71,3.53,4.07,5.29c3.27-6.76-3.93-10.15-9.57-7.89
			c1.36,1.76,2.71,3.53,4.07,5.29c0.27-0.29,0.53-0.59,0.8-0.88c4.05-2.27,0.44-8.44-3.63-6.22c-1.93,1.05-3.14,2.26-4.11,4.23
			c-1.02,2.07-0.21,4.63,2.15,5.29c2.47,0.69,4.4,0.69,6.86,0.02c-1.48-1.48-2.95-2.95-4.43-4.43c-0.6,2.43-1.28,4.81-2.07,7.19
			c-0.81,2.44,1.88,5.44,4.43,4.43c1.96-0.77,1.97-1.36,1.13,0.73c-0.54,1.33-1.21,2.61-1.74,3.95c-1.25,3.17-2.05,6.42-2.58,9.79
			c-0.42,2.69,2.47,6.16,5.29,4.07c3.82-2.83,7.84-4.98,12.37-6.45c-1.17-2.01-2.34-4.01-3.5-6.02c-4.25,4.95-8.5,9.9-12.75,14.86
			c-2.99,3.48,1.71,8.35,5.09,5.09c3.33-3.21,6.68-6.42,9.69-9.95c2.4-2.82,5.77-6.32,6.48-10.08c1.05-5.58-5.51-10.57-9.79-5.81
			c2.05,0.85,4.1,1.7,6.15,2.55c0.08-2.71,0.03-5.4-0.17-8.1c-0.16-2.18-2.2-4.28-4.56-3.47c-2.74,0.94-4.39,2.23-6.08,4.57
			c-2.41,3.34,2.88,7.3,5.65,4.36c4.6-4.87,9.48-9.4,14.68-13.61c-1.17,0.31-2.34,0.62-3.5,0.93c0.28,0.07,0.56,0.13,0.83,0.2
			c-0.72-0.55-1.43-1.1-2.15-1.65c0.14,0.27,0.29,0.54,0.43,0.81c-0.12-0.92-0.24-1.85-0.36-2.77c-0.1,0.27-0.2,0.54-0.3,0.8
			c-0.86,2.28,1.33,4.49,3.47,4.56c6.07,0.19,11.89-1.05,17.75-2.49c-1.36-1.76-2.71-3.53-4.07-5.29
			c-1.99,3.35-3.99,6.69-5.98,10.04c-1.18,1.98-0.09,4.71,2.15,5.29c4.26,1.11,7.94-0.29,12.03-1.55
			c4.15-1.27,10.33-4.54,14.65-4.05c-0.85-0.35-1.7-0.7-2.55-1.05c0.24,0.24,0.48,0.48,0.73,0.72c0-1.7,0-3.39,0-5.09
			c-9.61,9.4-18.01,19.87-25.14,31.27c-1.47,2.34,0.45,5.41,3.11,5.42c11.53,0.05,22.44-5.38,33.03-9.35
			c5.42-2.03,10.84-4.07,16.26-6.1c3.01-1.13,6.02-2.26,9.03-3.39c2.7-1.01,6.59-3.38,9.55-2.64c-0.53-2.01-1.06-4.01-1.59-6.02
			c-4.09,4.51-8.17,9.02-12.26,13.53c-2.33,2.58-0.09,7.05,3.5,6.02c2.67-0.77,5.35-1.49,8.05-2.13c1.27-0.3,6.77-0.93,6.4-2.05
			c0.31-1.17,0.62-2.34,0.93-3.5c-4.4,3.69-9.74,7.26-13.48,11.62c-1,1.16-1.59,2.47-1.67,4.01c-0.03,0.63,1.08,4.76,1.23,4.55
			c-2.01,3.02,1.94,6.78,4.93,4.93c7.3-4.53,14.93-8.32,23-11.31c-1.48-1.48-2.95-2.95-4.43-4.43c-0.31,0.7-0.63,1.41-0.94,2.11
			c1.45,1.88,2.91,3.77,4.36,5.65c2.33-1.94,4.86-3.39,7.7-4.44c-1.36-1.76-2.71-3.53-4.07-5.29c-1.76,2.43-3.69,4.65-5.79,6.79
			c-2.29,2.34-0.5,5.94,2.55,6.15c0.84,0.06,1.7,0.1,2.51-0.19c0.54-0.12,1.06-0.28,1.58-0.48c-0.56-0.37-1.12-0.74-1.68-1.11
			c-1.29,0.31-0.76,5.35-0.34,6.29c1.37,3.08,4.73,3.99,7.57,2.46c4.08-2.2,0.45-8.42-3.63-6.22c-0.24,0.13-0.47,0.25-0.71,0.38
			c0.92-0.12,1.85-0.24,2.77-0.36c3.2,0.65,0.73-6.44-0.42-7.4c-2.65-2.2-4.78-0.37-7.65-0.57c0.85,2.05,1.7,4.1,2.55,6.15
			c2.54-2.58,4.79-5.32,6.91-8.24c1.8-2.48-1.21-6.35-4.07-5.29c-4.05,1.5-7.56,3.54-10.88,6.29c-3.11,2.58,1.1,8.13,4.36,5.65
			c2.31-1.75,3.75-3.5,4.25-6.42c0.42-2.43-1.6-5.47-4.43-4.43c-8.64,3.2-16.89,7.18-24.72,12.04c1.64,1.64,3.28,3.28,4.93,4.93
			c2.03-3.05-0.7-5.4,0.13-7.88c0.51-1.52,4.35-3.78,5.6-4.85c2.34-2.01,4.7-4,7.07-5.98c0.92-0.77,1.3-2.38,0.93-3.5
			c-2.95-8.84-17.4-2.56-23.31-0.85c1.17,2.01,2.34,4.01,3.5,6.02c4.09-4.51,8.17-9.02,12.26-13.53c1.76-1.94,1.15-5.33-1.59-6.02
			c-5.31-1.33-10.29,1.48-15.18,3.32c-6.02,2.26-12.04,4.52-18.06,6.78c-11.42,4.28-24.12,11.17-36.53,11.12
			c1.04,1.81,2.07,3.61,3.11,5.42c6.82-10.89,14.84-20.82,24.02-29.81c1.38-1.35,1.37-3.73,0-5.09c-3.09-3.05-6.68-1.51-10.36-0.38
			c-2.53,0.78-5.05,1.55-7.58,2.33c-2.89,0.89-7,2.94-10.1,2.13c0.72,1.76,1.43,3.53,2.15,5.29c1.99-3.35,3.99-6.69,5.98-10.04
			c1.65-2.77-1.07-6.02-4.07-5.29c-5.26,1.29-10.39,2.4-15.84,2.23c1.16,1.52,2.31,3.04,3.47,4.56c1.48-3.92-2.41-7.56-6.25-5.88
			c-2.63,1.14-5.54,4.55-7.65,6.48c-2.69,2.46-5.26,5.04-7.76,7.69c1.88,1.45,3.77,2.91,5.65,4.36c0.59-0.42,1.18-0.84,1.77-1.26
			c-1.52-1.16-3.04-2.31-4.56-3.47c0.19,2.71,0.25,5.39,0.17,8.1c-0.09,3.03,4.06,4.87,6.15,2.55c-1.81-0.23-3.05,0.32-3.74,1.65
			c-0.63,0.94-1.31,1.86-2.03,2.74c-1.08,1.35-2.24,2.65-3.42,3.92c-2.36,2.55-4.87,4.96-7.38,7.37c1.7,1.7,3.39,3.39,5.09,5.09
			c4.25-4.95,8.5-9.9,12.75-14.86c2.18-2.54,0.17-7.21-3.5-6.02c-5.11,1.66-9.77,3.98-14.09,7.18c1.76,1.36,3.53,2.71,5.29,4.07
			c0.53-3.35,1.29-6.64,2.58-9.79c1.21-2.94,3.69-5.96,3.16-9.35c-0.88-5.62-7.27-5.82-11.41-4.18c1.48,1.48,2.95,2.95,4.43,4.43
			c0.79-2.38,1.47-4.76,2.07-7.19c0.65-2.65-1.73-5.17-4.43-4.43c-1.01-0.01-2.02-0.01-3.04-0.02c0.72,1.76,1.43,3.53,2.15,5.29
			c0.51-0.55,1.02-1.1,1.53-1.64c-1.21-2.07-2.42-4.14-3.63-6.22c-1.55,0.87-2.58,1.89-3.38,3.47c-1.26,2.49,0.91,6.55,4.07,5.29
			c0.78,0.03,1.28-0.24,1.51-0.81c0.12-0.92,0.24-1.85,0.36-2.77c-0.14,0.3-0.29,0.6-0.43,0.9c-1.37,2.83,0.88,6.02,4.07,5.29
			c0.19,0.03,0.37,0.05,0.56,0.08c-0.84-1.48-1.68-2.95-2.51-4.43c-0.48,1.79-0.95,3.57-1.43,5.36c-0.59,2.23,1.11,4.59,3.47,4.56
			c1.72-0.02,3.18,0.17,4.83,0.63c-0.72-1.76-1.43-3.53-2.15-5.29c-0.78,1.82-1.73,3.56-2.02,5.52c-0.26,1.75,0.22,3.03,1.65,4.07
			c2.02,1.45,4.02,1.07,6.33,0.58c1.83-0.39,6.67-2.87,8.41-2.29c-0.72-0.55-1.43-1.1-2.15-1.65c0.13,0.21,0.26,0.42,0.4,0.63
			c-0.12-0.92-0.24-1.85-0.36-2.77c-1.16,4.03-5.79,7.49-8.35,10.73c-2.4,3.05-4.23,6.3-4.91,10.15c-0.45,2.53,1.6,5.34,4.43,4.43
			c2.45-0.79,4.82-1.29,7.4-1.45c-1.16-1.52-2.31-3.04-3.47-4.56c-0.51,0.66-1.02,1.33-1.53,1.99c1.88,1.45,3.77,2.91,5.65,4.36
			c2.65-5.4,8.23-9.33,12.79-13.06c5.04-4.13,10.31-7.93,15.74-11.52c3.84-2.54,0.3-8.72-3.63-6.22
			c-13.7,8.73-27.15,17.85-40.33,27.35c-3.69,2.66-0.3,8.79,3.63,6.22c11.35-7.41,22.8-14.8,35.94-18.59
			c-1.17-2.01-2.34-4.01-3.5-6.02c-4.35,4.29-8.3,8.87-12.01,13.72c-2.2,2.89,2.06,6.85,4.93,4.93c6.98-4.69,14.37-8.5,22.29-11.36
			c-1.48-0.84-2.95-1.68-4.43-2.51c1.66,6.78-3.77,12.86-3.08,19.6c0.19,1.86,1.1,3.66,2.82,4.56c1.85,0.96,4.46-0.55,5.8,0.1
			c0-2.07,0-4.14,0-6.22c-1.01,0.76-2.13,1.35-3.34,1.75c1.17,2.01,2.34,4.01,3.5,6.02c2.9-2.44,5.81-4.88,8.71-7.32
			c3.31-2.78-0.9-7.33-4.36-5.65c-5.26,2.54-10.52,5.09-15.78,7.63c1.64,1.64,3.28,3.28,4.93,4.93c4.29-5.9,8.9-11.51,13.82-16.89
			c2.64-2.88-0.81-8.02-4.36-5.65c-4.43,2.95-8.86,5.9-13.29,8.85c1.45,1.88,2.91,3.77,4.36,5.65c3.25-3.49,6.74-6.58,10.66-9.3
			c3.77-2.61,0.28-8.78-3.63-6.22c-7.22,4.72-14.3,9.63-21.24,14.74c1.45,1.88,2.91,3.77,4.36,5.65
			c7.85-8.01,16.12-15.55,24.8-22.64c3.22-2.63-0.91-7.67-4.36-5.65c-15.02,8.79-29.3,18.7-42.86,29.6
			c1.88,1.45,3.77,2.91,5.65,4.36c5.89-8.01,14.88-13.03,19.63-21.99c1.39-2.63-0.94-6.3-4.07-5.29
			c-13.43,4.34-25.35,11.72-37.16,19.28c1.76,1.36,3.53,2.71,5.29,4.07c1.42-3.4,3.4-6.37,5.88-9.09c2.68-2.94-0.74-7.84-4.36-5.65
			c-3.99,2.4-7.97,4.81-11.96,7.21c1.64,1.64,3.28,3.28,4.93,4.93c4.82-6.44,10.23-12.35,16.12-17.83c3.42-3.18-1.63-8.12-5.09-5.09
			c-4.25,3.73-8.5,7.45-12.75,11.18c-2.6,2.28,0.15,7.37,3.5,6.02c7.63-3.08,15.25-6.15,22.88-9.23c7.27-2.93,14.5-6.29,22.11-8.26
			c-1.52-1.16-3.04-2.31-4.56-3.47c0.29,8.19,11.65,5.52,16.83,4.72c4.88-0.75,9.7-1.92,14.38-3.51c4.58-1.56,9.12-4.37,14.04-4.54
			c-0.85-2.05-1.7-4.1-2.55-6.15c-4.2,3.69-0.47,8.94,4.11,9.38c3.33,0.32,7.27-0.81,10.51-1.46c4.18-0.84,10.26-3.88,14.47-2.88
			c-0.88-1.16-1.76-2.31-2.64-3.47c-0.06,0.72-0.12,1.45-0.18,2.17c-0.25,2.98,3.18,4.13,5.42,3.11c2.92-1.33,5.88-2.17,9.02-2.75
			c-1.52-1.16-3.04-2.31-4.56-3.47c-0.06,1.42,0.01,2.04,0.53,3.37c1.05,2.69,3.78,3.35,6.02,1.59c2.02-1.59,4.21-2.83,6.6-3.78
			c-1.36-1.76-2.71-3.53-4.07-5.29c-0.66,1.29-1.32,2.57-1.98,3.86c-1.55,3.03,1.72,6.98,4.93,4.93c6.17-3.95,12.62-7.31,19.44-10
			c-1.36-1.76-2.71-3.53-4.07-5.29c-2.41,3.75-4.82,7.5-7.23,11.25c-2.56,3.99,3.51,7.25,6.22,3.63c1.47-1.96,3.19-3.45,5.25-4.74
			c-1.64-1.64-3.28-3.28-4.93-4.93c-2.34,3.04-4.69,6.08-7.03,9.12c-2.23,2.89,2.06,6.83,4.93,4.93c0.83-0.23,1.67-0.45,2.5-0.68
			c-1.04-1.81-2.07-3.61-3.11-5.42c-1.82,4.21-3.92,8.22-6.36,12.11c-1.93,3.08,1.88,6.73,4.93,4.93c1.55-0.91,3.09-1.83,4.64-2.74
			c-1.64-1.64-3.28-3.28-4.93-4.93c-2.57,4.08-5.45,7.86-8.7,11.43c1.7,1.7,3.39,3.39,5.09,5.09c2-2.47,3.72-4.98,5.15-7.83
			c1.59-3.17-1.66-6.73-4.93-4.93c-2.56,1.41-5.11,2.82-7.67,4.23c1.45,1.88,2.91,3.77,4.36,5.65c1.6-1.82,3.19-3.64,4.79-5.46
			c2.69-3.07-0.65-7.57-4.36-5.65c-5.31,2.74-10.34,5.85-15.16,9.38c1.45,1.88,2.91,3.77,4.36,5.65c3.19-3.52,6.54-6.85,10.09-10.01
			c3.02-2.69-0.96-7.95-4.36-5.65c-6.79,4.58-13.15,9.67-19.1,15.31c1.7,1.7,3.39,3.39,5.09,5.09c4.12-4.48,8.24-8.95,12.36-13.43
			c2.6-2.82,7.11-6.09,6.65-10.37c-0.29-2.71-2.83-4.48-5.42-3.11c-7.73,4.12-14.7,9.3-20.9,15.49c-3.31,3.31,1.63,8.11,5.09,5.09
			c6.96-6.07,13.85-12.21,20.67-18.42c3.08-2.8-0.86-7.63-4.36-5.65c-9.16,5.16-18.51,9.93-28.07,14.31
			c1.45,1.88,2.91,3.77,4.36,5.65c5.52-5.85,11.46-11.23,17.91-16.03c-1.45-1.88-2.91-3.77-4.36-5.65
			c-7.43,6.93-15.48,13.01-24.16,18.29c1.45,1.88,2.91,3.77,4.36,5.65c4.23-4.82,8.87-9.17,14.05-12.97
			c-1.45-1.88-2.91-3.77-4.36-5.65c-4.67,3.65-9.55,7-14.58,10.12c1.45,1.88,2.91,3.77,4.36,5.65c3.6-3.1,7.45-5.68,11.62-7.93
			c-1.45-1.88-2.91-3.77-4.36-5.65c-3.5,2.82-7.31,4.7-11.62,5.93c1.17,2.01,2.34,4.01,3.5,6.02c5.83-5,12.14-9.24,18.91-12.85
			c-1.21-2.07-2.42-4.14-3.63-6.22c-6.65,4.25-13.3,8.51-19.96,12.76c1.45,1.88,2.91,3.77,4.36,5.65c2.69-2.58,5.52-4.9,8.61-7
			c3.91-2.65,0.56-8.04-3.63-6.22c-15.11,6.57-30.21,13.14-45.32,19.71c1.21,2.07,2.42,4.14,3.63,6.22
			c16.92-11.44,34.66-21.54,53.13-30.27c4.2-1.98,0.54-8.15-3.63-6.22c-13.41,6.22-26.82,12.44-40.23,18.67
			c1.21,2.07,2.42,4.14,3.63,6.22c10.02-6.92,20.15-13.88,31.62-18.19c-0.92-2.19-1.85-4.39-2.77-6.58
			c-19.72,10.84-40.03,20.52-60.9,28.94c0.92,2.19,1.85,4.39,2.77,6.58c13.86-7.22,28.07-13.71,42.61-19.43
			c-0.92-2.19-1.85-4.39-2.77-6.58c-10.96,6.01-22.29,11.22-34.01,15.59c1.17,2.01,2.34,4.01,3.5,6.02
			c5.81-4.66,11.88-8.96,18.21-12.88c3.04-1.88,6.14-3.67,9.28-5.37c2.47-1.34,7.36-4.96,10.19-4.46c-0.29-2.19-0.57-4.39-0.86-6.58
			c-12.05,5.23-24.21,10.2-36.47,14.92c1.17,2.01,2.34,4.01,3.5,6.02c5.94-4.86,12.48-8.74,19.5-11.81
			c-1.21-2.07-2.42-4.14-3.63-6.22c-12.87,5.68-25.73,11.36-38.6,17.04c1.21,2.07,2.42,4.14,3.63,6.22
			c12.91-9.27,26.78-17.04,41.51-23.03c-0.92-2.19-1.85-4.39-2.77-6.58c-17.63,8.25-35.25,16.5-52.88,24.75
			c1.21,2.07,2.42,4.14,3.63,6.22c7.57-4.37,15.31-8.41,23.23-12.12c-1.21-2.07-2.42-4.14-3.63-6.22
			c-10.57,5.69-21.41,10.82-32.53,15.32c1.17,2.01,2.34,4.01,3.5,6.02c16.78-13.11,35.09-24.08,54.47-32.87
			c3.67-1.67,1.03-8.09-2.77-6.58c-11.69,4.66-23.37,9.31-35.06,13.97c1.17,2.01,2.34,4.01,3.5,6.02c4.38-4.22,9.16-7.74,14.48-10.7
			c4.06-2.26,0.46-8.37-3.63-6.22c-9.74,5.12-19.14,10.81-28.2,17.05c1.21,2.07,2.42,4.14,3.63,6.22
			c5.02-3.8,10.03-7.59,15.05-11.39c2.67-2.02,2.07-6.71-1.82-6.71c-9.46,0-18.74,1.44-27.76,4.33c0.92,2.19,1.85,4.39,2.77,6.58
			c6.64-3.67,13.75-6.1,21.28-7.08c-1.04-1.81-2.07-3.61-3.11-5.42c-3.93,8.06-13.4,11.57-18.6,18.76
			c-2.36,3.26,2.05,6.19,4.93,4.93c11.04-4.86,21.72-10.43,32.04-16.68c-1.21-2.07-2.42-4.14-3.63-6.22
			c-7.03,5.16-14.32,9.88-21.92,14.17c1.45,1.88,2.91,3.77,4.36,5.65c5.5-5.32,11.26-10.34,17.34-14.98
			c3.57-2.73,0.34-8.83-3.63-6.22c-11.27,7.41-22.65,14.65-34.15,21.7c1.45,1.88,2.91,3.77,4.36,5.65
			c5.34-5.82,10.97-11.33,16.91-16.53c3.06-2.68-0.95-7.91-4.36-5.65c-5.88,3.89-11.76,7.77-17.64,11.66
			c1.45,1.88,2.91,3.77,4.36,5.65c8.96-8.12,18.34-15.72,28.16-22.77c3.73-2.68,0.55-8.35-3.63-6.22
			c-13.12,6.69-25.79,14.16-37.99,22.39c1.21,2.07,2.42,4.14,3.63,6.22c6.9-5.14,13.81-10.29,20.71-15.43
			c-1.45-1.88-2.91-3.77-4.36-5.65c-2.98,2.43-6.07,4.66-9.29,6.75c1.64,1.64,3.28,3.28,4.93,4.93c1.27-2.49,2.71-4.74,4.54-6.85
			c2.67-3.07-0.64-7.59-4.36-5.65c-5.56,2.9-10.82,6.2-15.85,9.96c1.64,1.64,3.28,3.28,4.93,4.93c0.17-0.27,0.34-0.55,0.51-0.82
			c-0.72,0.55-1.43,1.1-2.15,1.65c-0.02-0.04-0.05-0.09-0.07-0.13c-0.72-1.76-1.43-3.53-2.15-5.29c-1.58,3.04-3.16,6.08-4.74,9.12
			c-1.62,3.11,1.71,6.81,4.93,4.93c6.76-3.96,13.63-7.71,20.62-11.24c-1.64-1.64-3.28-3.28-4.93-4.93
			c-1.69,2.69-3.79,4.38-6.62,5.71c1.45,1.88,2.91,3.77,4.36,5.65c4.08-4.72,8.32-9.3,12.71-13.74c2.36-2.38-0.01-7.39-3.5-6.02
			c-7.2,2.83-13.96,6.34-20.33,10.75c1.64,1.64,3.28,3.28,4.93,4.93c1.23-2.62,2.63-5.05,4.44-7.32c2.48-3.1-0.54-7.64-4.36-5.65
			c-3.85,2.01-7.7,4.01-11.54,6.02c1.64,1.64,3.28,3.28,4.93,4.93c0.8-1.78,1.85-3,3.96-3.14c-1.04-1.81-2.07-3.61-3.11-5.42
			c-1.55,2.8-3.31,5.24-5.5,7.57c2.01,1.17,4.01,2.34,6.02,3.5c0.32-1.87,1.94-3.98,4.18-3.03c-0.24-1.88-0.49-3.77-0.73-5.65
			c-2.38,2.08-4.9,2.6-7.95,2.3c0.61,2.24,1.21,4.47,1.82,6.71c2.46-1.26,4.98-1.01,7.1,0.82c1.17-2.01,2.34-4.01,3.5-6.02
			c-3.66-0.93-7.08-2.19-10.44-3.94c-0.61,2.24-1.21,4.47-1.82,6.71c2.74-0.01,5.48-0.02,8.21-0.02
			C309.52,186.36,309.53,179.16,304.88,179.18L304.88,179.18z"/>
	</g>
</g>
<g>
	<g>
		<path class="st4" d="M310.42,243c9.61,0.29,18.97,2.87,28.6,3.24c9.85,0.38,19.74,0.38,29.59,0.42
			c10.11,0.04,20.23-0.08,30.33-0.56c10.06-0.49,20.71-2.78,30.73-1.46c4.58,0.6,4.54-6.6,0-7.2c-10.02-1.32-20.67,0.98-30.73,1.46
			c-10.1,0.49-20.22,0.6-30.33,0.56c-9.86-0.04-19.74-0.04-29.59-0.42c-9.63-0.37-18.98-2.95-28.6-3.24
			C305.79,235.66,305.79,242.86,310.42,243L310.42,243z"/>
	</g>
</g>
<rect x="125.54" y="8.76" class="st5" width="62.36" height="492.11"/>
<rect x="555.87" y="8.76" class="st5" width="62.36" height="492.11"/>
<g>
</g>
<g>
</g>
<g>
</g>
<g>
</g>
<g>
</g>
<g>
</g>
</svg>
