<?xml version="1.0" encoding="utf-8"?>
<!-- Generator: Adobe Illustrator 23.0.3, SVG Export Plug-In . SVG Version: 6.00 Build 0)  -->
<svg version="1.1" id="Layer_1" xmlns="http://www.w3.org/2000/svg" xmlns:xlink="http://www.w3.org/1999/xlink" x="0px" y="0px"
	 viewBox="0 0 792 612" style="enable-background:new 0 0 792 612;" xml:space="preserve">
<style type="text/css">
	.st0{stroke:#000000;stroke-miterlimit:10;}
	.st1{fill:none;stroke:#000000;stroke-miterlimit:10;}
	.st2{fill:#FFFFFF;stroke:#000000;stroke-miterlimit:10;}
	.st3{fill:#2E3192;}
	.st4{fill:#00A651;}
</style>
<rect x="173.61" y="117.51" class="st0" width="411.29" height="249.19"/>
<rect x="8.29" y="8.76" class="st1" width="748.39" height="595.16"/>
<path class="st1" d="M8.29,532.19"/>
<line class="st1" x1="8.29" y1="498.32" x2="756.68" y2="498.32"/>
<rect x="168.77" y="112.03" class="st2" width="411.29" height="249.19"/>
<g>
	<g>
		<path d="M266.05,197.16c15.29-17.31,30.92-35.05,50.63-47.47c2.34-1.48,4.74-2.88,7.19-4.18c3.26-1.74,7.34-4.32,9.26,0.9
			c0.85,2.33,0.11,5.73-0.12,8.07c-0.34,3.42-0.83,6.82-1.4,10.21c-2.14,12.69-5.48,25.13-8.01,37.74
			c-2.3,11.47-4.03,23.23-3.42,34.96c0.36,6.91,2.67,16.18,11.63,14.87c4.33-0.63,7.88-3.84,10.81-6.87
			c4.66-4.82,9.09-9.9,13.53-14.93c8.08-9.15,15.93-18.5,23.56-28.04c17.29-21.62,33.4-44.17,48.28-67.52
			c1.73-2.72-2.59-5.23-4.32-2.52c-13.5,21.19-27.99,41.74-43.51,61.49c-7.73,9.84-15.71,19.48-23.92,28.93
			c-3.6,4.15-7.25,8.25-10.95,12.32c-3.19,3.51-10.26,13.92-16.1,12.13c-5.27-1.62-4.16-12.24-4.09-16.22
			c0.11-6.74,0.87-13.45,2-20.09c2.05-12.07,5.17-23.92,7.64-35.91c1.16-5.61,2.16-11.24,2.87-16.92c0.57-4.57,1.53-9.73,0.04-14.24
			c-3.24-9.81-13.02-4.6-19.19-1.07c-22.09,12.64-39.26,31.96-55.92,50.82C260.39,196.03,263.92,199.58,266.05,197.16L266.05,197.16
			z"/>
	</g>
</g>
<g>
	<g>
		<path d="M236.88,223.83c22.54,9.52,42.94,23.19,60.26,40.48c2.28,2.28,5.82-1.26,3.54-3.54c-17.6-17.57-38.35-31.59-61.27-41.27
			C236.48,218.27,233.93,222.58,236.88,223.83L236.88,223.83z"/>
	</g>
</g>
<g>
	<g>
		<path d="M215.66,174.86c-8.38-8.41-22.61-17.52-19.71-31.33c0.66-3.14-4.16-4.48-4.82-1.33c-3.42,16.24,10.99,26.15,20.99,36.19
			C214.4,180.67,217.94,177.14,215.66,174.86L215.66,174.86z"/>
	</g>
</g>
<g>
	<g>
		<path d="M241.38,160.83c10.72-0.97,21.39-2.33,32.02-4.08c3.17-0.52,1.82-5.34-1.33-4.82c-10.18,1.68-20.41,2.97-30.69,3.9
			C238.2,156.12,238.17,161.12,241.38,160.83L241.38,160.83z"/>
	</g>
</g>
<g>
	<g>
		<path d="M193.8,253.18c-0.49,15.95-0.92,33.22,7.24,47.56c6.06,10.65,17.8,20.55,30.81,19.41c16.33-1.43,11.01-23.51,6.15-32.93
			c-3.96-7.69-9.17-14.76-13.95-21.96c-5.33-8.03-10.67-16.07-16-24.1c-0.5,1.22-1,2.45-1.49,3.67c16.18-3.31,32.87-1.37,47.84,5.63
			c0.64-1.52,1.28-3.05,1.93-4.57c-0.36-0.26-0.73-0.52-1.09-0.77c-0.61,0.8-1.22,1.61-1.84,2.41
			c17.52-6.35,35.52-11.29,53.85-14.64c18.81-3.43,37.65-4.33,56.66-5.75c18.44-1.38,35.39-6.1,52.76-12.25
			c16.92-5.99,33.8-12.13,50.35-19.08c18.39-7.73,36.33-16.49,53.31-27.01c1.96-1.22,1.34-4.89-1.26-4.66
			c-15.52,1.4-29.08,8.98-42.65,16.06c-15.68,8.19-31.37,16.38-47.03,24.61c-31.32,16.46-62.56,33.08-93.57,50.12
			c-2.83,1.55-0.32,5.8,2.52,4.32c32.13-16.76,60-40.59,81.7-69.58c1.53-2.05-1.41-4.68-3.42-3.42
			c-19.24,12.08-36.43,27.04-50.99,44.49c-1.75,2.09,0.43,5.42,3.03,3.93c21.9-12.57,40.9-29.32,56.25-49.37
			c1.07-1.39-0.16-3.18-1.49-3.67c-7.27-2.69-13.77,2.79-19.41,6.71c-7.77,5.39-15.45,10.89-23.06,16.5
			c-14.88,10.98-29.43,22.38-43.67,34.17c-1.76,1.46-0.23,4.21,1.77,4.27c5.17,0.15,9.52-1.51,13.41-4.86
			c1.58-1.36,0.36-4.46-1.77-4.27c-18.01,1.61-35.18,7.01-52.26,12.68c-18.64,6.19-37.28,12.39-55.92,18.58
			c-2.73,0.91-2.15,4.69,0.66,4.91c38.41,3.01,76.54,8.71,114.16,17.06c0.22-1.64,0.44-3.27,0.66-4.91
			c-4.41-0.03-8.82-0.05-13.24-0.08c0,1.67,0,3.33,0,5c38.99-2.19,78.02-3.66,117.06-4.41c3.22-0.06,3.22-4.96,0-5
			c-33.43-0.45-67.43,5.81-96.05,23.82c-1.95,1.23-1.35,4.89,1.26,4.66c31.12-2.71,62.24-5.42,93.36-8.13c3.2-0.28,3.24-4.77,0-5
			c-7.9-0.56-15.54,0.55-22.95,3.36c-2.98,1.13-1.69,5.97,1.33,4.82c7.01-2.66,14.14-3.71,21.62-3.18c0-1.67,0-3.33,0-5
			c-31.12,2.71-62.24,5.42-93.36,8.13c0.42,1.55,0.84,3.11,1.26,4.66c27.92-17.57,60.93-23.58,93.53-23.14c0-1.67,0-3.33,0-5
			c-39.05,0.75-78.07,2.22-117.06,4.41c-3.19,0.18-3.24,4.98,0,5c4.41,0.03,8.82,0.05,13.24,0.08c2.76,0.02,3.47-4.29,0.66-4.91
			c-38.04-8.44-76.63-14.19-115.49-17.24c0.22,1.64,0.44,3.27,0.66,4.91c18.03-5.99,36.06-11.98,54.08-17.97
			c17.23-5.72,34.58-11.49,52.77-13.11c-0.59-1.42-1.18-2.85-1.77-4.27c-2.92,2.52-6.09,3.51-9.88,3.4
			c0.59,1.42,1.18,2.85,1.77,4.27c12.94-10.71,26.14-21.11,39.62-31.14c6.57-4.89,13.21-9.7,19.9-14.42
			c5.3-3.74,14.81-13.11,21.75-10.54c-0.5-1.22-1-2.45-1.49-3.67c-14.81,19.34-33.34,35.45-54.46,47.57
			c1.01,1.31,2.02,2.62,3.03,3.93c14.3-17.12,31.08-31.84,49.98-43.7c-1.14-1.14-2.28-2.28-3.42-3.42
			c-21.18,28.3-48.58,51.45-79.91,67.79c0.84,1.44,1.68,2.88,2.52,4.32c29.86-16.41,59.94-32.43,90.09-48.29
			c15.08-7.93,30.18-15.82,45.28-23.71c14.31-7.47,28.93-16.63,45.36-18.11c-0.42-1.55-0.84-3.11-1.26-4.66
			c-30.64,18.99-64.32,32.02-98.16,44.06c-17.4,6.19-34.39,11.8-52.91,13.37c-18.16,1.54-36.25,2.12-54.28,5.03
			c-20.59,3.33-40.79,8.66-60.39,15.76c-0.93,0.34-1.98,1.28-1.84,2.41c0.37,2.98,1.71,4.95,4.76,5.6c2.61,0.55,4.64-3.3,1.93-4.57
			c-16.26-7.6-34.1-9.73-51.69-6.13c-1.53,0.31-2.35,2.38-1.49,3.67c7.82,11.78,15.68,23.54,23.47,35.35
			c3.77,5.72,7.62,11.63,9.6,18.24c1.05,3.51,1.51,7.15,0.93,10.79c-0.8,5-3.82,7.38-8.77,7.11c-11.71-0.66-21.14-10.7-25.58-20.84
			c-5.62-12.83-5.01-27.46-4.59-41.15C198.9,249.96,193.9,249.97,193.8,253.18L193.8,253.18z"/>
	</g>
</g>
<g>
	<g>
		<path class="st3" d="M212.32,157.11c-6.77,0.02-13.54,0.04-20.31,0.06c-2.42,0.01-3.49,3.47-1.26,4.66
			c9.04,4.84,18.56,8.49,28.54,10.89c2.35,0.56,4.3-2.4,2.43-4.18c-8.48-8.08-21.2-9.65-31.37-3.8c-2.36,1.36-1.02,4.36,1.26,4.66
			c10.26,1.37,20.19-1.99,27.72-9.03c1.12-1.05,0.91-3.22-0.51-3.93c-11.54-5.78-25.82,2.22-27.16,14.97
			c-0.23,2.21,2.86,3.22,4.27,1.77c6.1-6.29,11.24-13.29,15.38-21.02c0.88-1.64-0.21-3.78-2.16-3.76c-9.1,0.09-16.66,5.55-19.89,14
			c-0.83,2.18,1.91,3.74,3.67,2.82c9.51-4.96,19.03-9.92,28.54-14.88c-1.01-1.31-2.02-2.62-3.03-3.93
			c-5.15,6.27-9.41,13-12.76,20.41c-0.92,2.03,1.15,5.01,3.42,3.42c14.79-10.36,30.69-18.91,47.53-25.43
			c-0.81-1.39-1.62-2.79-2.43-4.18c-10.88,10.95-21.36,22.27-31.43,33.97c-1.93,2.24,0.44,5.04,3.03,3.93
			c8.69-3.76,15.68-10.04,20.46-18.2c1.32-2.25-1.26-4.51-3.42-3.42c-17.3,8.71-34.3,17.98-50.99,27.8
			c1.14,1.14,2.28,2.28,3.42,3.42c3.91-7.52,7.82-15.03,11.73-22.55c0.59-1.13,0.37-2.81-0.9-3.42c-3.97-1.93-7.98-0.3-9.49,3.85
			c-0.71,1.95,1.94,4.13,3.67,2.82c12.35-9.32,25.43-17.54,39.18-24.62c-1.01-1.31-2.02-2.62-3.03-3.93
			c-5.22,5.84-9.56,12.21-13.02,19.24c-1.03,2.1,1.17,4.86,3.42,3.42c8.81-5.64,17.23-11.81,25.29-18.47
			c2.16-1.79-0.75-5.63-3.03-3.93c-17.07,12.72-34.13,25.43-51.2,38.15c-2.52,1.88-0.19,6.15,2.52,4.32
			c30.13-20.39,61.5-38.88,93.94-55.36c-0.84-1.44-1.68-2.88-2.52-4.32c-25.1,17.93-49.12,37.31-71.94,58.07
			c-2.08,1.89,0.65,5.5,3.03,3.93c14.54-9.61,29.08-19.22,43.62-28.83c-1.01-1.31-2.02-2.62-3.03-3.93
			c-14.72,12.82-28.66,26.45-41.81,40.88c-1.85,2.03,0.52,5.47,3.03,3.93c28.44-17.42,56.59-35.31,84.44-53.66
			c-0.84-1.44-1.68-2.88-2.52-4.32c-15.84,12.02-30.92,24.96-45.18,38.82c-2.06,2,0.57,5.31,3.03,3.93
			c18.79-10.53,36.87-22.22,54.19-35.03c2.52-1.87,0.29-6.03-2.52-4.32c-25.46,15.51-51.91,29.29-79.22,41.25
			c1.14,1.14,2.28,2.28,3.42,3.42c12.59-18.19,36.54-25.61,46-46.38c0.68-1.5-0.07-4.01-2.16-3.76
			c-20.59,2.5-40.29,8.88-58.37,19.07c-2.43,1.37-0.81,5.47,1.93,4.57c21.22-6.96,43.26-10.44,65.6-10.3
			c-0.42-1.55-0.84-3.11-1.26-4.66c-12.4,9.39-24.81,18.78-37.21,28.16c-2.5,1.89-0.17,6.18,2.52,4.32
			c22.36-15.48,45.64-29.55,69.74-42.16c-0.84-1.44-1.68-2.88-2.52-4.32c-13.97,7.63-26.74,17.1-38.11,28.23
			c-1.67,1.64,0.03,5.14,2.43,4.18c28.9-11.51,57.79-23.02,86.69-34.53c-0.64-1.52-1.28-3.05-1.93-4.57
			c-48.86,22.05-94.83,49.98-136.99,83.06c-1.93,1.51,0.17,5.09,2.43,4.18c28.44-11.44,56.2-24.45,83.16-39.02
			c2.87-1.55,0.35-5.66-2.52-4.32c-19.58,9.13-38.74,19.12-57.43,29.95c-2.83,1.64-0.35,5.66,2.52,4.32
			c43.58-20.39,87.17-40.79,130.75-61.18c2.53-1.19,0.71-5.63-1.93-4.57c-37.34,15.06-72.71,34.51-105.35,58.08
			c-2.63,1.9-0.42,5.62,2.52,4.32c31.81-14.04,63.63-28.09,95.44-42.13c2.95-1.3,0.39-5.57-2.52-4.32
			c-18.29,7.87-35.2,18.3-50.53,30.99c-1.88,1.56,0.14,5.06,2.43,4.18c31.24-12.01,62.21-24.69,92.9-38.03
			c2.14-0.93,1.22-3.95-0.6-4.57c-8.37-2.86-17.59,3.66-24.75,7.32c-9.61,4.91-19.04,10.17-28.27,15.75
			c-17.89,10.82-34.97,22.89-51.24,36c-1.92,1.55,0.15,5.02,2.43,4.18c29.89-11.05,58.91-24.3,86.82-39.69
			c2.42-1.33,0.76-5.62-1.93-4.57c-36.89,14.44-72.97,30.85-108.08,49.19c-2.46,1.28-0.73,5.64,1.93,4.57
			c52.52-21.12,103.72-45.38,153.3-72.7c2.42-1.34,0.78-5.57-1.93-4.57c-29.39,10.82-55.3,28.45-80.9,46.13
			c-2.67,1.84-0.39,5.67,2.52,4.32c33.16-15.38,66.32-30.77,99.48-46.15c-0.84-1.44-1.68-2.88-2.52-4.32
			c-45.66,21.49-89.58,46.51-131.35,74.83c-2.71,1.84-0.39,5.58,2.52,4.32c37.35-16.25,74.7-32.49,112.05-48.74
			c-0.84-1.44-1.68-2.88-2.52-4.32c-8.46,5.63-16.33,11.99-23.61,19.08c-2,1.95,0.6,5.48,3.03,3.93
			c16.45-10.52,32.89-21.03,49.34-31.55c2.71-1.73,0.33-5.82-2.52-4.32c-17.6,9.28-34.01,20.53-49.06,33.55
			c-1.95,1.68,0.13,4.8,2.43,4.18c12.48-3.39,23.82-9.34,33.76-17.6c2.26-1.88-0.62-5.2-3.03-3.93
			c-11.18,5.91-21.53,13.08-31.05,21.4c-2.15,1.88,0.63,5.4,3.03,3.93c13.31-8.19,26.09-17.15,38.37-26.81
			c2.21-1.74-0.73-5.59-3.03-3.93c-13.62,9.86-26.03,21.14-37.05,33.84c-1.78,2.06,0.48,5.47,3.03,3.93
			c22.29-13.45,43.07-29.2,62.05-47.01c2.02-1.9-0.71-5.64-3.03-3.93c-16.77,12.38-32.35,26.2-46.59,41.43
			c-2.02,2.16,0.5,5.08,3.03,3.93c23.64-10.79,46.79-22.59,69.4-35.38c-1.01-1.31-2.02-2.62-3.03-3.93
			c-16.87,15.36-33.91,30.54-51.12,45.54c1.18,1.18,2.36,2.36,3.54,3.54c14.51-14.68,31.09-26.93,49.36-36.51
			c-1.22-0.5-2.45-1-3.67-1.49c1.12,3.95-7.63,10.86-10.04,13.47c-3.82,4.15-7.64,8.3-11.46,12.46
			c-7.42,8.06-14.84,16.12-22.26,24.18c-2.18,2.36,1.2,5.77,3.54,3.54c13.92-13.3,28.91-25.35,44.91-36.06
			c-1.01-1.31-2.02-2.62-3.03-3.93c-8.8,7.76-17.11,16.01-24.94,24.75c-1.78,1.98,0.62,5.71,3.03,3.93
			c11.85-8.77,24.36-16.51,37.49-23.19c-1.01-1.31-2.02-2.62-3.03-3.93c-3.95,4.5-7.89,9-11.84,13.5c-1.84,2.1,0.46,5.34,3.03,3.93
			c6.32-3.49,12.64-6.98,18.95-10.46c-1.14-1.14-2.28-2.28-3.42-3.42c-2.96,6.15-6.55,11.82-10.94,17.06
			c-2.04,2.43,1.32,5.93,3.54,3.54c8.73-9.44,16.52-19.64,23.3-30.56c1.33-2.14-1.3-4.67-3.42-3.42c-3.82,2.26-7.65,4.52-11.47,6.78
			c1.14,1.14,2.28,2.28,3.42,3.42c6.06-9.54,11.3-19.52,15.72-29.94c0.56-1.31,0.28-3.39-1.49-3.67c-5.01-0.81-9.2,0.31-13.11,3.54
			c1.31,1.01,2.62,2.02,3.93,3.03c5.8-7.51,11.59-15.02,17.39-22.54c1.59-2.06-1.42-4.62-3.42-3.42
			c-6.81,4.09-12.46,9.37-17.08,15.82c1.44,0.84,2.88,1.68,4.32,2.52c5.96-9.27,11.91-18.54,17.87-27.81
			c1.11-1.73-0.77-4.47-2.82-3.67c-17.78,6.91-34.76,15.52-50.78,25.87c1.14,1.14,2.28,2.28,3.42,3.42c1.63-3.18,3.27-6.37,4.9-9.55
			c0.9-1.76-0.63-4.5-2.82-3.67c-7.81,2.94-14.87,7-21.34,12.27c1.31,0.17,2.62,0.34,3.93,0.51c-0.24-1.34-0.49-2.69-0.73-4.03
			c0.3-1.97-1.07-3.41-3.08-3.08c-8.75,1.48-17.03,4.15-25.04,7.95c1.25,0.72,2.51,1.44,3.76,2.16c0.15-1.79,0.29-3.58,0.44-5.37
			c0.09-1.13-0.85-2.08-1.84-2.41c-10.38-3.53-22.23,2.59-32.29,5.02c-5.85,1.41-11.74,2.62-17.67,3.62
			c-3.52,0.59-7.06,1.18-10.61,1.56c-0.94,0.1-1.88,0.23-2.83,0.24c-0.67,0-6.85-1.74-4-3.46c2.12-1.28,1.23-4.64-1.26-4.66
			c-8.94-0.06-16.77,3.44-24.88,6.79c-7.91,3.27-15.99,6.07-24.24,8.36c-8.24,2.28-16.62,4.06-25.08,5.31
			c-1.99,0.29-27.24,3.7-26.36-0.14c0.43-1.87-1.18-3.54-3.08-3.08c-18.99,4.69-37.11,13.34-55.19,20.64
			c-18.68,7.54-37.35,15.07-56.03,22.61c0.81,1.39,1.62,2.79,2.43,4.18c10.51-9.21,21.01-18.42,31.52-27.63
			c-1.18-1.18-2.36-2.36-3.54-3.54c-15.33,14.13-29.21,29.65-41.63,46.39c-1.54,2.07,1.4,4.64,3.42,3.42
			c9.85-5.94,19.71-11.89,29.56-17.83c-1.01-1.31-2.02-2.62-3.03-3.93c-7.57,8.05-13.37,17.24-17.48,27.5
			c-0.82,2.05,1.94,3.93,3.67,2.82c28.27-18.11,56.91-36.34,89.15-46.52c-0.94-1.22-1.88-2.45-2.82-3.67
			c-11.19,22.14-34.34,34.49-48.53,54.37c-1.78,2.49,1.9,4.67,3.93,3.03c32.71-26.38,67.37-50.22,103.66-71.4
			c-1.01-1.31-2.02-2.62-3.03-3.93c-21.5,17.48-41.97,36.16-61.33,55.98c-1.91,1.95,0.67,5.67,3.03,3.93
			c17.15-12.65,34.67-24.8,52.52-36.43c-0.84-1.44-1.68-2.88-2.52-4.32c-10.5,7.15-20.09,15.41-28.67,24.78
			c-1.83,2,0.56,5.57,3.03,3.93c10.95-7.29,21.9-14.58,32.85-21.87c-1.01-1.31-2.02-2.62-3.03-3.93
			c-12.84,13.97-24.83,28.68-35.95,44.06c-1.6,2.21,1.4,4.4,3.42,3.42c13.01-6.29,26.02-12.58,39.03-18.87
			c-1.01-1.31-2.02-2.62-3.03-3.93c-7.18,6.03-14.36,12.07-21.53,18.1c-1.91,1.61,0.13,4.95,2.43,4.18
			c3.96-1.32,7.56-3.08,10.98-5.48c1.59-1.11,1.62-3.21,0-4.32c-3.41-2.32-7.1-1.26-10.85-0.61c-0.83,0.14-2.81,0.71-3.61,0.25
			c-1.79-1.01-1.26-3.89-1.08-5.45c0.42-3.66,1.36-7.26,2.36-10.8c3.41-12.02,8.31-24.01,4.7-36.57c-0.35-1.23-1.79-2.2-3.08-1.75
			c-20.46,7.26-39.86,17.04-57.83,29.23c1.14,1.14,2.28,2.28,3.42,3.42c8.5-11.24,17.83-21.77,27.9-31.62
			c1.79-1.75-0.04-4.85-2.43-4.18c-33.44,9.38-62.79,28.28-91.58,47.11c0.84,1.44,1.68,2.88,2.52,4.32
			c32.58-23.5,65.83-46.05,99.72-67.62c-0.84-1.44-1.68-2.88-2.52-4.32c-14.39,9.45-28.29,19.63-41.6,30.56
			c-6.51,5.34-12.9,10.84-19.08,16.55c-5.6,5.18-10.81,10.69-13.94,17.75c-0.9,2.03,1.13,5,3.42,3.42c3.74-2.58,6.15-5.9,7.23-10.34
			c0.37-1.51-0.74-3.24-2.41-3.16c-7.32,0.32-14.4,1.63-21.33,4c1.03,1.03,2.05,2.05,3.08,3.08c2.76-18.97,20.38-30.38,30.2-45.59
			c1.69-2.62,3.97-6.11,1.81-9.14c-1.66-2.33-4.8-2.52-7.39-2.08c-5.49,0.94-10.89,3.56-16.32,4.96c-2.16,0.56-5.96,2.32-8.1,1.86
			c-3.63-0.77,0.15-6.72,1.14-9.02c0.64-1.5,0.19-3.15-1.49-3.67c-4.92-1.53-9.84-2.18-14.98-1.98c0.8,1.05,1.61,2.11,2.41,3.16
			c1.18-4.41,2.35-8.83,3.53-13.24c0.27-1-0.16-2.35-1.15-2.82c-2.72-1.31-5.2-1.6-8.05-0.45c0.94,1.22,1.88,2.45,2.82,3.67
			c2.49-3.33,1.35-7.82-1.77-10.38c-4.54-3.73-10.52-1.47-15.26,0.54c1.22,0.94,2.45,1.88,3.67,2.82c0.84-2.03,2.14-3.02,4.01-3.88
			c2.95-1.37,0.38-5.54-2.52-4.32c-4.03,1.71-6.59,4.7-8.11,8.75c-0.51,1.34,0.58,2.64,1.75,3.08c4.52,1.7,9.03,1.71,13.57,0.04
			c-1.03-1.03-2.05-2.05-3.08-3.08c-1.42,6.01-3.13,11.92-5.12,17.77c-0.57,1.68,1.32,3.8,3.08,3.08c3.96-1.62,15-5.44,13.89,3.25
			c-0.31,2.43-2.51,5.24-3.6,7.42c-1.07,2.14-2.06,4.31-2.99,6.51c-3.59,8.49-5.98,17.34-7.3,26.45c-0.27,1.84,1.71,4.31,3.67,2.82
			c9.72-7.38,20.45-12.97,32.11-16.6c-0.81-1.39-1.62-2.79-2.43-4.18c-10.51,12.24-21.02,24.49-31.53,36.73
			c-2.08,2.42,1.19,5.8,3.54,3.54c12.6-12.13,25.85-24.53,35.17-39.49c2.94-4.73,5.59-11.96,0.36-16.18
			c-3.51-2.83-8.67-2.74-11.1,1.31c1.55,0.42,3.11,0.84,4.66,1.26c0.25-6.69,0.11-13.36-0.41-20.03c-0.12-1.59-1.5-2.88-3.16-2.41
			c-4.82,1.35-8.51,4.13-11.2,8.35c-1.52,2.39,1.98,5.11,3.93,3.03c5.64-6.03,11.47-11.88,17.53-17.5c2.92-2.7,5.88-5.36,8.89-7.95
			c2.63-2.27,6.6-4.56,8.73-7.25c-1.34,1.69-0.53,4.15,1.77,4.27c14.37,0.73,28.33-2.51,42.19-5.92c-0.94-1.22-1.88-2.45-2.82-3.67
			c-4.93,8.27-9.86,16.54-14.79,24.81c-0.88,1.48,0.01,3.13,1.49,3.67c9.55,3.48,20.72-2.1,29.81-4.89c5.5-1.69,11-3.38,16.51-5.07
			c2.62-0.8,15.85-6.64,17.6-3.57c0.13-1.01,0.26-2.02,0.39-3.03c-23.4,22.76-43.94,48.28-61.17,76.01
			c-1.03,1.65,0.32,3.72,2.16,3.76c13.83,0.34,27.11-3.34,40.03-7.96c14.35-5.13,28.57-10.67,42.85-16.02
			c14.17-5.31,28.33-10.63,42.5-15.94c7.08-2.66,14.17-5.31,21.25-7.97c6.83-2.56,15.5-7.57,22.85-4.96
			c-0.37-1.39-0.74-2.79-1.1-4.18c-10.1,11.15-20.21,22.31-30.31,33.46c-1.62,1.78-0.07,4.91,2.43,4.18
			c5.54-1.62,42.42-13.9,43.61-5.85c0.21-0.81,0.43-1.62,0.64-2.43c-10.51,8.8-21.22,17.51-31.32,26.79
			c-2.81,2.58-4.73,5.24-4.31,9.2c0.3,2.84,4.8,9.72,2.6,12.08c-1.88,2.01,0.54,5.49,3.03,3.93c18.43-11.55,37.96-21.14,58.39-28.61
			c-1.05-0.8-2.11-1.61-3.16-2.41c-0.36,3.64-2.15,6.42-5.18,8.39c1.01,1.31,2.02,2.62,3.03,3.93c6.5-5.57,13.8-9.78,21.87-12.63
			c-0.94-1.22-1.88-2.45-2.82-3.67c-4.6,6.46-9.71,12.47-15.31,18.08c-1.24,1.24-0.8,3.83,1.1,4.18c3.8,0.69,6.42-1.47,9.99-1.5
			c6.25-0.05,0.71,10.28,0.91,13.79c0.31,5.53,6.32,9.28,10.87,5.52c2.48-2.05-1.07-5.57-3.54-3.54c-2.19-1.7-2.77-3.59-1.76-5.69
			c0.39-1.15,0.77-2.3,1.13-3.46c0.25-1.07,0.49-2.16,0.53-3.26c0.07-2.22-0.43-4.52-1.92-6.23c-4.44-5.14-9.78,0.47-14.88-0.46
			c0.37,1.39,0.74,2.79,1.1,4.18c5.91-5.92,11.25-12.28,16.1-19.09c1.24-1.75-0.83-4.38-2.82-3.67c-8.9,3.15-16.91,7.78-24.08,13.92
			c-2.15,1.84,0.66,5.47,3.03,3.93c4.62-3,7.12-7.25,7.66-12.71c0.15-1.55-1.73-2.93-3.16-2.41c-20.84,7.62-40.78,17.34-59.58,29.11
			c1.01,1.31,2.02,2.62,3.03,3.93c2.25-2.41,2.48-5.05,1.58-8.17c-1.5-5.18-4.67-8.61,0.13-13.12c4.76-4.47,9.88-8.6,14.84-12.84
			c5.11-4.37,11.11-8.44,15.73-13.32c2.15-2.27,1.6-5.12-0.79-7.23c-2.69-2.37-6.76-2.66-10.18-2.31
			c-12.53,1.28-25.34,5.31-37.39,8.84c0.81,1.39,1.62,2.79,2.43,4.18c10.1-11.15,20.21-22.31,30.31-33.46
			c1.32-1.45,0.7-3.54-1.1-4.18c-6.26-2.22-12.18-0.03-18.12,2.19c-7.39,2.76-14.78,5.55-22.17,8.32
			c-14.48,5.43-28.95,10.86-43.43,16.29c-14.39,5.4-28.77,10.84-43.18,16.19c-14.17,5.26-28.62,10.06-43.91,9.69
			c0.72,1.25,1.44,2.51,2.16,3.76c17.02-27.38,37.28-52.52,60.39-75c0.8-0.78,0.93-2.07,0.39-3.03c-1.75-3.07-4.89-3.66-8.21-3.16
			c-6.28,0.94-12.64,3.7-18.71,5.56c-6.72,2.06-13.45,4.13-20.17,6.19c-6.33,1.94-13.24,5.04-19.82,2.64c0.5,1.22,1,2.45,1.49,3.67
			c4.93-8.27,9.86-16.54,14.79-24.81c1.14-1.92-0.74-4.18-2.82-3.67c-13.44,3.3-26.92,6.45-40.86,5.74
			c0.59,1.42,1.18,2.85,1.77,4.27c1.96-2.47,2-5.93-0.82-7.93c-4.08-2.88-7.91,2.15-10.78,4.54c-10.81,9.02-21,18.74-30.62,29.01
			c1.31,1.01,2.62,2.02,3.93,3.03c1.99-3.13,4.63-5.05,8.21-6.06c-1.05-0.8-2.11-1.61-3.16-2.41c0.52,6.68,0.66,13.34,0.41,20.03
			c-0.09,2.53,3.42,3.33,4.66,1.26c0.59-0.98,2.36-0.69,3.16-0.29c2.24,1.14,1.44,4.66,0.81,6.5c-0.82,2.38-2.42,4.5-3.84,6.55
			c-3.25,4.68-6.83,9.11-10.6,13.37c-6.87,7.77-14.35,14.97-21.81,22.16c1.18,1.18,2.36,2.36,3.54,3.54
			c10.51-12.24,21.02-24.49,31.54-36.73c1.53-1.78,0.12-4.97-2.43-4.18c-12.06,3.76-23.25,9.47-33.31,17.11
			c1.22,0.94,2.45,1.88,3.67,2.82c1.03-7.11,2.68-14.08,5.1-20.85c1.34-3.73,2.9-7.38,4.68-10.92c1.41-2.81,3.31-5.54,4.11-8.62
			c1.16-4.47-0.85-8.61-4.9-10.68c-4.93-2.53-10.38-0.67-15.14,1.28c1.03,1.03,2.05,2.05,3.08,3.08c1.99-5.85,3.69-11.76,5.12-17.77
			c0.41-1.71-1.19-3.77-3.08-3.08c-3.73,1.37-7.18,1.36-10.91-0.04c0.58,1.03,1.16,2.05,1.75,3.08c1.08-2.87,3.09-4.61,5.82-5.76
			c-0.84-1.44-1.68-2.88-2.52-4.32c-3.14,1.45-5.01,3.74-6.31,6.87c-0.95,2.29,1.96,3.55,3.67,2.82c2.35-1,4.17-1.63,6.76-1.53
			c1.95,0.08,5.82,1.35,3.43,4.53c-1.26,1.68,0.86,4.47,2.82,3.67c1.31-0.76,2.7-0.78,4.19-0.06c-0.38-0.94-0.77-1.88-1.15-2.82
			c-1.18,4.41-2.35,8.83-3.53,13.24c-0.4,1.52,0.77,3.23,2.41,3.16c4.73-0.18,9.13,0.4,13.65,1.8c-0.5-1.22-1-2.45-1.49-3.67
			c-1.51,3.52-5.66,9.43-4.35,13.45c0.96,2.96,4.14,3.49,6.82,3.25c5.77-0.52,11.74-2.52,17.25-4.23c2.51-0.78,5.45-2.41,8.07-2.7
			c4.12-0.45,1.61,2.88,0.3,4.81c-10.18,15.03-27.14,26.51-29.92,45.61c-0.25,1.72,1.07,3.76,3.08,3.08
			c6.52-2.23,13.11-3.51,20-3.82c-0.8-1.05-1.61-2.11-2.41-3.16c-0.76,3.16-2.24,5.5-4.93,7.35c1.14,1.14,2.28,2.28,3.42,3.42
			c3.19-7.19,8.6-12.58,14.33-17.81c5.83-5.32,11.81-10.48,17.91-15.48c12.98-10.66,26.55-20.56,40.59-29.78
			c2.67-1.76,0.21-6.06-2.52-4.32c-33.89,21.57-67.14,44.12-99.72,67.62c-2.56,1.85-0.21,6.11,2.52,4.32
			c28.43-18.58,57.37-37.34,90.39-46.6c-0.81-1.39-1.62-2.79-2.43-4.18c-10.38,10.15-19.93,21.05-28.68,32.63
			c-1.51,2,1.43,4.77,3.42,3.42c17.61-11.95,36.57-21.61,56.63-28.73c-1.03-0.58-2.05-1.16-3.08-1.75
			c4.34,15.12-4.98,29.66-7.03,44.4c-0.59,4.25-1.03,9.62,3.71,11.61c4.49,1.89,10.14-2.53,14.09,0.16c0-1.44,0-2.88,0-4.32
			c-3.07,2.15-6.21,3.78-9.79,4.97c0.81,1.39,1.62,2.79,2.43,4.18c7.18-6.03,14.36-12.07,21.53-18.1c2.3-1.93-0.63-5.09-3.03-3.93
			c-13.01,6.29-26.02,12.58-39.03,18.87c1.14,1.14,2.28,2.28,3.42,3.42c10.87-15.03,22.61-29.39,35.16-43.04
			c1.84-2-0.56-5.57-3.03-3.93c-10.95,7.29-21.9,14.58-32.85,21.87c1.01,1.31,2.02,2.62,3.03,3.93c8.3-9.06,17.51-17.08,27.66-24
			c2.63-1.8,0.19-6.09-2.52-4.32c-17.86,11.64-35.37,23.78-52.52,36.43c1.01,1.31,2.02,2.62,3.03,3.93
			c19.36-19.82,39.83-38.51,61.33-55.98c2.24-1.82-0.63-5.32-3.03-3.93c-36.66,21.39-71.63,45.53-104.67,72.18
			c1.31,1.01,2.62,2.02,3.93,3.03c14.22-19.92,37.28-32.12,48.53-54.37c0.93-1.84-0.62-4.37-2.82-3.67
			c-32.67,10.32-61.71,28.67-90.35,47.03c1.22,0.94,2.45,1.88,3.67,2.82c3.78-9.42,9.25-17.9,16.2-25.29
			c1.9-2.02-0.53-5.43-3.03-3.93c-9.85,5.94-19.71,11.89-29.56,17.83c1.14,1.14,2.28,2.28,3.42,3.42
			c12.16-16.39,25.84-31.54,40.85-45.38c2.38-2.2-1.13-5.64-3.54-3.54c-10.51,9.21-21.01,18.42-31.52,27.63
			c-1.81,1.58,0.11,5.12,2.43,4.18c18.68-7.54,37.35-15.07,56.03-22.61c18.09-7.3,36.21-15.95,55.19-20.64
			c-1.03-1.03-2.05-2.05-3.08-3.08c-1.47,6.45,5.8,8.54,10.88,8.4c10.56-0.29,21.21-1.78,31.56-3.82
			c10.48-2.07,20.81-4.95,30.85-8.62c10.4-3.8,20.74-10.02,32.08-9.94c-0.42-1.55-0.84-3.11-1.26-4.66
			c-3.57,2.14-4.01,6.91-1.28,10.03c4,4.57,11.83,2.4,16.94,1.65c8.77-1.28,17.48-3.01,26.07-5.19c8.26-2.1,18.4-7.22,26.87-4.34
			c-0.61-0.8-1.22-1.61-1.84-2.41c-0.15,1.79-0.29,3.58-0.44,5.37c-0.17,2.05,2.21,2.9,3.76,2.16c7.61-3.61,15.55-6.05,23.84-7.45
			c-1.03-1.03-2.05-2.05-3.08-3.08c-0.46,3.03-0.18,5.16,1.24,7.89c0.81,1.55,2.75,1.46,3.93,0.51c5.77-4.7,12.17-8.36,19.13-10.98
			c-0.94-1.22-1.88-2.45-2.82-3.67c-1.63,3.18-3.27,6.37-4.9,9.55c-1.08,2.1,1.2,4.86,3.42,3.42
			c15.65-10.11,32.22-18.62,49.59-25.37c-0.94-1.22-1.88-2.45-2.82-3.67c-5.96,9.27-11.91,18.54-17.87,27.81
			c-1.77,2.75,2.48,5.1,4.32,2.52c4.12-5.75,9.22-10.39,15.28-14.03c-1.14-1.14-2.28-2.28-3.42-3.42
			c-5.8,7.51-11.59,15.02-17.39,22.54c-1.85,2.4,1.91,4.69,3.93,3.03c2.41-2,5.15-2.76,8.25-2.26c-0.5-1.22-1-2.45-1.49-3.67
			c-4.41,10.41-9.65,20.39-15.72,29.94c-1.36,2.14,1.31,4.67,3.42,3.42c3.82-2.26,7.65-4.52,11.47-6.78
			c-1.14-1.14-2.28-2.28-3.42-3.42c-6.57,10.57-14.07,20.42-22.52,29.55c1.18,1.18,2.36,2.36,3.54,3.54
			c4.66-5.56,8.57-11.53,11.72-18.07c1.06-2.2-1.13-4.69-3.42-3.42c-6.32,3.49-12.64,6.98-18.95,10.46
			c1.01,1.31,2.02,2.62,3.03,3.93c3.95-4.5,7.89-9,11.84-13.5c1.88-2.14-0.45-5.24-3.03-3.93c-13.14,6.68-25.65,14.42-37.49,23.19
			c1.01,1.31,2.02,2.62,3.03,3.93c7.83-8.74,16.14-16.99,24.94-24.75c2.11-1.86-0.66-5.51-3.03-3.93
			c-16.34,10.95-31.7,23.25-45.92,36.84c1.18,1.18,2.36,2.36,3.54,3.54c9.22-10.01,18.43-20.03,27.65-30.04
			c4.5-4.88,9.04-9.73,13.49-14.65c2.72-3.01,5.09-6.07,3.91-10.28c-0.45-1.61-2.25-2.24-3.67-1.49
			c-18.63,9.77-35.58,22.34-50.37,37.3c-2.29,2.31,1.13,5.63,3.54,3.54c17.2-14.99,34.24-30.17,51.12-45.54
			c2.13-1.94-0.6-5.3-3.03-3.93c-22.62,12.79-45.77,24.59-69.4,35.38c1.01,1.31,2.02,2.62,3.03,3.93
			c13.94-14.91,29.16-28.52,45.58-40.64c-1.01-1.31-2.02-2.62-3.03-3.93c-18.68,17.53-39.1,33-61.04,46.23
			c1.01,1.31,2.02,2.62,3.03,3.93c10.73-12.37,22.76-23.46,36.03-33.06c-1.01-1.31-2.02-2.62-3.03-3.93
			c-11.94,9.4-24.41,18.07-37.35,26.03c1.01,1.31,2.02,2.62,3.03,3.93c9.2-8.05,19.23-14.9,30.04-20.62
			c-1.01-1.31-2.02-2.62-3.03-3.93c-9.27,7.7-19.93,13.16-31.56,16.32c0.81,1.39,1.62,2.79,2.43,4.18
			c14.73-12.74,30.82-23.68,48.04-32.77c-0.84-1.44-1.68-2.88-2.52-4.32c-16.45,10.52-32.89,21.03-49.34,31.55
			c1.01,1.31,2.02,2.62,3.03,3.93c6.97-6.8,14.49-12.9,22.59-18.3c2.73-1.82,0.38-5.58-2.52-4.32
			c-37.35,16.25-74.7,32.49-112.05,48.74c0.84,1.44,1.68,2.88,2.52,4.32c41.77-28.32,85.69-53.35,131.35-74.83
			c2.91-1.37,0.38-5.66-2.52-4.32c-33.16,15.38-66.32,30.77-99.48,46.15c0.84,1.44,1.68,2.88,2.52,4.32
			c25.21-17.42,50.76-34.97,79.71-45.63c-0.64-1.52-1.28-3.05-1.93-4.57c-49.2,27.11-99.99,51.24-152.1,72.19
			c0.64,1.52,1.28,3.05,1.93,4.57c34.73-18.14,70.4-34.4,106.89-48.69c-0.64-1.52-1.28-3.05-1.93-4.57
			c-27.54,15.18-56.14,28.28-85.63,39.18c0.81,1.39,1.62,2.79,2.43,4.18c15-12.09,30.74-23.25,47.16-33.35
			c7.91-4.87,15.97-9.5,24.17-13.87c4.23-2.26,8.5-4.45,12.79-6.57c4.65-2.3,9.94-5.82,15.28-3.99c-0.2-1.52-0.4-3.05-0.6-4.57
			c-30.3,13.17-60.87,25.68-91.71,37.53c0.81,1.39,1.62,2.79,2.43,4.18c14.99-12.41,31.65-22.52,49.52-30.21
			c-0.84-1.44-1.68-2.88-2.52-4.32c-31.81,14.04-63.63,28.09-95.44,42.13c0.84,1.44,1.68,2.88,2.52,4.32
			c32.27-23.3,67.24-42.68,104.16-57.58c-0.64-1.52-1.28-3.05-1.93-4.57c-43.58,20.39-87.17,40.79-130.75,61.18
			c0.84,1.44,1.68,2.88,2.52,4.32c18.69-10.83,37.85-20.83,57.43-29.95c-0.84-1.44-1.68-2.88-2.52-4.32
			c-26.58,14.37-53.93,27.24-81.97,38.52c0.81,1.39,1.62,2.79,2.43,4.18c41.81-32.8,87.55-60.42,135.98-82.28
			c2.55-1.15,0.71-5.62-1.93-4.57c-28.9,11.51-57.79,23.02-86.69,34.53c0.81,1.39,1.62,2.79,2.43,4.18
			c11.08-10.85,23.49-20.02,37.1-27.45c2.83-1.55,0.32-5.81-2.52-4.32c-24.09,12.61-47.37,26.68-69.74,42.16
			c0.84,1.44,1.68,2.88,2.52,4.32c12.4-9.39,24.81-18.78,37.21-28.16c1.87-1.41,1.43-4.64-1.26-4.66
			c-22.75-0.14-45.31,3.38-66.93,10.48c0.64,1.52,1.28,3.05,1.93,4.57c17.26-9.73,36.16-16,55.84-18.39
			c-0.72-1.25-1.44-2.51-2.16-3.76c-9.35,20.53-33.45,28.25-46,46.38c-1.59,2.29,1.39,4.31,3.42,3.42
			c27.31-11.96,53.76-25.74,79.22-41.25c-0.84-1.44-1.68-2.88-2.52-4.32c-17.32,12.8-35.4,24.49-54.19,35.03
			c1.01,1.31,2.02,2.62,3.03,3.93c13.95-13.56,28.67-26.28,44.17-38.04c2.49-1.89,0.23-6.13-2.52-4.32
			c-27.85,18.34-56,36.23-84.44,53.66c1.01,1.31,2.02,2.62,3.03,3.93c13.14-14.43,27.09-28.06,41.81-40.88
			c2.13-1.85-0.66-5.49-3.03-3.93c-14.54,9.61-29.08,19.22-43.62,28.83c1.01,1.31,2.02,2.62,3.03,3.93
			c22.51-20.47,46.17-39.6,70.93-57.29c2.6-1.86,0.38-5.79-2.52-4.32c-32.44,16.48-63.81,34.97-93.94,55.36
			c0.84,1.44,1.68,2.88,2.52,4.32c17.07-12.72,34.13-25.43,51.2-38.15c-1.01-1.31-2.02-2.62-3.03-3.93
			c-7.73,6.4-15.82,12.28-24.27,17.69c1.14,1.14,2.28,2.28,3.42,3.42c3.27-6.64,7.3-12.7,12.24-18.22c1.9-2.12-0.47-5.25-3.03-3.93
			c-13.75,7.09-26.83,15.3-39.18,24.62c1.22,0.94,2.45,1.88,3.67,2.82c0.48-1.06,1.19-1.35,2.14-0.86c-0.3-1.14-0.6-2.28-0.9-3.42
			c-3.91,7.52-7.82,15.03-11.73,22.55c-1.12,2.16,1.18,4.74,3.42,3.42c16.69-9.82,33.69-19.09,50.99-27.8
			c-1.14-1.14-2.28-2.28-3.42-3.42c-4.4,7.51-10.7,12.96-18.67,16.41c1.01,1.31,2.02,2.62,3.03,3.93
			c10.07-11.7,20.55-23.02,31.43-33.97c1.65-1.66-0.01-5.12-2.43-4.18c-17.25,6.68-33.57,15.32-48.73,25.94
			c1.14,1.14,2.28,2.28,3.42,3.42c3.16-6.99,7.11-13.46,11.98-19.39c1.77-2.15-0.4-5.3-3.03-3.93c-9.51,4.96-19.03,9.92-28.54,14.88
			c1.22,0.94,2.45,1.88,3.67,2.82c2.43-6.35,8.33-10.26,15.07-10.33c-0.72-1.25-1.44-2.51-2.16-3.76c-3.95,7.37-8.78,14-14.6,20.01
			c1.42,0.59,2.85,1.18,4.27,1.77c0.94-8.91,11.7-14.63,19.64-10.65c-0.17-1.31-0.34-2.62-0.51-3.93
			c-6.67,6.22-15.2,8.76-24.19,7.56c0.42,1.55,0.84,3.11,1.26,4.66c8.19-4.71,18.46-3.51,25.31,3.02c0.81-1.39,1.62-2.79,2.43-4.18
			c-9.57-2.3-18.67-5.74-27.35-10.38c-0.42,1.55-0.84,3.11-1.26,4.66c6.77-0.02,13.54-0.04,20.31-0.06
			C215.54,162.1,215.55,157.1,212.32,157.11L212.32,157.11z"/>
	</g>
</g>
<g>
	<g>
		<path class="st4" d="M226.02,344.61c5.7,0.1,11.35,0.61,17,1.35c-3.99-0.54-7.98-1.07-11.96-1.61
			c20.84,2.92,41.42,7.18,62.51,8.14c18.41,0.83,36.89,0.81,55.31,1.01c36.29,0.4,72.62,0.29,108.86-1.93
			c10.21-0.63,20.4-1.42,30.58-2.41c10.23-0.99,20.41-2.05,30.66-0.8c-3.99-0.54-7.98-1.07-11.96-1.61c0.63,0.1,1.26,0.2,1.9,0.29
			c5.98,1.88,11.96,2.14,17.94,0.8c5.99-0.27,11.57-2.05,16.73-5.34c9.33-5.46,18.24-16.17,20.68-26.89
			c2.62-11.52,2.06-24.45-4.54-34.68c-5.93-9.19-15.59-18.93-26.89-20.68c-14.09-2.18-26.62-2.84-40.69-1.48
			c-10.47,1.01-20.95,1.93-31.45,2.61c-20.74,1.34-41.52,1.97-62.3,2.2c-20.8,0.23-41.6,0.05-62.4-0.24
			c-20.96-0.29-42.11,0.1-62.94-2.58c3.99,0.54,7.98,1.07,11.96,1.61c-19.63-2.71-39.13-7.4-59.01-7.75
			c-11.41-0.2-23.8,5.16-31.82,13.18c-7.8,7.8-13.68,20.61-13.18,31.82C182.12,324.34,200.78,344.17,226.02,344.61L226.02,344.61z"
			/>
	</g>
</g>
<g>
</g>
<g>
</g>
<g>
</g>
<g>
</g>
<g>
</g>
<g>
</g>
</svg>
