<?xml version="1.0" encoding="utf-8"?>
<!-- Generator: Adobe Illustrator 15.0.0, SVG Export Plug-In . SVG Version: 6.00 Build 0)  -->
<!DOCTYPE svg PUBLIC "-//W3C//DTD SVG 1.1//EN" "http://www.w3.org/Graphics/SVG/1.1/DTD/svg11.dtd">
<svg version="1.1" id="Layer_1" xmlns="http://www.w3.org/2000/svg" xmlns:xlink="http://www.w3.org/1999/xlink" x="0px" y="0px"
	 width="393.311px" height="115.081px" viewBox="0 0 393.311 115.081" enable-background="new 0 0 393.311 115.081"
	 xml:space="preserve">
<g>
	<path fill="#ECF0F9" d="M448.546,34.722c-1.188-0.409-2.396-0.614-3.625-0.614c-1.966,0-3.728,0.451-5.283,1.351
		c-1.557,0.902-2.868,2.11-3.932,3.625c-1.065,1.517-1.885,3.317-2.457,5.406c-0.574,2.088-0.86,4.321-0.86,6.695v13.516
		c0,5.487,0.019,9.686,0.062,12.592c0.04,2.908,0.184,5.264,0.43,7.064c-1.639-0.165-3.276-0.246-4.914-0.246
		c-1.803,0-3.522,0.081-5.16,0.246c0.246-2.783,0.388-6.572,0.43-11.364c0.041-4.792,0.062-10.667,0.062-17.63V51.43
		c0-3.194-0.021-6.88-0.062-11.057c-0.042-4.177-0.184-8.969-0.43-14.375c0.9,0.165,1.76,0.307,2.58,0.43
		c0.818,0.123,1.678,0.184,2.58,0.184c0.737,0,1.515-0.061,2.334-0.184c0.817-0.123,1.678-0.265,2.58-0.43
		c-0.328,2.949-0.512,5.283-0.553,7.003c-0.042,1.72-0.062,3.359-0.062,4.915l0.246,0.123c4.832-8.846,10.237-13.269,16.217-13.269
		c0.737,0,1.371,0.042,1.904,0.123c0.532,0.083,1.208,0.288,2.027,0.614c-0.411,0.983-0.657,2.478-0.737,4.484
		c-0.083,2.008-0.123,3.83-0.123,5.467l-0.86,0.614C450.531,35.582,449.732,35.132,448.546,34.722z"/>
	<path fill="#ECF0F9" d="M458.681,57.082c0-10.075,2.396-17.978,7.188-23.712c4.791-5.732,11.773-8.6,20.947-8.6
		c4.34,0,8.087,0.676,11.241,2.027c3.152,1.352,5.793,3.154,7.924,5.406c2.129,2.253,3.705,4.895,4.73,7.924
		c1.023,3.031,1.536,6.266,1.536,9.706c0,0.819-0.021,1.618-0.061,2.396c-0.042,0.779-0.104,1.578-0.185,2.396
		c-4.423-0.082-8.805-0.164-13.146-0.246c-4.342-0.081-8.723-0.123-13.146-0.123c-2.703,0-5.387,0.042-8.047,0.123
		c-2.663,0.082-5.344,0.164-8.047,0.246c-0.083,0.41-0.123,1.024-0.123,1.842v1.598c0,3.193,0.47,6.186,1.413,8.969
		c0.94,2.785,2.313,5.181,4.116,7.187c1.8,2.009,4.012,3.605,6.634,4.792c2.621,1.188,5.652,1.781,9.092,1.781
		c1.637,0,3.317-0.225,5.037-0.676c1.72-0.449,3.397-1.063,5.037-1.843c1.637-0.778,3.173-1.699,4.607-2.765
		c1.432-1.063,2.682-2.211,3.747-3.439l0.614,0.368l-0.737,6.021c-2.458,1.965-5.51,3.645-9.153,5.037
		c-3.646,1.391-7.433,2.088-11.364,2.088c-4.423,0-8.458-0.676-12.102-2.027c-3.646-1.352-6.799-3.316-9.46-5.896
		c-2.663-2.58-4.711-5.631-6.143-9.153C459.397,64.986,458.681,61.178,458.681,57.082z M487.061,28.702
		c-3.031,0-5.59,0.697-7.678,2.088c-2.089,1.394-3.809,3.133-5.16,5.222c-1.352,2.088-2.376,4.382-3.071,6.88
		c-0.697,2.499-1.127,4.853-1.29,7.063c2.538,0.083,5.179,0.166,7.924,0.246c2.743,0.083,5.425,0.123,8.047,0.123
		c2.703,0,5.446-0.04,8.231-0.123c2.784-0.08,5.486-0.163,8.108-0.246c0-2.211-0.184-4.545-0.553-7.002
		c-0.369-2.458-1.105-4.75-2.211-6.88c-1.105-2.129-2.641-3.889-4.607-5.283C492.835,29.398,490.255,28.702,487.061,28.702z"/>
	<path fill="#ECF0F9" d="M587.038,34.722c-1.188-0.409-2.395-0.614-3.624-0.614c-1.966,0-3.728,0.451-5.283,1.351
		c-1.557,0.902-2.868,2.11-3.932,3.625c-1.065,1.517-1.885,3.317-2.457,5.406c-0.574,2.088-0.86,4.321-0.86,6.695v13.516
		c0,5.487,0.019,9.686,0.062,12.592c0.04,2.908,0.184,5.264,0.43,7.064c-1.639-0.165-3.276-0.246-4.914-0.246
		c-1.803,0-3.522,0.081-5.16,0.246c0.246-2.783,0.388-6.572,0.43-11.364c0.041-4.792,0.062-10.667,0.062-17.63V51.43
		c0-3.194-0.021-6.88-0.062-11.057c-0.042-4.177-0.184-8.969-0.43-14.375c0.9,0.165,1.76,0.307,2.58,0.43
		c0.818,0.123,1.678,0.184,2.58,0.184c0.737,0,1.515-0.061,2.334-0.184c0.817-0.123,1.678-0.265,2.58-0.43
		c-0.328,2.949-0.512,5.283-0.553,7.003c-0.042,1.72-0.062,3.359-0.062,4.915l0.246,0.123c4.832-8.846,10.237-13.269,16.217-13.269
		c0.736,0,1.369,0.042,1.904,0.123c0.531,0.083,1.207,0.288,2.027,0.614c-0.412,0.983-0.658,2.478-0.738,4.484
		c-0.082,2.008-0.123,3.83-0.123,5.467l-0.859,0.614C589.024,35.582,588.225,35.132,587.038,34.722z"/>
	<path fill="#ECF0F9" d="M595.172,57.082c0-10.075,2.396-17.978,7.188-23.712c4.791-5.732,11.773-8.6,20.947-8.6
		c4.34,0,8.088,0.676,11.24,2.027s5.795,3.154,7.926,5.406c2.129,2.253,3.705,4.895,4.729,7.924
		c1.023,3.031,1.537,6.266,1.537,9.706c0,0.819-0.021,1.618-0.062,2.396c-0.041,0.779-0.104,1.578-0.184,2.396
		c-4.424-0.082-8.805-0.164-13.146-0.246c-4.342-0.081-8.723-0.123-13.145-0.123c-2.703,0-5.387,0.042-8.047,0.123
		c-2.664,0.082-5.345,0.164-8.046,0.246c-0.084,0.41-0.123,1.024-0.123,1.842v1.598c0,3.193,0.469,6.186,1.412,8.969
		c0.941,2.785,2.312,5.181,4.115,7.187c1.8,2.009,4.011,3.605,6.634,4.792c2.621,1.188,5.652,1.781,9.092,1.781
		c1.637,0,3.316-0.225,5.037-0.676c1.719-0.449,3.396-1.063,5.037-1.843c1.637-0.778,3.172-1.699,4.607-2.765
		c1.432-1.063,2.682-2.211,3.746-3.439l0.615,0.368l-0.738,6.021c-2.457,1.965-5.51,3.645-9.152,5.037
		c-3.645,1.391-7.434,2.088-11.363,2.088c-4.424,0-8.459-0.676-12.101-2.027c-3.646-1.352-6.801-3.316-9.461-5.896
		c-2.662-2.58-4.711-5.631-6.143-9.153C595.889,64.986,595.172,61.178,595.172,57.082z M623.553,28.702
		c-3.031,0-5.59,0.697-7.68,2.088c-2.088,1.394-3.808,3.133-5.16,5.222c-1.352,2.088-2.375,4.382-3.07,6.88
		c-0.697,2.499-1.127,4.853-1.291,7.063c2.539,0.083,5.18,0.166,7.925,0.246c2.742,0.083,5.424,0.123,8.047,0.123
		c2.703,0,5.445-0.04,8.23-0.123c2.783-0.08,5.486-0.163,8.109-0.246c0-2.211-0.186-4.545-0.553-7.002
		c-0.369-2.458-1.105-4.75-2.213-6.88c-1.105-2.129-2.641-3.889-4.605-5.283C629.326,29.398,626.746,28.702,623.553,28.702z"/>
	<path fill="#ECF0F9" d="M662.867,31.896c3.686-2.784,7.082-4.669,10.197-5.651c3.111-0.983,6.305-1.475,9.582-1.475
		c2.949,0,5.652,0.43,8.109,1.29s4.545,2.089,6.266,3.686c1.719,1.597,3.07,3.523,4.053,5.774c0.984,2.254,1.475,4.73,1.475,7.433
		c0,4.668-0.082,9.318-0.246,13.943c-0.164,4.629-0.244,9.521-0.244,14.682c0,0.983,0.018,2.027,0.061,3.133
		c0.041,1.105,0.225,2.089,0.553,2.949c0.326,0.859,0.799,1.578,1.414,2.15c0.613,0.573,1.535,0.859,2.764,0.859
		c0.408,0,0.838-0.02,1.289-0.062c0.449-0.04,0.879-0.185,1.291-0.431v2.703c-0.902,0.411-2.027,0.738-3.379,0.983
		s-2.848,0.368-4.484,0.368c-2.623,0-4.629-0.676-6.02-2.027c-1.395-1.352-2.211-3.09-2.457-5.221
		c-2.949,2.948-5.857,5.119-8.723,6.512c-2.869,1.391-6.389,2.088-10.566,2.088c-2.049,0-4.055-0.287-6.02-0.859
		c-1.967-0.574-3.707-1.516-5.223-2.826c-1.516-1.309-2.744-2.887-3.686-4.73c-0.941-1.842-1.412-3.95-1.412-6.326
		c0-4.914,1.535-8.723,4.607-11.426c3.07-2.703,7.311-4.504,12.715-5.406c4.424-0.736,7.883-1.371,10.383-1.904
		c2.496-0.531,4.34-1.084,5.527-1.658c1.188-0.572,1.904-1.248,2.15-2.027c0.246-0.777,0.369-1.781,0.369-3.01
		c0-2.046-0.246-4.012-0.738-5.897c-0.49-1.883-1.27-3.521-2.334-4.914c-1.064-1.392-2.457-2.519-4.178-3.378
		c-1.719-0.86-3.809-1.29-6.266-1.29c-3.275,0-6.326,0.737-9.152,2.211s-4.936,3.522-6.326,6.143h-1.352V31.896z M693.213,53.764
		c-1.395,0.492-3.01,0.902-4.854,1.229c-1.844,0.329-3.707,0.676-5.59,1.045c-1.885,0.369-3.748,0.841-5.59,1.413
		c-1.844,0.573-3.482,1.351-4.914,2.334c-1.434,0.983-2.58,2.212-3.439,3.686c-0.861,1.475-1.291,3.359-1.291,5.651
		c0,3.852,1.105,6.758,3.316,8.723c2.213,1.967,4.67,2.949,7.373,2.949c3.111,0,5.957-0.86,8.537-2.58
		c2.58-1.721,4.566-3.727,5.959-6.02L693.213,53.764z"/>
	<path fill="#ECF0F9" d="M554.194,77.086c0,0-4.365,4.181-10.436,3.787c-6.07-0.395-10.072-2.867-10.038-11.682
		c0.034-8.814,0.1-32.392,0.1-32.392c0.028-0.248,0.07-0.519,0.132-0.801c0.368-1.683,1.456-3.768,4.583-3.786l1.561-0.027
		c1.309-0.023,2.538-0.023,3.686-0.003c1.146,0.022,2.253,0.065,3.32,0.127c-0.086-0.245-0.134-0.653-0.144-1.226l-0.024-1.352
		l-0.021-1.229c-0.012-0.654,0.021-1.106,0.099-1.354c-2.865,0.215-5.523,0.364-7.979,0.446c-2.456,0.085-4.135,0.134-5.035,0.149
		c0.11-3.032,0.202-6.043,0.273-9.036c0.07-2.991,0.202-6.044,0.393-9.161l-0.614,0.011l-10.121,4.477
		c0.208,2.619,0.354,5.154,0.439,7.61c0.083,2.456,0.181,4.503,0.292,6.139c-1.72,0.03-4.424-0.046-8.114-0.228
		c0.087,0.41,0.156,0.817,0.206,1.226c0.047,0.41,0.076,0.818,0.083,1.227c0.008,0.491-0.005,0.964-0.037,1.414
		c-0.035,0.452-0.088,0.923-0.16,1.416c0.816-0.095,1.594-0.17,2.331-0.225c0.736-0.053,1.431-0.086,2.087-0.098l3.931-0.069
		c0.08,4.588,0.11,8.744,0.094,12.471c-0.018,3.729-0.06,7.127-0.129,10.201c-0.069,3.073-0.124,5.899-0.159,8.48
		c-0.038,2.581-0.036,4.978,0.002,7.188c0.085,4.913,1.379,8.62,3.879,11.114c0.358,0.356,0.745,0.687,1.158,0.991
		c2.319,1.704,5.502,2.567,9.534,2.606c0,0,13.066,0.534,15.723-4.847L554.194,77.086z"/>
	<path fill="#ECF0F9" d="M748.713,75.854c0,0-4.367,4.179-10.438,3.781c-6.07-0.396-10.07-2.871-10.033-11.686
		c0.039-8.814,0.115-32.392,0.115-32.392c0.029-0.248,0.07-0.519,0.133-0.801c0.369-1.682,1.457-3.767,4.584-3.784l1.562-0.026
		c1.309-0.022,2.537-0.021,3.686-0.001c1.146,0.023,2.254,0.066,3.32,0.128c-0.086-0.245-0.135-0.653-0.145-1.226l-0.023-1.352
		l-0.02-1.229c-0.012-0.654,0.021-1.106,0.1-1.354c-2.865,0.214-5.523,0.361-7.98,0.442c-2.455,0.084-4.135,0.132-5.035,0.147
		c0.113-3.032,0.205-6.043,0.277-9.036c0.072-2.991,0.205-6.044,0.398-9.161l-0.613,0.011l-10.123,4.472
		c0.207,2.619,0.352,5.155,0.436,7.611c0.082,2.456,0.178,4.503,0.289,6.139c-1.721,0.029-4.426-0.048-8.115-0.231
		c0.088,0.41,0.156,0.817,0.205,1.226c0.047,0.41,0.076,0.818,0.084,1.227c0.008,0.491-0.006,0.964-0.039,1.414
		c-0.033,0.452-0.088,0.923-0.16,1.416c0.816-0.095,1.596-0.169,2.33-0.224c0.738-0.053,1.432-0.086,2.088-0.097l3.932-0.066
		c0.078,4.588,0.105,8.744,0.088,12.471c-0.02,3.729-0.064,7.127-0.135,10.201c-0.07,3.072-0.127,5.899-0.164,8.48
		s-0.037,4.978,0,7.188c0.082,4.913,1.375,8.62,3.873,11.115c0.359,0.357,0.744,0.688,1.158,0.992
		c2.318,1.705,5.502,2.57,9.533,2.61c0,0,13.066,0.541,15.727-4.838L748.713,75.854z"/>
</g>
<g>
	
		<line fill="none" stroke="#231F20" stroke-width="0.75" stroke-linecap="round" stroke-miterlimit="10" x1="752.053" y1="71.046" x2="754.121" y2="67.895"/>
	
		<line fill="none" stroke="#231F20" stroke-width="0.75" stroke-linecap="round" stroke-miterlimit="10" x1="754.457" y1="72.622" x2="756.525" y2="69.471"/>
	<path fill="#ECF0F9" d="M749.83,69.471c0,0-6.385,6.395-1.646,9.701c4.736,3.308,8.645-4.816,8.645-4.816"/>
</g>
<path fill="#ECF0F9" d="M43.679,41.363c-1.188-0.409-2.396-0.614-3.625-0.614c-1.966,0-3.728,0.451-5.283,1.351
	c-1.557,0.902-2.868,2.11-3.932,3.625c-1.065,1.517-1.885,3.317-2.457,5.406c-0.574,2.088-0.86,4.321-0.86,6.695v13.516
	c0,5.487,0.019,9.686,0.062,12.592c0.04,2.908,0.184,5.264,0.43,7.064c-1.639-0.165-3.276-0.246-4.914-0.246
	c-1.803,0-3.522,0.081-5.16,0.246c0.246-2.783,0.388-6.572,0.43-11.364c0.041-4.792,0.062-10.667,0.062-17.63v-3.932
	c0-3.194-0.021-6.88-0.062-11.057c-0.042-4.177-0.184-8.969-0.43-14.375c0.9,0.165,1.76,0.307,2.58,0.43
	c0.818,0.123,1.678,0.184,2.58,0.184c0.737,0,1.515-0.061,2.334-0.184c0.817-0.123,1.678-0.265,2.58-0.43
	c-0.328,2.949-0.512,5.283-0.553,7.003c-0.042,1.72-0.062,3.359-0.062,4.915l0.246,0.123c4.832-8.846,10.237-13.269,16.217-13.269
	c0.737,0,1.371,0.042,1.904,0.123c0.532,0.083,1.208,0.288,2.027,0.614c-0.411,0.983-0.657,2.478-0.737,4.484
	c-0.083,2.008-0.123,3.83-0.123,5.467l-0.86,0.614C45.664,42.223,44.865,41.774,43.679,41.363z"/>
<path fill="#ECF0F9" d="M53.813,63.724c0-10.075,2.396-17.978,7.188-23.712c4.791-5.732,11.773-8.6,20.947-8.6
	c4.34,0,8.087,0.676,11.241,2.027c3.152,1.352,5.793,3.154,7.924,5.406c2.129,2.253,3.705,4.895,4.73,7.924
	c1.023,3.031,1.536,6.266,1.536,9.706c0,0.819-0.021,1.618-0.061,2.396c-0.042,0.779-0.104,1.578-0.185,2.396
	c-4.423-0.082-8.805-0.164-13.146-0.246c-4.342-0.081-8.723-0.123-13.146-0.123c-2.703,0-5.387,0.042-8.047,0.123
	c-2.663,0.082-5.344,0.164-8.047,0.246c-0.083,0.41-0.123,1.024-0.123,1.842v1.598c0,3.193,0.47,6.186,1.413,8.969
	c0.94,2.785,2.313,5.181,4.116,7.187c1.8,2.009,4.012,3.605,6.634,4.792c2.621,1.188,5.652,1.781,9.092,1.781
	c1.637,0,3.317-0.225,5.037-0.676c1.72-0.449,3.397-1.063,5.037-1.843c1.637-0.778,3.173-1.699,4.607-2.765
	c1.432-1.063,2.682-2.211,3.747-3.439l0.614,0.368l-0.737,6.021c-2.458,1.965-5.51,3.645-9.153,5.037
	c-3.646,1.391-7.433,2.088-11.364,2.088c-4.423,0-8.458-0.676-12.102-2.027c-3.646-1.352-6.799-3.316-9.46-5.896
	c-2.663-2.58-4.711-5.631-6.143-9.153C54.529,71.628,53.813,67.819,53.813,63.724z M82.193,35.343c-3.031,0-5.59,0.697-7.678,2.088
	c-2.089,1.394-3.809,3.133-5.16,5.222c-1.352,2.088-2.376,4.382-3.071,6.88c-0.697,2.499-1.127,4.853-1.29,7.063
	c2.538,0.083,5.179,0.166,7.924,0.246c2.743,0.083,5.425,0.123,8.047,0.123c2.703,0,5.446-0.04,8.231-0.123
	c2.784-0.08,5.486-0.163,8.108-0.246c0-2.211-0.184-4.545-0.553-7.002c-0.369-2.458-1.105-4.75-2.211-6.88
	c-1.105-2.129-2.641-3.889-4.607-5.283C87.967,36.04,85.387,35.343,82.193,35.343z"/>
<path fill="#ECF0F9" d="M182.17,41.363c-1.188-0.409-2.395-0.614-3.624-0.614c-1.966,0-3.728,0.451-5.283,1.351
	c-1.557,0.902-2.868,2.11-3.932,3.625c-1.065,1.517-1.885,3.317-2.457,5.406c-0.574,2.088-0.86,4.321-0.86,6.695v13.516
	c0,5.487,0.019,9.686,0.062,12.592c0.04,2.908,0.184,5.264,0.43,7.064c-1.639-0.165-3.276-0.246-4.914-0.246
	c-1.803,0-3.522,0.081-5.16,0.246c0.246-2.783,0.388-6.572,0.43-11.364c0.041-4.792,0.062-10.667,0.062-17.63v-3.932
	c0-3.194-0.021-6.88-0.062-11.057c-0.042-4.177-0.184-8.969-0.43-14.375c0.9,0.165,1.76,0.307,2.58,0.43
	c0.818,0.123,1.678,0.184,2.58,0.184c0.737,0,1.515-0.061,2.334-0.184c0.817-0.123,1.678-0.265,2.58-0.43
	c-0.328,2.949-0.512,5.283-0.553,7.003c-0.042,1.72-0.062,3.359-0.062,4.915l0.246,0.123c4.832-8.846,10.237-13.269,16.217-13.269
	c0.736,0,1.369,0.042,1.904,0.123c0.531,0.083,1.207,0.288,2.027,0.614c-0.412,0.983-0.658,2.478-0.738,4.484
	c-0.082,2.008-0.123,3.83-0.123,5.467l-0.859,0.614C184.156,42.223,183.357,41.774,182.17,41.363z"/>
<path fill="#ECF0F9" d="M190.305,63.724c0-10.075,2.396-17.978,7.188-23.712c4.791-5.732,11.773-8.6,20.947-8.6
	c4.34,0,8.088,0.676,11.24,2.027s5.795,3.154,7.926,5.406c2.129,2.253,3.705,4.895,4.729,7.924c1.023,3.031,1.537,6.266,1.537,9.706
	c0,0.819-0.021,1.618-0.062,2.396c-0.041,0.779-0.104,1.578-0.184,2.396c-4.424-0.082-8.805-0.164-13.146-0.246
	c-4.342-0.081-8.723-0.123-13.145-0.123c-2.703,0-5.387,0.042-8.047,0.123c-2.664,0.082-5.346,0.164-8.047,0.246
	c-0.084,0.41-0.123,1.024-0.123,1.842v1.598c0,3.193,0.469,6.186,1.412,8.969c0.941,2.785,2.312,5.181,4.115,7.187
	c1.801,2.009,4.012,3.605,6.635,4.792c2.621,1.188,5.652,1.781,9.092,1.781c1.637,0,3.316-0.225,5.037-0.676
	c1.719-0.449,3.396-1.063,5.037-1.843c1.637-0.778,3.172-1.699,4.607-2.765c1.432-1.063,2.682-2.211,3.746-3.439l0.615,0.368
	l-0.738,6.021c-2.457,1.965-5.51,3.645-9.152,5.037c-3.645,1.391-7.434,2.088-11.363,2.088c-4.424,0-8.459-0.676-12.102-2.027
	c-3.646-1.352-6.801-3.316-9.461-5.896c-2.662-2.58-4.711-5.631-6.143-9.153C191.021,71.628,190.305,67.819,190.305,63.724z
	 M218.686,35.343c-3.031,0-5.59,0.697-7.68,2.088c-2.088,1.394-3.809,3.133-5.16,5.222c-1.352,2.088-2.375,4.382-3.07,6.88
	c-0.697,2.499-1.127,4.853-1.291,7.063c2.539,0.083,5.18,0.166,7.926,0.246c2.742,0.083,5.424,0.123,8.047,0.123
	c2.703,0,5.445-0.04,8.23-0.123c2.783-0.08,5.486-0.163,8.109-0.246c0-2.211-0.186-4.545-0.553-7.002
	c-0.369-2.458-1.105-4.75-2.213-6.88c-1.105-2.129-2.641-3.889-4.605-5.283C224.459,36.04,221.879,35.343,218.686,35.343z"/>
<path fill="#ECF0F9" d="M258,38.538c3.686-2.784,7.082-4.669,10.197-5.651c3.111-0.983,6.305-1.475,9.582-1.475
	c2.949,0,5.652,0.43,8.109,1.29s4.545,2.089,6.266,3.686c1.719,1.597,3.07,3.523,4.053,5.774c0.984,2.254,1.475,4.73,1.475,7.433
	c0,4.668-0.082,9.318-0.246,13.943c-0.164,4.629-0.244,9.521-0.244,14.682c0,0.983,0.018,2.027,0.061,3.133
	c0.041,1.105,0.225,2.089,0.553,2.949c0.326,0.859,0.799,1.578,1.414,2.15c0.613,0.573,1.535,0.859,2.764,0.859
	c0.408,0,0.838-0.02,1.289-0.062c0.449-0.04,0.879-0.185,1.291-0.431v2.703c-0.902,0.411-2.027,0.738-3.379,0.983
	s-2.848,0.368-4.484,0.368c-2.623,0-4.629-0.676-6.02-2.027c-1.395-1.352-2.211-3.09-2.457-5.221
	c-2.949,2.948-5.857,5.119-8.723,6.512c-2.869,1.391-6.389,2.088-10.566,2.088c-2.049,0-4.055-0.287-6.02-0.859
	c-1.967-0.574-3.707-1.516-5.223-2.826c-1.516-1.309-2.744-2.887-3.686-4.73c-0.941-1.842-1.412-3.95-1.412-6.326
	c0-4.914,1.535-8.723,4.607-11.426c3.07-2.703,7.311-4.504,12.715-5.406c4.424-0.736,7.883-1.371,10.383-1.904
	c2.496-0.531,4.34-1.084,5.527-1.658c1.188-0.572,1.904-1.248,2.15-2.027c0.246-0.777,0.369-1.781,0.369-3.01
	c0-2.046-0.246-4.012-0.738-5.897c-0.49-1.883-1.27-3.521-2.334-4.914c-1.064-1.392-2.457-2.519-4.178-3.378
	c-1.719-0.86-3.809-1.29-6.266-1.29c-3.275,0-6.326,0.737-9.152,2.211s-4.936,3.522-6.326,6.143H258V38.538z M288.346,60.405
	c-1.395,0.492-3.01,0.902-4.854,1.229c-1.844,0.329-3.707,0.676-5.59,1.045c-1.885,0.369-3.748,0.841-5.59,1.413
	c-1.844,0.573-3.482,1.351-4.914,2.334c-1.434,0.983-2.58,2.212-3.439,3.686c-0.861,1.475-1.291,3.359-1.291,5.651
	c0,3.852,1.105,6.758,3.316,8.723c2.213,1.967,4.67,2.949,7.373,2.949c3.111,0,5.957-0.86,8.537-2.58
	c2.58-1.721,4.566-3.727,5.959-6.02L288.346,60.405z"/>
<path fill="#ECF0F9" d="M149.326,83.728c0,0-4.365,4.181-10.436,3.787c-6.07-0.395-10.072-2.867-10.038-11.682
	c0.034-8.814,0.1-32.392,0.1-32.392c0.028-0.248,0.07-0.519,0.132-0.801c0.368-1.683,1.456-3.768,4.583-3.786l1.561-0.027
	c1.309-0.023,2.538-0.023,3.686-0.003c1.146,0.022,2.253,0.065,3.32,0.127c-0.086-0.245-0.134-0.653-0.144-1.226l-0.024-1.352
	l-0.021-1.229c-0.012-0.654,0.021-1.106,0.099-1.354c-2.865,0.215-5.523,0.364-7.979,0.446c-2.456,0.085-4.135,0.134-5.035,0.149
	c0.11-3.032,0.202-6.043,0.273-9.036c0.07-2.991,0.202-6.044,0.393-9.161l-0.614,0.011l-10.121,4.477
	c0.208,2.619,0.354,5.154,0.439,7.61c0.083,2.456,0.181,4.503,0.292,6.139c-1.72,0.03-4.424-0.046-8.114-0.228
	c0.087,0.41,0.156,0.817,0.206,1.226c0.047,0.41,0.076,0.818,0.083,1.227c0.008,0.491-0.005,0.964-0.037,1.414
	c-0.035,0.452-0.088,0.923-0.16,1.416c0.816-0.095,1.594-0.17,2.331-0.225c0.736-0.053,1.431-0.086,2.087-0.098l3.931-0.069
	c0.08,4.588,0.11,8.744,0.094,12.471c-0.018,3.729-0.06,7.127-0.129,10.201c-0.069,3.073-0.124,5.899-0.159,8.48
	c-0.038,2.581-0.036,4.978,0.002,7.188c0.085,4.913,1.379,8.62,3.879,11.114c0.358,0.356,0.745,0.687,1.158,0.991
	c2.319,1.704,5.502,2.567,9.534,2.606c0,0,13.066,0.534,15.723-4.847L149.326,83.728z"/>
<g>
	
		<line fill="none" stroke="#231F20" stroke-linecap="round" stroke-miterlimit="10" x1="370.243" y1="86.228" x2="375.26" y2="86.085"/>
	
		<line fill="none" stroke="#231F20" stroke-linecap="round" stroke-miterlimit="10" x1="370.354" y1="90.053" x2="375.37" y2="89.911"/>
	<path fill="#ECF0F9" d="M370.27,82.6c0,0-11.846-2.1-11.848,5.593c-0.003,7.693,11.845,5.771,11.845,5.771"/>
</g>
<path fill="#ECF0F9" d="M345.841,83.857c-7.406-0.153-7.073,1.811-15.251,1.966c0,0,2.499,0.085,0,0.06s-7.246-3.932-7.215-11.292
	c0.039-8.814,0.115-32.392,0.115-32.392c0.029-0.248,0.07-0.519,0.133-0.801c0.369-1.682,1.457-3.767,4.584-3.784l1.562-0.026
	c1.309-0.022,2.537-0.021,3.686-0.001c1.146,0.023,2.254,0.066,3.32,0.128c-0.086-0.245-0.135-0.653-0.145-1.226l-0.023-1.352
	l-0.02-1.229c-0.012-0.654,0.021-1.106,0.1-1.354c-2.865,0.214-5.523,0.361-7.98,0.442c-2.455,0.084-4.135,0.132-5.035,0.147
	c0.113-3.032,0.205-6.043,0.277-9.036c0.072-2.991,0.205-6.044,0.398-9.161l-0.613,0.011l-10.123,4.472
	c0.207,2.619,0.352,5.155,0.436,7.611c0.082,2.456,0.178,4.503,0.289,6.139c-1.721,0.029-4.426-0.048-8.115-0.231
	c0.088,0.41,0.156,0.817,0.205,1.226c0.047,0.41,0.076,0.818,0.084,1.227c0.008,0.491-0.006,0.964-0.039,1.414
	c-0.033,0.452-0.088,0.923-0.16,1.416c0.816-0.095,1.596-0.169,2.33-0.224c0.738-0.053,1.432-0.086,2.088-0.097l3.932-0.066
	c0.078,4.588,0.105,8.744,0.088,12.471c-0.02,3.729-0.064,7.127-0.135,10.201c-0.07,3.072-0.127,5.899-0.164,8.48
	s-0.037,4.978,0,7.188c0.082,4.913,1.375,8.62,3.873,11.115c0.359,0.357,0.744,0.688,1.158,0.992c2.318,1.705,5.502,2.57,9.533,2.61
	c0,0,0.604,0.024,1.576,0.011v0.004c8.178-0.154,7.406-1.964,14.812-1.81s7.098,1.81,14.812,1.81v-5.094
	C352.5,85.823,353.247,84.013,345.841,83.857z"/>
</svg>
