<?xml version="1.0" encoding="utf-8"?>
<!-- Generator: Adobe Illustrator 15.0.0, SVG Export Plug-In . SVG Version: 6.00 Build 0)  -->
<!DOCTYPE svg PUBLIC "-//W3C//DTD SVG 1.1//EN" "http://www.w3.org/Graphics/SVG/1.1/DTD/svg11.dtd">
<svg version="1.1" id="Layer_1" xmlns="http://www.w3.org/2000/svg" xmlns:xlink="http://www.w3.org/1999/xlink" x="0px" y="0px"
	 width="393.311px" height="115.081px" viewBox="0 0 393.311 115.081" enable-background="new 0 0 393.311 115.081"
	 xml:space="preserve">
<text transform="matrix(1 0 0 1 15.4844 89.3618)" fill="#D05432" font-family="'Avenir-Book'" font-size="122.7604">retreat</text>
<g>
	<path fill="#F15A29" d="M220.591,21.722c0-2.217,0-5.845,0-8.062s1.571-3.123,3.491-2.015s5.062,2.922,6.981,4.03
		s1.92,2.922,0,4.031s-5.062,2.923-6.981,4.031S220.591,23.939,220.591,21.722z"/>
</g>
<g>
	<path fill="#F15A29" d="M254.169,13.662c0,2.217,0,5.845,0,8.062s-1.571,3.123-3.491,2.015s-5.062-2.922-6.982-4.03
		s-1.92-2.922,0-4.031s5.062-2.923,6.982-4.031S254.169,11.445,254.169,13.662z"/>
</g>
</svg>
