<?xml version="1.0" encoding="utf-8"?>
<!-- Generator: Adobe Illustrator 15.0.0, SVG Export Plug-In . SVG Version: 6.00 Build 0)  -->
<!DOCTYPE svg PUBLIC "-//W3C//DTD SVG 1.1//EN" "http://www.w3.org/Graphics/SVG/1.1/DTD/svg11.dtd">
<svg version="1.1" id="Layer_1" xmlns="http://www.w3.org/2000/svg" xmlns:xlink="http://www.w3.org/1999/xlink" x="0px" y="0px"
	 width="393.311px" height="115.082px" viewBox="0 0 393.311 115.082" enable-background="new 0 0 393.311 115.082"
	 xml:space="preserve">
<path fill="#ECF0F9" d="M43.679,41.363c-1.188-0.409-2.396-0.614-3.625-0.614c-1.966,0-3.728,0.451-5.283,1.351
	c-1.557,0.902-2.868,2.11-3.932,3.625c-1.065,1.517-1.885,3.317-2.457,5.406c-0.574,2.088-0.86,4.321-0.86,6.695v13.515
	c0,5.488,0.02,9.687,0.062,12.593c0.04,2.907,0.184,5.265,0.43,7.063c-1.639-0.164-3.276-0.246-4.914-0.246
	c-1.803,0-3.521,0.082-5.16,0.246c0.246-2.783,0.389-6.572,0.431-11.363c0.041-4.793,0.062-10.668,0.062-17.631v-3.932
	c0-3.194-0.021-6.88-0.062-11.057c-0.042-4.177-0.185-8.969-0.431-14.375c0.9,0.165,1.761,0.307,2.58,0.43
	c0.818,0.123,1.679,0.184,2.58,0.184c0.737,0,1.516-0.061,2.334-0.184c0.817-0.123,1.678-0.265,2.58-0.43
	c-0.328,2.949-0.512,5.283-0.553,7.003c-0.042,1.72-0.062,3.359-0.062,4.915l0.246,0.123c4.832-8.846,10.237-13.269,16.217-13.269
	c0.737,0,1.371,0.042,1.904,0.123c0.532,0.083,1.208,0.288,2.027,0.614c-0.411,0.983-0.657,2.478-0.737,4.484
	c-0.083,2.008-0.123,3.83-0.123,5.467l-0.859,0.614C45.664,42.223,44.865,41.774,43.679,41.363z"/>
<path fill="#ECF0F9" d="M53.813,63.724c0-10.075,2.396-17.978,7.188-23.712c4.791-5.732,11.772-8.6,20.947-8.6
	c4.34,0,8.087,0.676,11.24,2.027c3.152,1.352,5.793,3.154,7.924,5.406c2.13,2.253,3.705,4.896,4.73,7.924
	c1.023,3.031,1.536,6.266,1.536,9.706c0,0.819-0.021,1.618-0.062,2.396c-0.042,0.779-0.104,1.578-0.185,2.396
	c-4.423-0.082-8.805-0.164-13.146-0.246c-4.342-0.081-8.723-0.123-13.146-0.123c-2.703,0-5.387,0.042-8.047,0.123
	c-2.663,0.082-5.344,0.164-8.047,0.246c-0.083,0.41-0.123,1.023-0.123,1.842v1.598c0,3.193,0.47,6.187,1.413,8.969
	c0.939,2.785,2.312,5.182,4.115,7.188c1.801,2.01,4.013,3.605,6.635,4.793c2.621,1.188,5.651,1.78,9.092,1.78
	c1.637,0,3.316-0.226,5.037-0.677c1.72-0.448,3.396-1.062,5.037-1.842c1.637-0.778,3.173-1.699,4.606-2.766
	c1.433-1.062,2.683-2.211,3.747-3.439l0.614,0.369l-0.737,6.021c-2.458,1.965-5.51,3.646-9.152,5.037
	c-3.646,1.391-7.434,2.088-11.364,2.088c-4.423,0-8.458-0.677-12.103-2.026c-3.646-1.353-6.799-3.316-9.46-5.896
	c-2.663-2.58-4.711-5.631-6.143-9.153C54.529,71.628,53.813,67.819,53.813,63.724z M82.193,35.343c-3.03,0-5.59,0.697-7.678,2.088
	c-2.089,1.394-3.809,3.133-5.16,5.222c-1.352,2.088-2.376,4.382-3.07,6.88c-0.697,2.499-1.127,4.853-1.29,7.063
	c2.538,0.083,5.179,0.166,7.924,0.246c2.743,0.083,5.425,0.123,8.047,0.123c2.703,0,5.446-0.04,8.23-0.123
	c2.784-0.08,5.486-0.163,8.108-0.246c0-2.211-0.184-4.545-0.553-7.002c-0.369-2.458-1.105-4.75-2.211-6.88
	c-1.105-2.129-2.642-3.889-4.607-5.283C87.967,36.04,85.387,35.343,82.193,35.343z"/>
<path fill="#ECF0F9" d="M182.17,41.363c-1.188-0.409-2.396-0.614-3.624-0.614c-1.966,0-3.729,0.451-5.283,1.351
	c-1.557,0.902-2.868,2.11-3.932,3.625c-1.065,1.517-1.886,3.317-2.457,5.406c-0.574,2.088-0.86,4.321-0.86,6.695v13.515
	c0,5.488,0.02,9.687,0.062,12.593c0.04,2.907,0.184,5.265,0.43,7.063c-1.639-0.164-3.276-0.246-4.914-0.246
	c-1.803,0-3.522,0.082-5.16,0.246c0.246-2.783,0.388-6.572,0.43-11.363c0.041-4.793,0.062-10.668,0.062-17.631v-3.932
	c0-3.194-0.021-6.88-0.062-11.057c-0.042-4.177-0.184-8.969-0.43-14.375c0.9,0.165,1.76,0.307,2.58,0.43
	c0.818,0.123,1.678,0.184,2.58,0.184c0.737,0,1.515-0.061,2.334-0.184c0.817-0.123,1.678-0.265,2.58-0.43
	c-0.328,2.949-0.512,5.283-0.553,7.003c-0.042,1.72-0.062,3.359-0.062,4.915l0.246,0.123c4.832-8.846,10.237-13.269,16.217-13.269
	c0.736,0,1.369,0.042,1.904,0.123c0.531,0.083,1.207,0.288,2.027,0.614c-0.412,0.983-0.658,2.478-0.738,4.484
	c-0.082,2.008-0.123,3.83-0.123,5.467l-0.859,0.614C184.156,42.223,183.357,41.774,182.17,41.363z"/>
<path fill="#ECF0F9" d="M190.305,63.724c0-10.075,2.396-17.978,7.188-23.712c4.791-5.732,11.772-8.6,20.946-8.6
	c4.34,0,8.088,0.676,11.24,2.027s5.795,3.154,7.926,5.406c2.129,2.253,3.705,4.896,4.729,7.924c1.022,3.031,1.537,6.266,1.537,9.706
	c0,0.819-0.021,1.618-0.062,2.396c-0.041,0.779-0.104,1.578-0.184,2.396c-4.424-0.082-8.806-0.164-13.146-0.246
	c-4.342-0.081-8.723-0.123-13.145-0.123c-2.703,0-5.387,0.042-8.047,0.123c-2.664,0.082-5.347,0.164-8.047,0.246
	c-0.084,0.41-0.123,1.023-0.123,1.842v1.598c0,3.193,0.469,6.187,1.412,8.969c0.94,2.785,2.312,5.182,4.114,7.188
	c1.801,2.01,4.013,3.605,6.636,4.793c2.62,1.188,5.651,1.78,9.092,1.78c1.637,0,3.315-0.226,5.037-0.677
	c1.719-0.448,3.396-1.062,5.036-1.842c1.638-0.778,3.173-1.699,4.607-2.766c1.432-1.062,2.682-2.211,3.746-3.439l0.615,0.369
	l-0.738,6.021c-2.457,1.965-5.51,3.646-9.152,5.037c-3.645,1.391-7.434,2.088-11.362,2.088c-4.425,0-8.459-0.677-12.103-2.026
	c-3.646-1.353-6.801-3.316-9.461-5.896c-2.662-2.58-4.711-5.631-6.143-9.153C191.021,71.628,190.305,67.819,190.305,63.724z
	 M218.686,35.343c-3.031,0-5.59,0.697-7.68,2.088c-2.088,1.394-3.809,3.133-5.16,5.222c-1.352,2.088-2.375,4.382-3.07,6.88
	c-0.696,2.499-1.127,4.853-1.291,7.063c2.539,0.083,5.181,0.166,7.927,0.246c2.741,0.083,5.424,0.123,8.047,0.123
	c2.703,0,5.444-0.04,8.229-0.123c2.783-0.08,5.486-0.163,8.109-0.246c0-2.211-0.187-4.545-0.553-7.002
	c-0.369-2.458-1.105-4.75-2.213-6.88c-1.105-2.129-2.642-3.889-4.605-5.283C224.459,36.04,221.879,35.343,218.686,35.343z"/>
<path fill="#ECF0F9" d="M258,38.538c3.686-2.784,7.082-4.669,10.196-5.651c3.111-0.983,6.306-1.475,9.582-1.475
	c2.949,0,5.652,0.43,8.109,1.29c2.457,0.86,4.545,2.089,6.266,3.686c1.72,1.597,3.07,3.523,4.054,5.774
	c0.983,2.254,1.475,4.73,1.475,7.433c0,4.668-0.082,9.319-0.246,13.944c-0.164,4.629-0.244,9.521-0.244,14.682
	c0,0.982,0.019,2.027,0.062,3.133c0.041,1.105,0.225,2.089,0.553,2.949c0.326,0.859,0.799,1.578,1.414,2.15
	c0.613,0.572,1.535,0.858,2.764,0.858c0.408,0,0.839-0.021,1.289-0.062c0.449-0.041,0.879-0.186,1.291-0.432v2.703
	c-0.901,0.411-2.026,0.738-3.379,0.982c-1.352,0.246-2.848,0.369-4.483,0.369c-2.623,0-4.629-0.677-6.021-2.027
	c-1.395-1.352-2.211-3.09-2.457-5.221c-2.949,2.947-5.856,5.119-8.723,6.512c-2.869,1.391-6.39,2.088-10.566,2.088
	c-2.049,0-4.055-0.287-6.02-0.859c-1.967-0.574-3.707-1.516-5.224-2.826c-1.516-1.309-2.743-2.887-3.686-4.729
	c-0.941-1.843-1.412-3.95-1.412-6.326c0-4.914,1.535-8.724,4.607-11.426c3.069-2.703,7.311-4.505,12.715-5.406
	c4.424-0.735,7.883-1.37,10.383-1.903c2.496-0.531,4.34-1.084,5.527-1.659c1.188-0.572,1.903-1.248,2.149-2.027
	c0.246-0.777,0.369-1.781,0.369-3.01c0-2.046-0.246-4.012-0.738-5.896c-0.489-1.883-1.27-3.521-2.334-4.914
	c-1.063-1.392-2.457-2.519-4.178-3.378c-1.719-0.86-3.809-1.29-6.266-1.29c-3.275,0-6.326,0.737-9.152,2.211
	c-2.826,1.474-4.936,3.522-6.326,6.143H258V38.538z M288.346,60.406c-1.395,0.491-3.01,0.901-4.854,1.229
	c-1.845,0.328-3.707,0.676-5.591,1.045c-1.885,0.369-3.748,0.841-5.59,1.412c-1.844,0.574-3.481,1.352-4.914,2.334
	c-1.434,0.984-2.58,2.213-3.438,3.687c-0.861,1.476-1.291,3.359-1.291,5.651c0,3.852,1.104,6.758,3.315,8.723
	c2.214,1.967,4.671,2.949,7.373,2.949c3.111,0,5.957-0.859,8.537-2.58s4.566-3.727,5.959-6.02L288.346,60.406z"/>
<path fill="#ECF0F9" d="M149.326,83.728c0,0-4.365,4.182-10.437,3.787c-6.07-0.395-10.072-2.867-10.038-11.682
	s0.101-32.393,0.101-32.393c0.027-0.248,0.069-0.519,0.132-0.801c0.368-1.683,1.456-3.768,4.583-3.786l1.561-0.027
	c1.31-0.023,2.538-0.023,3.687-0.003c1.146,0.022,2.253,0.065,3.319,0.127c-0.086-0.245-0.134-0.653-0.144-1.226l-0.024-1.352
	l-0.021-1.229c-0.012-0.654,0.021-1.106,0.099-1.354c-2.864,0.215-5.522,0.364-7.979,0.446c-2.456,0.085-4.135,0.134-5.035,0.149
	c0.11-3.032,0.202-6.043,0.272-9.036c0.07-2.991,0.202-6.044,0.394-9.161l-0.614,0.011l-10.121,4.477
	c0.208,2.619,0.354,5.154,0.439,7.61c0.083,2.456,0.181,4.503,0.292,6.139c-1.72,0.03-4.424-0.046-8.114-0.228
	c0.087,0.41,0.156,0.817,0.206,1.226c0.047,0.41,0.076,0.818,0.083,1.227c0.008,0.491-0.005,0.964-0.037,1.414
	c-0.035,0.452-0.088,0.923-0.16,1.416c0.816-0.095,1.595-0.17,2.331-0.225c0.736-0.053,1.432-0.086,2.087-0.098l3.932-0.069
	c0.08,4.588,0.109,8.744,0.094,12.471c-0.019,3.729-0.061,7.127-0.129,10.2c-0.069,3.074-0.124,5.9-0.159,8.48
	c-0.038,2.581-0.036,4.979,0.002,7.188c0.085,4.914,1.379,8.621,3.879,11.115c0.358,0.355,0.745,0.687,1.158,0.99
	c2.319,1.704,5.502,2.567,9.534,2.606c0,0,13.065,0.534,15.723-4.847L149.326,83.728z"/>
<g>
	
		<line fill="none" stroke="#231F20" stroke-linecap="round" stroke-miterlimit="10" x1="370.243" y1="86.228" x2="375.26" y2="86.085"/>
	
		<line fill="none" stroke="#231F20" stroke-linecap="round" stroke-miterlimit="10" x1="370.354" y1="90.052" x2="375.37" y2="89.912"/>
	<path fill="#ECF0F9" d="M370.27,82.6c0,0-11.846-2.101-11.848,5.593c-0.003,7.693,11.845,5.771,11.845,5.771"/>
</g>
<path fill="#ECF0F9" d="M345.841,83.857c-7.406-0.152-7.073,1.811-15.251,1.967c0,0,2.499,0.084,0,0.059
	c-2.499-0.024-7.246-3.932-7.215-11.291c0.039-8.814,0.115-32.392,0.115-32.392c0.028-0.248,0.069-0.519,0.133-0.801
	c0.369-1.682,1.457-3.767,4.584-3.784l1.562-0.026c1.31-0.022,2.537-0.021,3.687-0.001c1.146,0.023,2.254,0.066,3.319,0.128
	c-0.086-0.245-0.135-0.653-0.145-1.226l-0.023-1.352l-0.02-1.229c-0.012-0.654,0.021-1.106,0.1-1.354
	c-2.864,0.214-5.522,0.361-7.979,0.442c-2.455,0.084-4.135,0.132-5.035,0.147c0.113-3.032,0.205-6.043,0.277-9.036
	c0.071-2.991,0.205-6.044,0.397-9.161l-0.613,0.011l-10.122,4.472c0.206,2.619,0.352,5.155,0.436,7.611
	c0.082,2.456,0.178,4.503,0.289,6.139c-1.721,0.029-4.426-0.048-8.115-0.231c0.088,0.41,0.156,0.817,0.205,1.226
	c0.047,0.41,0.076,0.818,0.084,1.227c0.008,0.491-0.006,0.964-0.039,1.414c-0.033,0.452-0.088,0.923-0.16,1.416
	c0.816-0.095,1.597-0.169,2.33-0.224c0.738-0.053,1.433-0.086,2.088-0.097l3.933-0.066c0.078,4.588,0.104,8.744,0.088,12.471
	c-0.021,3.729-0.064,7.127-0.135,10.201c-0.07,3.071-0.127,5.899-0.164,8.479c-0.037,2.582-0.037,4.979,0,7.188
	c0.082,4.913,1.375,8.62,3.873,11.114c0.358,0.357,0.743,0.688,1.157,0.992c2.318,1.705,5.502,2.57,9.533,2.61
	c0,0,0.604,0.024,1.576,0.011v0.004c8.178-0.153,7.406-1.963,14.812-1.81c7.406,0.153,7.099,1.81,14.812,1.81v-5.094
	C352.5,85.824,353.247,84.013,345.841,83.857z"/>
</svg>
